<svg xmlns="http://www.w3.org/2000/svg" xmlns:xlink="http://www.w3.org/1999/xlink" width="86.833" height="56.722" viewBox="0 0 86.833 56.722">
  <defs>
    <clipPath id="clip-path">
      <rect id="Rectángulo_352123" data-name="Rectángulo 352123" width="86.833" height="56.722" fill="none"/>
    </clipPath>
  </defs>
  <g id="Grupo_973564" data-name="Grupo 973564" transform="translate(-198.583 -5321.416)">
    <g id="Grupo_952687" data-name="Grupo 952687" transform="translate(198.583 5321.416)" clip-path="url(#clip-path)">
      <path id="Trazado_659828" data-name="Trazado 659828" d="M91.539,44.788H68.9q-5.27,0-10.54,0a1.9,1.9,0,0,1-1.942-1.539,2.521,2.521,0,0,1-.038-.507q0-20.345,0-40.689A1.947,1.947,0,0,1,58.468,0H97.987q13.288,0,26.576,0a2.033,2.033,0,0,1,1.87.925,2.179,2.179,0,0,1,.3,1.2q0,13.093,0,26.185c0,4.775-.014,9.549.01,14.324A2.044,2.044,0,0,1,124.6,44.8c-7.287-.021-14.574-.009-21.861-.009h-11.2Zm-.062-4.34h30.235c.436,0,.438,0,.438-.392q0-17.731,0-35.462c0-.282-.069-.376-.366-.375q-7.582.014-15.163.007H61.253c-.436,0-.436,0-.436.444q0,17.566,0,35.132c0,.73-.089.647.632.647q15.014,0,30.027,0" transform="translate(-48.137 0)" fill="#3c0061"/>
      <path id="Trazado_659829" data-name="Trazado 659829" d="M43.43,323.769H2.261A1.923,1.923,0,0,1,.2,322.507a2.4,2.4,0,0,1,.5-2.667q2.569-2.439,5.156-4.859c.59-.555,1.185-1.106,1.77-1.667a1.949,1.949,0,0,1,1.411-.557q3.844,0,7.687,0H47.133q15.283,0,30.566,0a2.1,2.1,0,0,1,1.523.579c2.277,2.151,4.571,4.283,6.84,6.442a2.414,2.414,0,0,1-.017,3.554,1.6,1.6,0,0,1-1.058.436c-.29.009-.58.006-.871.006H43.43Z" transform="translate(0 -267.048)" fill="#3c0061"/>
    </g>
    <rect id="Rectángulo_352124" data-name="Rectángulo 352124" width="58" height="32" transform="translate(213 5328)" fill="#fff"/>
    <rect id="Rectángulo_352125" data-name="Rectángulo 352125" width="27" height="7" transform="translate(215 5351)" fill="#00cca7"/>
    <rect id="Rectángulo_352126" data-name="Rectángulo 352126" width="23" height="7" transform="translate(246 5351)" fill="#00cca7"/>
    <rect id="Rectángulo_352127" data-name="Rectángulo 352127" width="54" height="11" transform="translate(215 5330)" fill="#00cca7"/>
  </g>
</svg>
