<svg xmlns="http://www.w3.org/2000/svg" xmlns:xlink="http://www.w3.org/1999/xlink" width="1240.333" height="351" viewBox="0 0 1240.333 351">
  <defs>
    <clipPath id="clip-path">
      <rect id="Rectángulo_353262" data-name="Rectángulo 353262" width="339" height="186.373" fill="none"/>
    </clipPath>
    <clipPath id="clip-path-3">
      <rect id="Rectángulo_353236" data-name="Rectángulo 353236" width="31.568" height="21.007" fill="none"/>
    </clipPath>
    <clipPath id="clip-path-4">
      <rect id="Rectángulo_353237" data-name="Rectángulo 353237" width="16.586" height="152.551" fill="none"/>
    </clipPath>
    <clipPath id="clip-path-5">
      <rect id="Rectángulo_353239" data-name="Rectángulo 353239" width="28.803" height="111.14" fill="none"/>
    </clipPath>
    <clipPath id="clip-path-6">
      <rect id="Rectángulo_353247" data-name="Rectángulo 353247" width="135.997" height="78.355" fill="none"/>
    </clipPath>
  </defs>
  <g id="Grupo_973558" data-name="Grupo 973558" transform="translate(-179.833 -8008)">
    <path id="Image_Place_Holder" data-name="Image Place Holder" d="M1240.333,0H0V351H1240.333Z" transform="translate(179.833 8008)" fill="#a50491"/>
    <rect id="Rectángulo_353235" data-name="Rectángulo 353235" width="620" height="351" transform="translate(179.833 8008)" fill="#f5d0f0"/>
    <g id="Grupo_973528" data-name="Grupo 973528" transform="translate(631.778 8061)">
      <g id="Right" transform="translate(0 0)">
        <rect id="BG" width="735.396" height="234.971" fill="#fff"/>
      </g>
      <text id="El_uso_adecuado_de_los_instrumentos_de_medición_permite_tener_una_idea_clara_de_las_dimensiones_físicas_y_espaciales_que_tendrá_una_pieza_mecánica_a_la_hora_de_fabricarse_estas_mediciones_se_representan_mediante_las_diferentes_cotas_empleadas_en_el_diseño" data-name="El uso adecuado de los instrumentos de medición permite tener una idea clara de las dimensiones físicas y espaciales que tendrá una pieza mecánica a la hora de fabricarse; estas mediciones se representan mediante las diferentes cotas empleadas en el diseño" transform="translate(33.857 67)" fill="#12263f" font-size="16" font-family="Roboto-Regular, Roboto"><tspan x="0" y="15">El uso adecuado de los instrumentos de medición permite tener una idea clara de las </tspan><tspan x="0" y="39">dimensiones físicas y espaciales que tendrá una pieza mecánica a la hora de fabricarse; estas </tspan><tspan x="0" y="63">mediciones se representan mediante las diferentes cotas empleadas en el diseño mecánico. El </tspan><tspan x="0" y="87">uso adecuado del sistema internacional de unidades o el sistema empleado para el dibujo, </tspan><tspan x="0" y="111">evita la ocurrencia del error. </tspan></text>
    </g>
    <g id="Grupo_973527" data-name="Grupo 973527" transform="translate(62 6942)">
      <rect id="Rectángulo_5140" data-name="Rectángulo 5140" width="5" height="28" transform="translate(180 1115)" fill="#800070"/>
      <path id="Trazado_660684" data-name="Trazado 660684" d="M7.859-4.648h-4.5V0H1.016V-11.375H8.422v1.9H3.359v2.938h4.5ZM12.016,0H9.75V-8.453h2.266Zm-2.4-10.641a1.112,1.112,0,0,1,.34-.836,1.277,1.277,0,0,1,.926-.328,1.28,1.28,0,0,1,.922.328,1.105,1.105,0,0,1,.344.836A1.108,1.108,0,0,1,11.8-9.8a1.283,1.283,0,0,1-.918.328A1.283,1.283,0,0,1,9.965-9.8,1.108,1.108,0,0,1,9.617-10.641Zm3.93,6.352a4.954,4.954,0,0,1,.926-3.133,3,3,0,0,1,2.5-1.187,2.631,2.631,0,0,1,2.164.953l.094-.8h2.047V-.281a3.613,3.613,0,0,1-.5,1.93A3.236,3.236,0,0,1,19.352,2.9a4.985,4.985,0,0,1-2.141.43A4.635,4.635,0,0,1,15.4,2.957,3.217,3.217,0,0,1,14.063,2l1-1.375a2.645,2.645,0,0,0,2.047.945,1.936,1.936,0,0,0,1.4-.48,1.8,1.8,0,0,0,.5-1.363V-.727a2.612,2.612,0,0,1-2.055.883,2.992,2.992,0,0,1-2.465-1.191,4.953,4.953,0,0,1-.941-3.16Zm2.258.168a3.085,3.085,0,0,0,.461,1.8,1.466,1.466,0,0,0,1.266.653,1.568,1.568,0,0,0,1.477-.775V-6a1.564,1.564,0,0,0-1.461-.775,1.476,1.476,0,0,0-1.277.665A3.477,3.477,0,0,0,15.8-4.121ZM28.07-.859A2.831,2.831,0,0,1,25.758.156a2.67,2.67,0,0,1-2.074-.781,3.335,3.335,0,0,1-.73-2.289V-8.453h2.258v5.467q0,1.322,1.2,1.322a1.63,1.63,0,0,0,1.578-.8V-8.453h2.266V0H28.133Zm8.641-5.477A6.134,6.134,0,0,0,35.9-6.4a1.654,1.654,0,0,0-1.68.867V0H31.961V-8.453h2.133l.063,1.008a2.092,2.092,0,0,1,1.883-1.164,2.366,2.366,0,0,1,.7.1ZM42.461,0a2.507,2.507,0,0,1-.227-.758A2.732,2.732,0,0,1,40.1.156a3,3,0,0,1-2.059-.719,2.312,2.312,0,0,1-.816-1.812,2.389,2.389,0,0,1,1-2.062A4.915,4.915,0,0,1,41.1-5.164h1.039v-.484a1.393,1.393,0,0,0-.3-.937,1.183,1.183,0,0,0-.949-.352A1.345,1.345,0,0,0,40-6.664a.929.929,0,0,0-.324.75H37.414a2.268,2.268,0,0,1,.453-1.359,3,3,0,0,1,1.281-.98,4.669,4.669,0,0,1,1.859-.355,3.689,3.689,0,0,1,2.48.785,2.747,2.747,0,0,1,.918,2.207v3.664a4.041,4.041,0,0,0,.336,1.82V0ZM40.594-1.57a1.945,1.945,0,0,0,.922-.223,1.462,1.462,0,0,0,.625-.6V-3.844H41.3q-1.7,0-1.8,1.172l-.008.133a.9.9,0,0,0,.3.7A1.153,1.153,0,0,0,40.594-1.57ZM55.313-4.547a2.851,2.851,0,0,1-2.062.867,3.049,3.049,0,0,1-2.414-1.035,4.091,4.091,0,0,1-.906-2.793,4.357,4.357,0,0,1,.488-2.051,3.582,3.582,0,0,1,1.363-1.453,3.782,3.782,0,0,1,1.969-.52,3.617,3.617,0,0,1,2,.563,3.7,3.7,0,0,1,1.359,1.617A5.806,5.806,0,0,1,57.6-6.937V-6.1a6.579,6.579,0,0,1-1.414,4.469A5.346,5.346,0,0,1,52.18.1l-.555.008V-1.773l.5-.008Q55.07-1.914,55.313-4.547ZM53.8-5.406a1.579,1.579,0,0,0,.941-.281,1.879,1.879,0,0,0,.6-.68V-7.3a3.1,3.1,0,0,0-.437-1.781,1.358,1.358,0,0,0-1.172-.633,1.318,1.318,0,0,0-1.117.621,2.641,2.641,0,0,0-.437,1.559A2.57,2.57,0,0,0,52.605-6,1.387,1.387,0,0,0,53.8-5.406Zm5.617,4.3a1.137,1.137,0,0,1,.363-.875,1.289,1.289,0,0,1,.91-.336,1.3,1.3,0,0,1,.918.336,1.137,1.137,0,0,1,.363.875,1.121,1.121,0,0,1-.359.863A1.305,1.305,0,0,1,60.7.086a1.294,1.294,0,0,1-.914-.332A1.121,1.121,0,0,1,59.422-1.109ZM69.039,0H67.578l1.977-11.375h1.461Zm5.313-8.461-.2,1.07a3.333,3.333,0,0,1,2.594-1.219,2.1,2.1,0,0,1,1.766.828,3.217,3.217,0,0,1,.422,2.242L78.008,0H76.594l.93-5.557a2.962,2.962,0,0,0,.008-.71,1.168,1.168,0,0,0-1.289-1.116,2.661,2.661,0,0,0-2.234,1.358L72.961,0H71.547l1.469-8.453Zm11.07,6.172q.117-.875-.961-1.234l-1.469-.43q-1.859-.641-1.8-2.125a2.341,2.341,0,0,1,1.02-1.832,3.631,3.631,0,0,1,2.27-.7,3.027,3.027,0,0,1,2.082.746,2.363,2.363,0,0,1,.77,1.9L85.93-5.969A1.319,1.319,0,0,0,85.531-7a1.576,1.576,0,0,0-1.1-.414,2.059,2.059,0,0,0-1.266.359,1.316,1.316,0,0,0-.57.922q-.1.734.9,1.07l.711.2a4.577,4.577,0,0,1,2.063.977A1.865,1.865,0,0,1,86.828-2.4a2.37,2.37,0,0,1-.516,1.375,2.948,2.948,0,0,1-1.25.895A4.18,4.18,0,0,1,83.4.156,3.3,3.3,0,0,1,81.18-.629a2.427,2.427,0,0,1-.844-1.98L81.75-2.6A1.5,1.5,0,0,0,82.2-1.461a1.732,1.732,0,0,0,1.242.43,2.436,2.436,0,0,0,1.336-.324A1.247,1.247,0,0,0,85.422-2.289ZM92-10.5l-.359,2.047H93.18l-.2,1.117H91.453L90.57-2.078a1.833,1.833,0,0,0-.008.375.6.6,0,0,0,.664.609,4.05,4.05,0,0,0,.688-.078L91.8.008a3.847,3.847,0,0,1-1.031.141,1.476,1.476,0,0,1-1.266-.621A2.4,2.4,0,0,1,89.18-2.1l.859-5.234H88.547l.2-1.117h1.492l.359-2.047Zm6.672,3.336-.664-.07a2.42,2.42,0,0,0-2.141,1.227L94.828,0H93.414l1.469-8.453,1.367-.008-.211.984a2.527,2.527,0,0,1,2.117-1.148,2.594,2.594,0,0,1,.672.117Zm5.438,6.328a3.265,3.265,0,0,1-2.523.992,2.107,2.107,0,0,1-1.793-.867,3.317,3.317,0,0,1-.434-2.281l.906-5.461h1.414l-.914,5.484a3.643,3.643,0,0,0-.016.672,1.4,1.4,0,0,0,.336.883,1.146,1.146,0,0,0,.828.344A2.537,2.537,0,0,0,104.258-2.3l1.063-6.156h1.414L105.266,0H103.93Zm6.055-7.625-.18.945a3.305,3.305,0,0,1,2.57-1.094,2.608,2.608,0,0,1,1.363.367,1.8,1.8,0,0,1,.77.992,3.49,3.49,0,0,1,2.8-1.359,2.235,2.235,0,0,1,1.867.852,3.042,3.042,0,0,1,.445,2.2L118.875,0h-1.406l.922-5.57a2.943,2.943,0,0,0,0-.742Q118.242-7.375,117-7.4a2.136,2.136,0,0,0-1.4.48,2.222,2.222,0,0,0-.809,1.3L113.828,0h-1.422l.938-5.562a1.786,1.786,0,0,0-.262-1.336,1.377,1.377,0,0,0-1.129-.484,2.315,2.315,0,0,0-2.1,1.2L108.781,0h-1.414l1.469-8.453ZM124.711.156a3.048,3.048,0,0,1-2.469-1.164,4.006,4.006,0,0,1-.75-2.9l.039-.336a5.624,5.624,0,0,1,.746-2.3,4.339,4.339,0,0,1,1.5-1.566,3.491,3.491,0,0,1,1.906-.5,2.688,2.688,0,0,1,2.047.867,3.566,3.566,0,0,1,.813,2.266,6.621,6.621,0,0,1-.031,1.016l-.086.648H122.9a2.856,2.856,0,0,0,.379,1.953,1.8,1.8,0,0,0,1.551.836,3.007,3.007,0,0,0,2.313-1.125l.813.688a3.718,3.718,0,0,1-1.371,1.2A3.886,3.886,0,0,1,124.711.156Zm.9-7.586a2.066,2.066,0,0,0-1.527.594A4.22,4.22,0,0,0,123.047-5l4.109.008.031-.125a2.313,2.313,0,0,0-.316-1.637A1.488,1.488,0,0,0,125.609-7.43Zm6.547-1.031-.2,1.07a3.333,3.333,0,0,1,2.594-1.219,2.1,2.1,0,0,1,1.766.828,3.217,3.217,0,0,1,.422,2.242L135.813,0H134.4l.93-5.557a2.962,2.962,0,0,0,.008-.71,1.168,1.168,0,0,0-1.289-1.116,2.661,2.661,0,0,0-2.234,1.358L130.766,0h-1.414l1.469-8.453Zm9.57-2.039-.359,2.047h1.539l-.2,1.117H141.18L140.3-2.078a1.833,1.833,0,0,0-.008.375.6.6,0,0,0,.664.609,4.05,4.05,0,0,0,.688-.078l-.109,1.18A3.847,3.847,0,0,1,140.5.148a1.476,1.476,0,0,1-1.266-.621,2.4,2.4,0,0,1-.328-1.629l.859-5.234h-1.492l.2-1.117h1.492l.359-2.047Zm5.953,1.891a3.047,3.047,0,0,1,1.82.578,3.285,3.285,0,0,1,1.121,1.551,4.8,4.8,0,0,1,.246,2.16l-.016.172a5.685,5.685,0,0,1-.734,2.23A4.309,4.309,0,0,1,148.6-.367a3.7,3.7,0,0,1-2.039.523,3.052,3.052,0,0,1-1.816-.578,3.21,3.21,0,0,1-1.113-1.531,4.931,4.931,0,0,1-.25-2.133,5.76,5.76,0,0,1,.711-2.359,4.409,4.409,0,0,1,1.527-1.621A3.652,3.652,0,0,1,147.68-8.609ZM144.8-4.078a4.8,4.8,0,0,0,0,1.023,2.507,2.507,0,0,0,.551,1.469,1.653,1.653,0,0,0,1.262.57,2.253,2.253,0,0,0,1.3-.348,2.919,2.919,0,0,0,1-1.121,4.721,4.721,0,0,0,.523-1.664,7.493,7.493,0,0,0,.023-1.211,2.6,2.6,0,0,0-.57-1.492,1.69,1.69,0,0,0-1.266-.578,2.3,2.3,0,0,0-1.859.859,4.245,4.245,0,0,0-.945,2.313Zm12.344,1.789q.117-.875-.961-1.234l-1.469-.43q-1.859-.641-1.8-2.125a2.341,2.341,0,0,1,1.02-1.832,3.631,3.631,0,0,1,2.27-.7,3.027,3.027,0,0,1,2.082.746,2.363,2.363,0,0,1,.77,1.9l-1.406-.008a1.319,1.319,0,0,0-.4-1.031,1.576,1.576,0,0,0-1.1-.414,2.059,2.059,0,0,0-1.266.359,1.316,1.316,0,0,0-.57.922q-.1.734.9,1.07l.711.2a4.577,4.577,0,0,1,2.063.977,1.865,1.865,0,0,1,.563,1.492,2.37,2.37,0,0,1-.516,1.375,2.948,2.948,0,0,1-1.25.895,4.18,4.18,0,0,1-1.664.285,3.3,3.3,0,0,1-2.219-.785,2.427,2.427,0,0,1-.844-1.98l1.414.008a1.5,1.5,0,0,0,.453,1.141,1.732,1.732,0,0,0,1.242.43,2.436,2.436,0,0,0,1.336-.324A1.247,1.247,0,0,0,157.148-2.289Zm7.172-1.953a6.578,6.578,0,0,1,.711-2.328A4.03,4.03,0,0,1,166.4-8.125a3.127,3.127,0,0,1,1.789-.492,2.64,2.64,0,0,1,2.172,1.031L171.172-12h1.414L170.508,0h-1.289l.148-.906A3.116,3.116,0,0,1,166.9.156a2.335,2.335,0,0,1-1.867-.918,4,4,0,0,1-.75-2.379A7.6,7.6,0,0,1,164.32-4.242Zm1.359.808a2.929,2.929,0,0,0,.4,1.732,1.437,1.437,0,0,0,1.234.632,2.554,2.554,0,0,0,2.18-1.233l.672-3.9a1.754,1.754,0,0,0-1.7-1.186,2.143,2.143,0,0,0-1.473.5,3.256,3.256,0,0,0-.969,1.475A6.082,6.082,0,0,0,165.68-3.435ZM176.4.156a3.048,3.048,0,0,1-2.469-1.164,4.006,4.006,0,0,1-.75-2.9l.039-.336a5.624,5.624,0,0,1,.746-2.3,4.339,4.339,0,0,1,1.5-1.566,3.491,3.491,0,0,1,1.906-.5,2.688,2.688,0,0,1,2.047.867,3.566,3.566,0,0,1,.813,2.266,6.621,6.621,0,0,1-.031,1.016l-.086.648h-5.523a2.855,2.855,0,0,0,.379,1.953,1.8,1.8,0,0,0,1.551.836,3.007,3.007,0,0,0,2.313-1.125l.813.688a3.718,3.718,0,0,1-1.371,1.2A3.886,3.886,0,0,1,176.4.156Zm.9-7.586a2.066,2.066,0,0,0-1.527.594A4.22,4.22,0,0,0,174.734-5l4.109.008.031-.125a2.313,2.313,0,0,0-.316-1.637A1.488,1.488,0,0,0,177.3-7.43ZM187.75-8.461l-.18.945a3.305,3.305,0,0,1,2.57-1.094,2.608,2.608,0,0,1,1.363.367,1.8,1.8,0,0,1,.77.992,3.49,3.49,0,0,1,2.8-1.359,2.235,2.235,0,0,1,1.867.852,3.042,3.042,0,0,1,.445,2.2L196.461,0h-1.406l.922-5.57a2.943,2.943,0,0,0,0-.742q-.148-1.062-1.391-1.086a2.136,2.136,0,0,0-1.4.48,2.222,2.222,0,0,0-.809,1.3L191.414,0h-1.422l.938-5.562a1.786,1.786,0,0,0-.262-1.336,1.377,1.377,0,0,0-1.129-.484,2.315,2.315,0,0,0-2.1,1.2L186.367,0h-1.414l1.469-8.453ZM202.3.156a3.048,3.048,0,0,1-2.469-1.164,4.006,4.006,0,0,1-.75-2.9l.039-.336a5.624,5.624,0,0,1,.746-2.3,4.339,4.339,0,0,1,1.5-1.566,3.491,3.491,0,0,1,1.906-.5,2.688,2.688,0,0,1,2.047.867,3.566,3.566,0,0,1,.813,2.266,6.621,6.621,0,0,1-.031,1.016l-.086.648h-5.523a2.855,2.855,0,0,0,.379,1.953,1.8,1.8,0,0,0,1.551.836,3.007,3.007,0,0,0,2.313-1.125l.813.688a3.718,3.718,0,0,1-1.371,1.2A3.886,3.886,0,0,1,202.3.156Zm.9-7.586a2.066,2.066,0,0,0-1.527.594A4.22,4.22,0,0,0,200.633-5l4.109.008.031-.125a2.313,2.313,0,0,0-.316-1.637A1.488,1.488,0,0,0,203.2-7.43Zm4.148,3.188a6.578,6.578,0,0,1,.711-2.328,4.03,4.03,0,0,1,1.367-1.555,3.127,3.127,0,0,1,1.789-.492,2.64,2.64,0,0,1,2.172,1.031L214.2-12h1.414L213.531,0h-1.289l.148-.906A3.116,3.116,0,0,1,209.922.156a2.335,2.335,0,0,1-1.867-.918,4,4,0,0,1-.75-2.379A7.6,7.6,0,0,1,207.344-4.242Zm1.359.808a2.929,2.929,0,0,0,.4,1.732,1.437,1.437,0,0,0,1.234.632,2.554,2.554,0,0,0,2.18-1.233l.672-3.9a1.754,1.754,0,0,0-1.7-1.186,2.143,2.143,0,0,0-1.473.5,3.256,3.256,0,0,0-.969,1.475A6.082,6.082,0,0,0,208.7-3.435ZM217.3,0h-1.406l1.469-8.453h1.406Zm1.164-11.539a.774.774,0,0,1,.6.215.8.8,0,0,1,.238.605.849.849,0,0,1-.238.6.855.855,0,0,1-.6.25.779.779,0,0,1-.6-.211.764.764,0,0,1-.227-.594.886.886,0,0,1,.234-.609A.826.826,0,0,1,218.461-11.539ZM223.18-1.016a2.145,2.145,0,0,0,1.367-.441,2.1,2.1,0,0,0,.8-1.2l1.336-.008a3.014,3.014,0,0,1-.637,1.453,3.553,3.553,0,0,1-1.309,1.023,3.551,3.551,0,0,1-1.617.344,3.017,3.017,0,0,1-1.785-.551,3.084,3.084,0,0,1-1.074-1.492,4.972,4.972,0,0,1-.234-2.152l.039-.391a5.605,5.605,0,0,1,.711-2.18,4.11,4.11,0,0,1,1.469-1.5,3.648,3.648,0,0,1,2-.5,2.857,2.857,0,0,1,2.125.891,3.08,3.08,0,0,1,.8,2.18l-1.32-.008a2.029,2.029,0,0,0-.461-1.34,1.607,1.607,0,0,0-1.2-.543,2.254,2.254,0,0,0-1.832.82,4.3,4.3,0,0,0-.91,2.359l-.023.2a6.777,6.777,0,0,0-.016,1.031,2.355,2.355,0,0,0,.516,1.445A1.656,1.656,0,0,0,223.18-1.016ZM229.344,0h-1.406l1.469-8.453h1.406Zm1.164-11.539a.774.774,0,0,1,.6.215.8.8,0,0,1,.238.605.849.849,0,0,1-.238.6.855.855,0,0,1-.6.25.779.779,0,0,1-.6-.211.764.764,0,0,1-.227-.594.886.886,0,0,1,.234-.609A.826.826,0,0,1,230.508-11.539Zm5.844,2.93a3.047,3.047,0,0,1,1.82.578,3.285,3.285,0,0,1,1.121,1.551,4.8,4.8,0,0,1,.246,2.16l-.016.172a5.685,5.685,0,0,1-.734,2.23,4.309,4.309,0,0,1-1.516,1.551,3.7,3.7,0,0,1-2.039.523,3.052,3.052,0,0,1-1.816-.578A3.21,3.21,0,0,1,232.3-1.953a4.931,4.931,0,0,1-.25-2.133,5.76,5.76,0,0,1,.711-2.359,4.409,4.409,0,0,1,1.527-1.621A3.652,3.652,0,0,1,236.352-8.609Zm-2.875,4.531a4.8,4.8,0,0,0,0,1.023,2.507,2.507,0,0,0,.551,1.469,1.653,1.653,0,0,0,1.262.57,2.253,2.253,0,0,0,1.3-.348,2.919,2.919,0,0,0,1-1.121,4.721,4.721,0,0,0,.523-1.664,7.493,7.493,0,0,0,.023-1.211,2.6,2.6,0,0,0-.57-1.492A1.69,1.69,0,0,0,236.3-7.43a2.3,2.3,0,0,0-1.859.859,4.245,4.245,0,0,0-.945,2.313ZM237.555-12h1.8l-2.391,2.3-1.242,0Zm5.836,3.539-.2,1.07a3.333,3.333,0,0,1,2.594-1.219,2.1,2.1,0,0,1,1.766.828,3.217,3.217,0,0,1,.422,2.242L247.047,0h-1.414l.93-5.557a2.962,2.962,0,0,0,.008-.71,1.168,1.168,0,0,0-1.289-1.116,2.661,2.661,0,0,0-2.234,1.358L242,0h-1.414l1.469-8.453Z" transform="translate(196 1134)" fill="#12263f"/>
    </g>
    <g id="Grupo_973545" data-name="Grupo 973545" transform="translate(239.5 8109.598)">
      <g id="Grupo_973544" data-name="Grupo 973544" clip-path="url(#clip-path)">
        <g id="Grupo_973539" data-name="Grupo 973539">
          <g id="Grupo_973538" data-name="Grupo 973538" clip-path="url(#clip-path)">
            <g id="Grupo_973531" data-name="Grupo 973531" transform="translate(299.122 164.672)" opacity="0.35" style="mix-blend-mode: multiply;isolation: isolate">
              <g id="Grupo_973530" data-name="Grupo 973530">
                <g id="Grupo_973529" data-name="Grupo 973529" clip-path="url(#clip-path-3)">
                  <path id="Trazado_660601" data-name="Trazado 660601" d="M677.176,357.6H653.531a3.962,3.962,0,0,0-3.963,3.961v15.245a1.8,1.8,0,0,0,1.8,1.8h27.967a1.8,1.8,0,0,0,1.8-1.8V361.56a3.962,3.962,0,0,0-3.96-3.961" transform="translate(-649.568 -357.599)" fill="#939598"/>
                </g>
              </g>
            </g>
            <path id="Trazado_660602" data-name="Trazado 660602" d="M9.717,381.454a.691.691,0,0,1-.676-.834l1.067-5.042a.7.7,0,0,1,.037-.119L14.9,363.88a.691.691,0,0,1,.639-.428.683.683,0,0,1,.262.052l1.722.706a.691.691,0,0,1,.377.9L13.144,376.69a.7.7,0,0,1-.058.111L10.3,381.137a.69.69,0,0,1-.581.317" transform="translate(-4.87 -196.085)" fill="#65cbe9"/>
            <path id="Trazado_660603" data-name="Trazado 660603" d="M14.733,363.333l1.722.706L11.7,375.618l-2.787,4.336,1.067-5.042Zm0-1.382a1.382,1.382,0,0,0-1.279.857L8.7,374.387a1.365,1.365,0,0,0-.074.239l-1.068,5.042A1.381,1.381,0,0,0,10.07,380.7l2.788-4.336a1.39,1.39,0,0,0,.116-.222l4.759-11.579a1.382,1.382,0,0,0-.754-1.8l-1.722-.706a1.381,1.381,0,0,0-.523-.1" transform="translate(-4.061 -195.275)" fill="#444"/>
            <path id="Trazado_660604" data-name="Trazado 660604" d="M16.625,349.766a1.927,1.927,0,0,1-3.721-1l11.773-29.4a1.927,1.927,0,1,1,3.722,1Z" transform="translate(-6.925 -171.531)" fill="#fff"/>
            <path id="Trazado_660605" data-name="Trazado 660605" d="M16.625,349.766a1.927,1.927,0,0,1-3.721-1l11.773-29.4a1.927,1.927,0,1,1,3.722,1Z" transform="translate(-6.925 -171.531)" fill="none" stroke="#444" stroke-miterlimit="10" stroke-width="3"/>
            <path id="Trazado_660606" data-name="Trazado 660606" d="M109.791,381.616a1.465,1.465,0,0,1-1.357-.907l-5.456-13.168a1.47,1.47,0,0,1,2.715-1.127l5.457,13.17a1.471,1.471,0,0,1-1.359,2.032" transform="translate(-55.496 -197.195)" fill="#65cbe9"/>
            <path id="Trazado_660607" data-name="Trazado 660607" d="M103.526,365.391a.78.78,0,0,1,.72.481L109.7,379.04a.779.779,0,0,1-1.44.6l-5.456-13.168a.779.779,0,0,1,.42-1.018.789.789,0,0,1,.3-.059m0-1.381h0A2.16,2.16,0,0,0,101.531,367l5.455,13.166a2.161,2.161,0,0,0,3.992-1.655l-5.456-13.167a2.157,2.157,0,0,0-2-1.334" transform="translate(-54.687 -196.386)" fill="#444"/>
            <path id="Trazado_660608" data-name="Trazado 660608" d="M94.874,349.766a1.927,1.927,0,0,0,3.723-1l-11.773-29.4a1.927,1.927,0,1,0-3.721,1Z" transform="translate(-44.798 -171.531)" fill="#fff"/>
            <path id="Trazado_660609" data-name="Trazado 660609" d="M94.874,349.766a1.927,1.927,0,0,0,3.723-1l-11.773-29.4a1.927,1.927,0,1,0-3.721,1Z" transform="translate(-44.798 -171.531)" fill="none" stroke="#444" stroke-miterlimit="10" stroke-width="3"/>
            <path id="Trazado_660610" data-name="Trazado 660610" d="M31.088,301.768a3.106,3.106,0,0,1-6-1.613l15.389-38.612a3.105,3.105,0,1,1,6,1.613Z" transform="translate(-13.479 -139.863)" fill="#fad978"/>
            <path id="Trazado_660611" data-name="Trazado 660611" d="M31.088,301.768a3.106,3.106,0,0,1-6-1.613l15.389-38.612a3.105,3.105,0,1,1,6,1.613Z" transform="translate(-13.479 -139.863)" fill="none" stroke="#444" stroke-linejoin="round" stroke-width="3"/>
            <path id="Trazado_660612" data-name="Trazado 660612" d="M74.028,301.768a3.105,3.105,0,0,0,6-1.613L64.638,261.543a3.106,3.106,0,1,0-6,1.613Z" transform="translate(-31.579 -139.863)" fill="#fad978"/>
            <path id="Trazado_660613" data-name="Trazado 660613" d="M74.028,301.768a3.105,3.105,0,0,0,6-1.613L64.638,261.543a3.106,3.106,0,1,0-6,1.613Z" transform="translate(-31.579 -139.863)" fill="none" stroke="#444" stroke-linejoin="round" stroke-width="3"/>
            <path id="Trazado_660614" data-name="Trazado 660614" d="M98.289,347.222a2.243,2.243,0,1,1-2.241-2.242,2.244,2.244,0,0,1,2.241,2.242" transform="translate(-50.608 -186.119)" fill="#fff"/>
            <path id="Trazado_660615" data-name="Trazado 660615" d="M98.437,348.22a1.39,1.39,0,1,1-1.389-1.39,1.392,1.392,0,0,1,1.389,1.39" transform="translate(-51.608 -187.117)" fill="#f0777e"/>
            <path id="Trazado_660616" data-name="Trazado 660616" d="M31.4,347.093a2.242,2.242,0,1,1-2.244-2.242,2.244,2.244,0,0,1,2.244,2.242" transform="translate(-14.521 -186.05)" fill="#fff"/>
            <path id="Trazado_660617" data-name="Trazado 660617" d="M31.543,348.092a1.389,1.389,0,1,1-1.389-1.39,1.391,1.391,0,0,1,1.389,1.39" transform="translate(-15.519 -187.048)" fill="#f0777e"/>
            <path id="Trazado_660618" data-name="Trazado 660618" d="M64.67,245.328a2.293,2.293,0,1,1-4.586,0v-12.31a2.293,2.293,0,0,1,4.586,0Z" transform="translate(-32.416 -124.478)" fill="#a9cd68"/>
            <path id="Trazado_660619" data-name="Trazado 660619" d="M64.67,245.328a2.293,2.293,0,1,1-4.586,0v-12.31a2.293,2.293,0,0,1,4.586,0Z" transform="translate(-32.416 -124.478)" fill="none" stroke="#444" stroke-miterlimit="10" stroke-width="3"/>
            <path id="Trazado_660620" data-name="Trazado 660620" d="M64.063,259.849a5.833,5.833,0,1,1-5.833-5.832,5.831,5.831,0,0,1,5.833,5.832" transform="translate(-28.269 -137.044)" fill="#fff"/>
            <path id="Trazado_660621" data-name="Trazado 660621" d="M64.063,259.849a5.833,5.833,0,1,1-5.833-5.832A5.831,5.831,0,0,1,64.063,259.849Z" transform="translate(-28.269 -137.044)" fill="none" stroke="#444" stroke-miterlimit="10" stroke-width="3"/>
            <path id="Trazado_660622" data-name="Trazado 660622" d="M64.438,262.418A3.639,3.639,0,1,1,60.8,258.78a3.638,3.638,0,0,1,3.638,3.638" transform="translate(-30.838 -139.614)" fill="#f0777e"/>
            <g id="Grupo_973534" data-name="Grupo 973534" transform="translate(246.662 32.866)" opacity="0.35" style="mix-blend-mode: multiply;isolation: isolate">
              <g id="Grupo_973533" data-name="Grupo 973533">
                <g id="Grupo_973532" data-name="Grupo 973532" clip-path="url(#clip-path-4)">
                  <path id="Trazado_660623" data-name="Trazado 660623" d="M535.647,73.978V223.924h16.586V73.978l-3.49-2.605Z" transform="translate(-535.647 -71.372)" fill="#939598"/>
                </g>
              </g>
            </g>
            <path id="Rectángulo_353238" data-name="Rectángulo 353238" d="M1.5,0H16.489a1.5,1.5,0,0,1,1.5,1.5v149.17a1.5,1.5,0,0,1-1.5,1.5H1.5a1.5,1.5,0,0,1-1.5-1.5V1.5A1.5,1.5,0,0,1,1.5,0Z" transform="translate(241.702 33.369)" fill="#fad978"/>
            <path id="Trazado_660624" data-name="Trazado 660624" d="M541.365,223.135H524.757V72.345h16.608Zm0-152.174H524.757a1.383,1.383,0,0,0-1.383,1.383v150.79a1.383,1.383,0,0,0,1.383,1.383h16.608a1.383,1.383,0,0,0,1.383-1.383V72.345a1.383,1.383,0,0,0-1.383-1.383" transform="translate(-282.364 -38.285)" fill="#444"/>
            <line id="Línea_284" data-name="Línea 284" x2="3.752" transform="translate(255.392 41.325)" fill="#fff"/>
            <line id="Línea_285" data-name="Línea 285" x2="3.752" transform="translate(255.392 41.325)" fill="none" stroke="#444" stroke-width="3.004"/>
            <line id="Línea_286" data-name="Línea 286" x2="6.058" transform="translate(253.087 48.959)" fill="#fff"/>
            <line id="Línea_287" data-name="Línea 287" x2="6.058" transform="translate(253.087 48.959)" fill="none" stroke="#444" stroke-width="3.004"/>
            <line id="Línea_288" data-name="Línea 288" x2="3.752" transform="translate(255.392 56.595)" fill="#fff"/>
            <line id="Línea_289" data-name="Línea 289" x2="3.752" transform="translate(255.392 56.595)" fill="none" stroke="#444" stroke-width="3.004"/>
            <line id="Línea_290" data-name="Línea 290" x2="6.058" transform="translate(253.087 64.23)" fill="#fff"/>
            <line id="Línea_291" data-name="Línea 291" x2="6.058" transform="translate(253.087 64.23)" fill="none" stroke="#444" stroke-width="3.004"/>
            <line id="Línea_292" data-name="Línea 292" x2="3.752" transform="translate(255.392 71.866)" fill="#fff"/>
            <line id="Línea_293" data-name="Línea 293" x2="3.752" transform="translate(255.392 71.866)" fill="none" stroke="#444" stroke-width="3.004"/>
            <line id="Línea_294" data-name="Línea 294" x2="6.058" transform="translate(253.087 79.501)" fill="#fff"/>
            <line id="Línea_295" data-name="Línea 295" x2="6.058" transform="translate(253.087 79.501)" fill="none" stroke="#444" stroke-width="3.004"/>
            <line id="Línea_296" data-name="Línea 296" x2="3.752" transform="translate(255.392 87.136)" fill="#fff"/>
            <line id="Línea_297" data-name="Línea 297" x2="3.752" transform="translate(255.392 87.136)" fill="none" stroke="#444" stroke-width="3.004"/>
            <line id="Línea_298" data-name="Línea 298" x2="6.058" transform="translate(253.087 94.771)" fill="#fff"/>
            <line id="Línea_299" data-name="Línea 299" x2="6.058" transform="translate(253.087 94.771)" fill="none" stroke="#444" stroke-width="3.004"/>
            <line id="Línea_300" data-name="Línea 300" x2="3.752" transform="translate(255.392 102.407)" fill="#fff"/>
            <line id="Línea_301" data-name="Línea 301" x2="3.752" transform="translate(255.392 102.407)" fill="none" stroke="#444" stroke-width="3.004"/>
            <line id="Línea_302" data-name="Línea 302" x2="6.058" transform="translate(253.087 110.042)" fill="#fff"/>
            <line id="Línea_303" data-name="Línea 303" x2="6.058" transform="translate(253.087 110.042)" fill="none" stroke="#444" stroke-width="3.004"/>
            <line id="Línea_304" data-name="Línea 304" x2="3.752" transform="translate(255.392 117.677)" fill="#fff"/>
            <line id="Línea_305" data-name="Línea 305" x2="3.752" transform="translate(255.392 117.677)" fill="none" stroke="#444" stroke-width="3.004"/>
            <line id="Línea_306" data-name="Línea 306" x2="6.058" transform="translate(253.087 125.312)" fill="#fff"/>
            <line id="Línea_307" data-name="Línea 307" x2="6.058" transform="translate(253.087 125.312)" fill="none" stroke="#444" stroke-width="3.004"/>
            <line id="Línea_308" data-name="Línea 308" x2="3.752" transform="translate(255.392 132.947)" fill="#fff"/>
            <line id="Línea_309" data-name="Línea 309" x2="3.752" transform="translate(255.392 132.947)" fill="none" stroke="#444" stroke-width="3.004"/>
            <line id="Línea_310" data-name="Línea 310" x2="6.058" transform="translate(253.087 140.582)" fill="#fff"/>
            <line id="Línea_311" data-name="Línea 311" x2="6.058" transform="translate(253.087 140.582)" fill="none" stroke="#444" stroke-width="3.004"/>
            <line id="Línea_312" data-name="Línea 312" x2="3.752" transform="translate(255.392 148.217)" fill="#fff"/>
            <line id="Línea_313" data-name="Línea 313" x2="3.752" transform="translate(255.392 148.217)" fill="none" stroke="#444" stroke-width="3.004"/>
            <line id="Línea_314" data-name="Línea 314" x2="6.058" transform="translate(253.087 155.852)" fill="#fff"/>
            <line id="Línea_315" data-name="Línea 315" x2="6.058" transform="translate(253.087 155.852)" fill="none" stroke="#444" stroke-width="3.004"/>
            <line id="Línea_316" data-name="Línea 316" x2="3.752" transform="translate(255.392 163.488)" fill="#fff"/>
            <line id="Línea_317" data-name="Línea 317" x2="3.752" transform="translate(255.392 163.488)" fill="none" stroke="#444" stroke-width="3.004"/>
            <line id="Línea_318" data-name="Línea 318" x2="6.058" transform="translate(253.087 171.293)" fill="#fff"/>
            <line id="Línea_319" data-name="Línea 319" x2="6.058" transform="translate(253.087 171.293)" fill="none" stroke="#444" stroke-width="3.004"/>
            <line id="Línea_320" data-name="Línea 320" x2="3.752" transform="translate(255.392 178.928)" fill="#fff"/>
            <line id="Línea_321" data-name="Línea 321" x2="3.752" transform="translate(255.392 178.928)" fill="none" stroke="#444" stroke-width="3.004"/>
            <path id="Trazado_660625" data-name="Trazado 660625" d="M100.254,255.911v67.837H32.417Zm-10,57.835V280.059L56.565,313.746Z" transform="translate(-17.489 -138.066)" fill="#f0777e"/>
            <path id="Trazado_660626" data-name="Trazado 660626" d="M100.254,255.911v67.837H32.417Zm-10,57.835V280.059L56.565,313.746Z" transform="translate(-17.489 -138.066)" fill="none" stroke="#444" stroke-miterlimit="10" stroke-width="3"/>
            <line id="Línea_322" data-name="Línea 322" y2="6.057" transform="translate(77.306 179.612)" fill="#fff"/>
            <line id="Línea_323" data-name="Línea 323" y2="6.057" transform="translate(77.306 179.612)" fill="none" stroke="#444" stroke-width="3.004"/>
            <line id="Línea_324" data-name="Línea 324" y2="3.752" transform="translate(69.67 181.917)" fill="#fff"/>
            <line id="Línea_325" data-name="Línea 325" y2="3.752" transform="translate(69.67 181.917)" fill="none" stroke="#444" stroke-width="3.004"/>
            <line id="Línea_326" data-name="Línea 326" y2="6.057" transform="translate(62.035 179.612)" fill="#fff"/>
            <line id="Línea_327" data-name="Línea 327" y2="6.057" transform="translate(62.035 179.612)" fill="none" stroke="#444" stroke-width="3.004"/>
            <line id="Línea_328" data-name="Línea 328" y2="3.752" transform="translate(54.4 181.917)" fill="#fff"/>
            <line id="Línea_329" data-name="Línea 329" y2="3.752" transform="translate(54.4 181.917)" fill="none" stroke="#444" stroke-width="3.004"/>
            <line id="Línea_330" data-name="Línea 330" y2="6.057" transform="translate(46.765 179.612)" fill="#fff"/>
            <line id="Línea_331" data-name="Línea 331" y2="6.057" transform="translate(46.765 179.612)" fill="none" stroke="#444" stroke-width="3.004"/>
            <line id="Línea_332" data-name="Línea 332" y2="3.752" transform="translate(39.129 181.917)" fill="#fff"/>
            <line id="Línea_333" data-name="Línea 333" y2="3.752" transform="translate(39.129 181.917)" fill="none" stroke="#444" stroke-width="3.004"/>
            <line id="Línea_334" data-name="Línea 334" y2="6.057" transform="translate(31.324 179.612)" fill="#fff"/>
            <line id="Línea_335" data-name="Línea 335" y2="6.057" transform="translate(31.324 179.612)" fill="none" stroke="#444" stroke-width="3.004"/>
            <line id="Línea_336" data-name="Línea 336" y2="3.752" transform="translate(23.689 181.917)" fill="#fff"/>
            <line id="Línea_337" data-name="Línea 337" y2="3.752" transform="translate(23.689 181.917)" fill="none" stroke="#444" stroke-width="3.004"/>
            <g id="Grupo_973537" data-name="Grupo 973537" transform="translate(232.128 74.539)" opacity="0.35" style="mix-blend-mode: multiply;isolation: isolate">
              <g id="Grupo_973536" data-name="Grupo 973536">
                <g id="Grupo_973535" data-name="Grupo 973535" clip-path="url(#clip-path-5)">
                  <path id="Trazado_660627" data-name="Trazado 660627" d="M509.156,161.867c-5.928,0-5.019,4.411-5.019,10.338v90.05a10.763,10.763,0,0,0,10.752,10.753H523.2c5.736-1.609,9.687-5.4,9.687-12.216v-3.426H521.56V169.7a7.832,7.832,0,0,0-7.832-7.832Z" transform="translate(-504.087 -161.867)" fill="#939598"/>
                </g>
              </g>
            </g>
            <path id="Trazado_660628" data-name="Trazado 660628" d="M193.454,169.3a7.434,7.434,0,0,1,7.433-7.435H341.63a7.434,7.434,0,0,1,7.434,7.435v88.126H193.451Z" transform="translate(-104.368 -87.328)" fill="#efefef"/>
            <path id="Trazado_660629" data-name="Trazado 660629" d="M193.454,169.3a7.434,7.434,0,0,1,7.433-7.435H341.63a7.434,7.434,0,0,1,7.434,7.435v88.126H193.451Z" transform="translate(-104.368 -87.328)" fill="none" stroke="#444" stroke-linecap="round" stroke-linejoin="round" stroke-width="3"/>
            <path id="Trazado_660630" data-name="Trazado 660630" d="M170.333,369.386v3.22c0,8.959,7.263,12.36,16.223,12.36H331.015c8.96,0,16.223-3.4,16.223-12.36v-3.22Z" transform="translate(-91.896 -199.286)" fill="#efefef"/>
            <path id="Trazado_660631" data-name="Trazado 660631" d="M170.333,369.386v3.22c0,8.959,7.263,12.36,16.223,12.36H331.015c8.96,0,16.223-3.4,16.223-12.36v-3.22Z" transform="translate(-91.896 -199.286)" fill="none" stroke="#444" stroke-linecap="round" stroke-linejoin="round" stroke-width="3"/>
            <rect id="Rectángulo_353240" data-name="Rectángulo 353240" width="136.009" height="78.356" transform="translate(99.803 86.48)" fill="#65cbe9"/>
            <rect id="Rectángulo_353241" data-name="Rectángulo 353241" width="136.009" height="78.356" transform="translate(99.803 86.48)" fill="none" stroke="#444" stroke-miterlimit="10" stroke-width="3"/>
          </g>
        </g>
        <g id="Grupo_973541" data-name="Grupo 973541" transform="translate(99.808 86.48)">
          <g id="Grupo_973540" data-name="Grupo 973540" clip-path="url(#clip-path-6)">
            <rect id="Rectángulo_353243" data-name="Rectángulo 353243" width="8.83" height="8.83" transform="translate(44.202 13.294)" fill="#fad978"/>
            <rect id="Rectángulo_353244" data-name="Rectángulo 353244" width="8.83" height="8.83" transform="translate(25.071 13.294)" fill="#fff"/>
            <rect id="Rectángulo_353245" data-name="Rectángulo 353245" width="8.831" height="8.83" transform="translate(56.605 13.294)" fill="#f0777e"/>
            <rect id="Rectángulo_353246" data-name="Rectángulo 353246" width="8.83" height="8.83" transform="translate(69.008 13.294)" fill="#fad978"/>
          </g>
        </g>
        <g id="Grupo_973543" data-name="Grupo 973543">
          <g id="Grupo_973542" data-name="Grupo 973542" clip-path="url(#clip-path)">
            <rect id="Rectángulo_353248" data-name="Rectángulo 353248" width="135.997" height="78.355" transform="translate(99.808 86.48)" fill="none" stroke="#444" stroke-miterlimit="10" stroke-width="1"/>
            <line id="Línea_338" data-name="Línea 338" x1="337.619" transform="translate(0.691 185.679)" fill="#889099"/>
            <line id="Línea_339" data-name="Línea 339" x1="337.619" transform="translate(0.691 185.679)" fill="none" stroke="#444" stroke-linecap="round" stroke-linejoin="round" stroke-width="3"/>
            <rect id="Rectángulo_353249" data-name="Rectángulo 353249" width="136.015" height="32.234" transform="translate(99.798 119.852)" fill="#fff"/>
            <rect id="Rectángulo_353250" data-name="Rectángulo 353250" width="136.015" height="32.234" transform="translate(99.798 119.852)" fill="none" stroke="#444" stroke-miterlimit="10" stroke-width="3"/>
            <rect id="Rectángulo_353251" data-name="Rectángulo 353251" width="9.21" height="9.21" transform="translate(196.427 125.043)" fill="#f0777e"/>
            <rect id="Rectángulo_353252" data-name="Rectángulo 353252" width="9.21" height="9.21" transform="translate(196.427 137.692)" fill="#fad978"/>
            <path id="Trazado_660632" data-name="Trazado 660632" d="M584.246,306.1V223.214H598.9v5.778a36.755,36.755,0,0,1,0,72.038v5.07Zm14.65-20.225a22.11,22.11,0,0,0,0-41.725Z" transform="translate(-315.205 -120.426)" fill="#a9cd68"/>
            <path id="Trazado_660633" data-name="Trazado 660633" d="M597.4,223.1v5.656a36.064,36.064,0,0,1,0,70.9V304.6H584.127V223.1Zm0,62.924a22.8,22.8,0,0,0,0-43.633v43.633m1.381-64.305H582.746v84.267h16.032v-5.2a37.446,37.446,0,0,0,0-73.159v-5.908Zm0,62.351V244.34a21.417,21.417,0,0,1,0,39.724" transform="translate(-314.396 -119.616)" fill="#444"/>
            <line id="Línea_340" data-name="Línea 340" x1="3.752" transform="translate(269.68 109.873)" fill="#fff"/>
            <line id="Línea_341" data-name="Línea 341" x1="3.752" transform="translate(269.68 109.873)" fill="none" stroke="#444" stroke-width="3.004"/>
            <line id="Línea_342" data-name="Línea 342" x1="6.057" transform="translate(269.681 117.507)" fill="#fff"/>
            <line id="Línea_343" data-name="Línea 343" x1="6.057" transform="translate(269.681 117.507)" fill="none" stroke="#444" stroke-width="3.004"/>
            <line id="Línea_344" data-name="Línea 344" x1="3.752" transform="translate(269.68 125.143)" fill="#fff"/>
            <line id="Línea_345" data-name="Línea 345" x1="3.752" transform="translate(269.68 125.143)" fill="none" stroke="#444" stroke-width="3.004"/>
            <line id="Línea_346" data-name="Línea 346" x1="6.057" transform="translate(269.681 132.778)" fill="#fff"/>
            <line id="Línea_347" data-name="Línea 347" x1="6.057" transform="translate(269.681 132.778)" fill="none" stroke="#444" stroke-width="3.004"/>
            <line id="Línea_348" data-name="Línea 348" x1="3.752" transform="translate(269.68 140.414)" fill="#fff"/>
            <line id="Línea_349" data-name="Línea 349" x1="3.752" transform="translate(269.68 140.414)" fill="none" stroke="#444" stroke-width="3.004"/>
            <line id="Línea_350" data-name="Línea 350" x1="6.057" transform="translate(269.681 148.049)" fill="#fff"/>
            <line id="Línea_351" data-name="Línea 351" x1="6.057" transform="translate(269.681 148.049)" fill="none" stroke="#444" stroke-width="3.004"/>
            <line id="Línea_352" data-name="Línea 352" x1="3.752" transform="translate(269.68 155.684)" fill="#fff"/>
            <line id="Línea_353" data-name="Línea 353" x1="3.752" transform="translate(269.68 155.684)" fill="none" stroke="#444" stroke-width="3.004"/>
            <line id="Línea_354" data-name="Línea 354" x1="6.057" transform="translate(269.681 163.319)" fill="#fff"/>
            <line id="Línea_355" data-name="Línea 355" x1="6.057" transform="translate(269.681 163.319)" fill="none" stroke="#444" stroke-width="3.004"/>
            <line id="Línea_356" data-name="Línea 356" x1="3.752" transform="translate(269.68 170.955)" fill="#fff"/>
            <line id="Línea_357" data-name="Línea 357" x1="3.752" transform="translate(269.68 170.955)" fill="none" stroke="#444" stroke-width="3.004"/>
            <line id="Línea_358" data-name="Línea 358" x1="6.057" transform="translate(269.681 178.59)" fill="#fff"/>
            <line id="Línea_359" data-name="Línea 359" x1="6.057" transform="translate(269.681 178.59)" fill="none" stroke="#444" stroke-width="3.004"/>
            <line id="Línea_360" data-name="Línea 360" y1="5.761" x2="1.872" transform="translate(286.152 109.073)" fill="#fff"/>
            <line id="Línea_361" data-name="Línea 361" y1="5.761" x2="1.872" transform="translate(286.152 109.073)" fill="none" stroke="#444" stroke-width="3.004"/>
            <line id="Línea_362" data-name="Línea 362" y1="4.901" x2="3.561" transform="translate(294.769 114.324)" fill="#fff"/>
            <line id="Línea_363" data-name="Línea 363" y1="4.901" x2="3.561" transform="translate(294.769 114.324)" fill="none" stroke="#444" stroke-width="3.004"/>
            <line id="Línea_364" data-name="Línea 364" y1="3.561" x2="4.901" transform="translate(301.607 122.502)" fill="#fff"/>
            <line id="Línea_365" data-name="Línea 365" y1="3.561" x2="4.901" transform="translate(301.607 122.502)" fill="none" stroke="#444" stroke-width="3.004"/>
            <line id="Línea_366" data-name="Línea 366" y1="1.872" x2="5.761" transform="translate(305.998 132.808)" fill="#fff"/>
            <line id="Línea_367" data-name="Línea 367" y1="1.872" x2="5.761" transform="translate(305.998 132.808)" fill="none" stroke="#444" stroke-width="3.004"/>
            <line id="Línea_368" data-name="Línea 368" x2="6.057" transform="translate(307.511 144.231)" fill="#fff"/>
            <line id="Línea_369" data-name="Línea 369" x2="6.057" transform="translate(307.511 144.231)" fill="none" stroke="#444" stroke-width="3.004"/>
            <line id="Línea_370" data-name="Línea 370" x2="5.761" y2="1.872" transform="translate(305.998 153.783)" fill="#fff"/>
            <line id="Línea_371" data-name="Línea 371" x2="5.761" y2="1.872" transform="translate(305.998 153.783)" fill="none" stroke="#444" stroke-width="3.004"/>
            <line id="Línea_372" data-name="Línea 372" x2="4.901" y2="3.561" transform="translate(301.607 162.399)" fill="#fff"/>
            <line id="Línea_373" data-name="Línea 373" x2="4.901" y2="3.561" transform="translate(301.607 162.399)" fill="none" stroke="#444" stroke-width="3.004"/>
            <line id="Línea_374" data-name="Línea 374" x2="3.561" y2="4.901" transform="translate(294.769 169.238)" fill="#fff"/>
            <line id="Línea_375" data-name="Línea 375" x2="3.561" y2="4.901" transform="translate(294.769 169.238)" fill="none" stroke="#444" stroke-width="3.004"/>
            <line id="Línea_376" data-name="Línea 376" x2="1.872" y2="5.761" transform="translate(286.152 173.628)" fill="#fff"/>
            <line id="Línea_377" data-name="Línea 377" x2="1.872" y2="5.761" transform="translate(286.152 173.628)" fill="none" stroke="#444" stroke-width="3.004"/>
            <path id="Trazado_660634" data-name="Trazado 660634" d="M148.511,393.754a3.65,3.65,0,1,1,3.649-3.65,3.654,3.654,0,0,1-3.649,3.65" transform="translate(-78.154 -208.495)" fill="#f0777e"/>
            <path id="Trazado_660635" data-name="Trazado 660635" d="M147.7,386.336a2.959,2.959,0,1,1-2.96,2.959,2.96,2.96,0,0,1,2.96-2.959m0-1.382a4.341,4.341,0,1,0,4.34,4.341,4.346,4.346,0,0,0-4.34-4.341" transform="translate(-77.344 -207.686)" fill="#444"/>
            <rect id="Rectángulo_353253" data-name="Rectángulo 353253" width="7.34" height="86.822" transform="translate(66.676 93.115)" fill="#65cbe9"/>
            <path id="Trazado_660636" data-name="Trazado 660636" d="M150.631,287.53h-5.958V202.089h5.958Zm1.381-86.822h-8.721v88.2h8.721v-88.2Z" transform="translate(-77.307 -108.283)" fill="#444"/>
            <path id="Trazado_660637" data-name="Trazado 660637" d="M145.471,197.863a.691.691,0,0,1-.488-1.18l3-2.995a.691.691,0,0,1,.488-.2h0a.692.692,0,0,1,.489.2l2.96,2.995a.691.691,0,0,1-.491,1.177Z" transform="translate(-78.11 -104.388)" fill="#f6dc8c"/>
            <path id="Trazado_660638" data-name="Trazado 660638" d="M147.665,193.368l2.96,2.995h-5.964Zm0-1.381a1.379,1.379,0,0,0-.975.4l-3,2.994a1.382,1.382,0,0,0,.975,2.36h5.964a1.381,1.381,0,0,0,.982-2.353l-2.96-2.995a1.383,1.383,0,0,0-.978-.41Z" transform="translate(-77.301 -103.578)" fill="#444"/>
            <path id="Trazado_660639" data-name="Trazado 660639" d="M152.627,195.91h-1.987l1-1Z" transform="translate(-81.271 -105.155)" fill="#284356"/>
            <path id="Trazado_660640" data-name="Trazado 660640" d="M152.627,195.91h-1.987l1-1Z" transform="translate(-81.271 -105.155)" fill="none" stroke="#444" stroke-miterlimit="10" stroke-width="1"/>
            <rect id="Rectángulo_353254" data-name="Rectángulo 353254" width="7.34" height="3.744" rx="1.5" transform="translate(66.676 178.556)" fill="#f6dc8c"/>
            <path id="Trazado_660641" data-name="Trazado 660641" d="M150.631,389.994h-5.958v-2.362h5.958Zm0-3.744h-5.958a1.382,1.382,0,0,0-1.381,1.381v2.362a1.382,1.382,0,0,0,1.381,1.381h5.958a1.381,1.381,0,0,0,1.381-1.381v-2.362a1.381,1.381,0,0,0-1.381-1.381" transform="translate(-77.307 -208.385)" fill="#444"/>
            <path id="Trazado_660642" data-name="Trazado 660642" d="M666.832,359.073H643.95a3.833,3.833,0,0,0-3.834,3.833v14.753a1.743,1.743,0,0,0,1.742,1.742h27.064a1.744,1.744,0,0,0,1.743-1.742V362.906a3.834,3.834,0,0,0-3.832-3.833" transform="translate(-345.347 -193.723)" fill="#f0777e"/>
            <path id="Trazado_660643" data-name="Trazado 660643" d="M666.832,359.073H643.95a3.833,3.833,0,0,0-3.834,3.833v14.753a1.743,1.743,0,0,0,1.742,1.742h27.064a1.744,1.744,0,0,0,1.743-1.742V362.906A3.834,3.834,0,0,0,666.832,359.073Z" transform="translate(-345.347 -193.723)" fill="none" stroke="#444" stroke-linejoin="round" stroke-width="3"/>
            <path id="Trazado_660644" data-name="Trazado 660644" d="M688.615,382.315a4.008,4.008,0,1,1-4.009-4.005,4.008,4.008,0,0,1,4.009,4.005" transform="translate(-367.188 -204.101)" fill="#444"/>
            <path id="Trazado_660645" data-name="Trazado 660645" d="M655.215,383.337a3.137,3.137,0,1,1-3.135-3.134,3.136,3.136,0,0,1,3.135,3.134" transform="translate(-350.109 -205.122)" fill="#444"/>
            <line id="Línea_378" data-name="Línea 378" x2="30.549" transform="translate(294.769 171.281)" fill="#f0777e"/>
            <line id="Línea_379" data-name="Línea 379" x2="30.549" transform="translate(294.769 171.281)" fill="none" stroke="#444" stroke-linejoin="round" stroke-width="3"/>
            <line id="Línea_380" data-name="Línea 380" x1="0.46" transform="translate(149.386 3.984)" fill="none" stroke="#444" stroke-miterlimit="10" stroke-width="3"/>
            <line id="Línea_381" data-name="Línea 381" x1="37.479" transform="translate(111.004 3.984)" fill="none" stroke="#444" stroke-miterlimit="10" stroke-width="3" stroke-dasharray="1.961 1.961"/>
            <line id="Línea_382" data-name="Línea 382" x1="0.46" transform="translate(110.092 3.984)" fill="none" stroke="#444" stroke-miterlimit="10" stroke-width="3"/>
            <line id="Línea_383" data-name="Línea 383" x1="43.508" transform="translate(246.782 7.138)" fill="none" stroke="#444" stroke-miterlimit="10" stroke-width="3"/>
            <line id="Línea_384" data-name="Línea 384" x1="18.38" transform="translate(206.619 57.513)" fill="none" stroke="#444" stroke-miterlimit="10" stroke-width="3"/>
            <line id="Línea_385" data-name="Línea 385" x1="18.379" transform="translate(240.335 0.691)" fill="none" stroke="#444" stroke-miterlimit="10" stroke-width="3"/>
            <line id="Línea_386" data-name="Línea 386" x1="18.379" transform="translate(299.739 32.925)" fill="none" stroke="#444" stroke-miterlimit="10" stroke-width="3"/>
            <path id="Trazado_660646" data-name="Trazado 660646" d="M127.242,27.622l3.259,3.26,6.736-6.736" transform="translate(-68.648 -13.027)" fill="none" stroke="#444" stroke-miterlimit="10" stroke-width="3"/>
            <line id="Línea_387" data-name="Línea 387" x1="6.077" y1="6.077" transform="translate(192.58 54.443)" fill="none" stroke="#444" stroke-miterlimit="10" stroke-width="3"/>
            <line id="Línea_388" data-name="Línea 388" y1="6.077" x2="6.077" transform="translate(192.58 54.443)" fill="none" stroke="#444" stroke-miterlimit="10" stroke-width="3"/>
            <line id="Línea_389" data-name="Línea 389" x2="41.555" transform="translate(87.974 41.428)" fill="none" stroke="#444" stroke-miterlimit="10" stroke-width="3"/>
            <line id="Línea_390" data-name="Línea 390" x2="18.38" transform="translate(116.555 47.995)" fill="none" stroke="#444" stroke-miterlimit="10" stroke-width="3"/>
            <line id="Línea_391" data-name="Línea 391" x2="8.799" transform="translate(141.449 47.995)" fill="none" stroke="#444" stroke-miterlimit="10" stroke-width="3"/>
            <line id="Línea_392" data-name="Línea 392" x2="18.38" transform="translate(88.745 34.862)" fill="none" stroke="#444" stroke-miterlimit="10" stroke-width="3"/>
            <path id="Trazado_660647" data-name="Trazado 660647" d="M682.726,198.515a2.634,2.634,0,1,1-2.636-2.636A2.636,2.636,0,0,1,682.726,198.515Z" transform="translate(-365.494 -105.678)" fill="none" stroke="#444" stroke-linecap="round" stroke-linejoin="round" stroke-width="3"/>
            <path id="Trazado_660648" data-name="Trazado 660648" d="M340.705,5.568a2.634,2.634,0,1,1-2.636-2.636A2.636,2.636,0,0,1,340.705,5.568Z" transform="translate(-180.971 -1.582)" fill="none" stroke="#444" stroke-linecap="round" stroke-linejoin="round" stroke-width="3"/>
            <line id="Línea_393" data-name="Línea 393" y2="78.284" transform="translate(193.19 86.491)" fill="#fff"/>
            <line id="Línea_394" data-name="Línea 394" y2="78.284" transform="translate(193.19 86.491)" fill="none" stroke="#444" stroke-miterlimit="10" stroke-width="2.838"/>
            <line id="Línea_395" data-name="Línea 395" y2="78.284" transform="translate(209.077 86.491)" fill="#fff"/>
            <line id="Línea_396" data-name="Línea 396" y2="78.284" transform="translate(209.077 86.491)" fill="none" stroke="#444" stroke-miterlimit="10" stroke-width="2.838"/>
            <rect id="Rectángulo_353255" data-name="Rectángulo 353255" width="8.831" height="8.831" transform="translate(124.879 125.037)" fill="#a9cd68"/>
            <rect id="Rectángulo_353256" data-name="Rectángulo 353256" width="24.034" height="3.373" transform="translate(144.01 125.022)" fill="#fad978"/>
            <rect id="Rectángulo_353257" data-name="Rectángulo 353257" width="24.034" height="3.374" transform="translate(144.01 131.19)" fill="#fad978"/>
            <rect id="Rectángulo_353258" data-name="Rectángulo 353258" width="24.034" height="3.372" transform="translate(144.01 137.36)" fill="#fad978"/>
            <rect id="Rectángulo_353259" data-name="Rectángulo 353259" width="24.034" height="3.374" transform="translate(144.01 143.528)" fill="#fad978"/>
            <line id="Línea_397" data-name="Línea 397" y2="78.591" transform="translate(138.852 86.184)" fill="#fff"/>
            <line id="Línea_398" data-name="Línea 398" y2="78.591" transform="translate(138.852 86.184)" fill="none" stroke="#444" stroke-miterlimit="10" stroke-width="2.843"/>
            <line id="Línea_399" data-name="Línea 399" y2="78.591" transform="translate(119.742 86.184)" fill="#fff"/>
            <line id="Línea_400" data-name="Línea 400" y2="78.591" transform="translate(119.742 86.184)" fill="none" stroke="#444" stroke-miterlimit="10" stroke-width="2.843"/>
            <path id="Trazado_660649" data-name="Trazado 660649" d="M408.45,45.863a3.59,3.59,0,1,1-3.308,4.989H401.76a3.592,3.592,0,0,1-6.615,0h-3.382a3.591,3.591,0,1,1,0-2.8h3.382a3.591,3.591,0,0,1,6.615,0h3.381a3.591,3.591,0,0,1,3.308-2.193m0-1.381a4.963,4.963,0,0,0-4.124,2.193h-1.749a4.975,4.975,0,0,0-8.249,0H392.58a4.971,4.971,0,1,0,0,5.559h1.75a4.976,4.976,0,0,0,8.247,0h1.751a4.972,4.972,0,1,0,4.123-7.752" transform="translate(-206.892 -23.998)" fill="#444"/>
            <path id="Trazado_660650" data-name="Trazado 660650" d="M106.813,127.837c.081.059.158.092.254-.04l1.541-2.109a.183.183,0,0,0-.04-.254l-1.537-1.123.17-.354a10.506,10.506,0,0,0,.869-2.658l.071-.387,1.909,0a.183.183,0,0,0,.181-.181l.006-2.613a.176.176,0,0,0-.052-.128.178.178,0,0,0-.128-.053l-1.917-.006-.07-.385a10.412,10.412,0,0,0-.33-1.329,10.7,10.7,0,0,0-.533-1.32l-.17-.355,1.565-1.131a.181.181,0,0,0,.041-.254l-1.529-2.118c-.1-.133-.173-.1-.253-.041l-1.566,1.132-.284-.273a10.452,10.452,0,0,0-2.246-1.637l-.346-.187.6-1.84a.183.183,0,0,0-.115-.229l-2.54-.823a.181.181,0,0,0-.172.125l-.606,1.849-.389-.053a9.638,9.638,0,0,0-2.772-.006l-.39.052-.6-1.855c-.028-.087-.108-.125-.228-.118l-2.486.8a.183.183,0,0,0-.106.09.177.177,0,0,0-.011.138l.594,1.848-.347.186a10.419,10.419,0,0,0-2.255,1.622l-.285.271-1.562-1.142c-.083-.059-.159-.092-.255.039L86.959,113.1a.183.183,0,0,0,.039.254l1.562,1.142-.173.355a10.488,10.488,0,0,0-.88,2.642l-.074.385-1.917-.006a.183.183,0,0,0-.181.181l-.006,2.612a.172.172,0,0,0,.053.128.174.174,0,0,0,.128.053l1.908.006.069.389a10.3,10.3,0,0,0,.341,1.389,10.647,10.647,0,0,0,.512,1.276l.167.353-1.541,1.113a.184.184,0,0,0-.073.118.179.179,0,0,0,.032.134l1.529,2.118a.181.181,0,0,0,.147.075.185.185,0,0,0,.106-.035l1.529-1.1.283.274a10.452,10.452,0,0,0,2.266,1.661l.346.188-.585,1.786a.182.182,0,0,0,.115.229l2.539.823a.182.182,0,0,0,.173-.124l.586-1.788.39.053a9.707,9.707,0,0,0,2.81.005l.391-.052.577,1.794a.184.184,0,0,0,.174.127l2.541-.809a.181.181,0,0,0,.118-.228l-.577-1.794.346-.186A10.427,10.427,0,0,0,105,126.995l.286-.274Zm-14.794-8.323a5.777,5.777,0,1,1,5.777,5.777A5.784,5.784,0,0,1,92.019,119.514Z" transform="translate(-46.035 -57.803)" fill="none" stroke="#444" stroke-miterlimit="10" stroke-width="3"/>
            <path id="Trazado_660651" data-name="Trazado 660651" d="M136.512,86.122a.363.363,0,0,1-.13-.374,5.05,5.05,0,0,0,0-2.153.363.363,0,0,1,.13-.374l1.611-1.17a.23.23,0,0,0,.051-.322l-1.894-2.608a.23.23,0,0,0-.321-.051L134.4,80.2a.361.361,0,0,1-.4-.005,5.233,5.233,0,0,0-2.144-.746.369.369,0,0,1-.315-.242l-.571-1.756a.23.23,0,0,0-.29-.148l-3.066,1a.23.23,0,0,0-.148.29l.538,1.656a.3.3,0,0,1-.076.334,5.268,5.268,0,0,0-1.524,2,.378.378,0,0,1-.33.247h-1.689a.23.23,0,0,0-.23.23v3.223a.23.23,0,0,0,.23.23h1.689a.314.314,0,0,1,.3.176,5.27,5.27,0,0,0,1.5,2.026.362.362,0,0,1,.135.382l-.538,1.656a.231.231,0,0,0,.148.29l3.066,1a.23.23,0,0,0,.29-.148l.571-1.756a.39.39,0,0,1,.339-.245,5.234,5.234,0,0,0,2.139-.756.34.34,0,0,1,.38.008l1.555,1.13a.23.23,0,0,0,.321-.051l1.895-2.608a.23.23,0,0,0-.051-.321Z" transform="translate(-66.984 -41.699)" fill="none" stroke="#444" stroke-miterlimit="10" stroke-width="3"/>
            <circle id="Elipse_7952" data-name="Elipse 7952" cx="1.957" cy="1.957" r="1.957" transform="translate(62.246 41.015)" fill="none" stroke="#444" stroke-miterlimit="10" stroke-width="3"/>
            <rect id="Rectángulo_353260" data-name="Rectángulo 353260" width="15.101" height="4.667" transform="matrix(0.707, -0.707, 0.707, 0.707, 285.501, 64.699)" fill="none" stroke="#444" stroke-linejoin="round" stroke-width="3"/>
            <line id="Línea_401" data-name="Línea 401" y1="10.791" x2="10.881" transform="translate(286.958 55.686)" fill="none" stroke="#444" stroke-linejoin="round" stroke-width="3"/>
            <path id="Trazado_660652" data-name="Trazado 660652" d="M647.719,117.4a1.508,1.508,0,0,0,.018-2.134l-1.189-1.19a1.509,1.509,0,0,0-2.134.018l-1.241,1.24,3.305,3.305Z" transform="translate(-346.997 -61.312)" fill="none" stroke="#444" stroke-linejoin="round" stroke-width="3"/>
            <path id="Trazado_660653" data-name="Trazado 660653" d="M621.273,143.8s-.058.022-.148.047l-4.687,1.652c-.145.058-.223-.02-.169-.165l1.657-4.691c.026-.087.047-.144.047-.144Z" transform="translate(-332.472 -75.801)" fill="none" stroke="#444" stroke-linejoin="round" stroke-width="3"/>
            <line id="Línea_402" data-name="Línea 402" x1="20.421" transform="translate(281.113 72.172)" fill="none" stroke="#444" stroke-linecap="round" stroke-linejoin="round" stroke-width="3"/>
          </g>
        </g>
      </g>
    </g>
  </g>
</svg>
