<svg xmlns="http://www.w3.org/2000/svg" xmlns:xlink="http://www.w3.org/1999/xlink" width="425" height="280" viewBox="0 0 425 280">
  <defs>
    <clipPath id="clip-path">
      <rect id="Rectángulo_353265" data-name="Rectángulo 353265" width="369" height="265.649" fill="none"/>
    </clipPath>
  </defs>
  <g id="Grupo_973558" data-name="Grupo 973558" transform="translate(8121 8752)">
    <rect id="Rectángulo_353264" data-name="Rectángulo 353264" width="425" height="280" transform="translate(-8121 -8752)" fill="#fff"/>
    <path id="Trazado_660654" data-name="Trazado 660654" d="M148.083,198.221,55,291.3,27.216,319.088h148.65V170.438Zm2.551,95.634H85.986l64.648-64.648Z" transform="translate(-8120.658 -8830.53)" fill="#40dc30"/>
    <path id="Trazado_660655" data-name="Trazado 660655" d="M148.083,198.221,55,291.3,27.216,319.088h148.65V170.438Zm2.551,95.634H85.986l64.648-64.648Z" transform="translate(-8120.658 -8830.53)" fill="none" stroke="#000" stroke-linecap="round" stroke-linejoin="round" stroke-width="1"/>
    <path id="Trazado_660656" data-name="Trazado 660656" d="M560.437,209.117,484.909,75.776,452.986,19.428V243.307h126.82ZM478.218,218.5V114.47L537.147,218.5Z" transform="translate(-8334.32 -8754.749)" fill="#40dc30"/>
    <path id="Trazado_660657" data-name="Trazado 660657" d="M560.437,209.117,484.909,75.776,452.986,19.428V243.307h126.82ZM478.218,218.5V114.47L537.147,218.5Z" transform="translate(-8334.32 -8754.749)" fill="none" stroke="#000" stroke-linecap="round" stroke-linejoin="round" stroke-width="1"/>
    <g id="Grupo_973550" data-name="Grupo 973550" transform="translate(-8107 -8745)">
      <g id="Grupo_973549" data-name="Grupo 973549" clip-path="url(#clip-path)">
        <path id="Trazado_660658" data-name="Trazado 660658" d="M297.619,170.438v39.291a39.171,39.171,0,0,1-27.783-11.508Z" transform="translate(-135.411 -85.53)" fill="#ccea78"/>
        <path id="Trazado_660659" data-name="Trazado 660659" d="M297.619,170.438v39.291a39.171,39.171,0,0,1-27.783-11.508Z" transform="translate(-135.411 -85.53)" fill="none" stroke="#000" stroke-linecap="round" stroke-linejoin="round" stroke-width="1"/>
        <path id="Trazado_660660" data-name="Trazado 660660" d="M66.507,440.841H27.216L55,413.058a39.171,39.171,0,0,1,11.508,27.783" transform="translate(-13.658 -207.283)" fill="#ccea78"/>
        <path id="Trazado_660661" data-name="Trazado 660661" d="M66.507,440.841H27.216L55,413.058A39.171,39.171,0,0,1,66.507,440.841Z" transform="translate(-13.658 -207.283)" fill="none" stroke="#000" stroke-linecap="round" stroke-linejoin="round" stroke-width="1"/>
        <path id="Trazado_660662" data-name="Trazado 660662" d="M667.977,434.388H628.686a39.27,39.27,0,0,1,19.922-34.19Z" transform="translate(-315.491 -200.83)" fill="#ccea78"/>
        <path id="Trazado_660663" data-name="Trazado 660663" d="M667.977,434.388H628.686a39.27,39.27,0,0,1,19.922-34.19Z" transform="translate(-315.491 -200.83)" fill="none" stroke="#000" stroke-linecap="round" stroke-linejoin="round" stroke-width="1"/>
        <path id="Trazado_660664" data-name="Trazado 660664" d="M484.909,75.776a64.439,64.439,0,0,1-31.923,8.4V19.428Z" transform="translate(-227.32 -9.749)" fill="#ccea78"/>
        <path id="Trazado_660665" data-name="Trazado 660665" d="M484.909,75.776a64.439,64.439,0,0,1-31.923,8.4V19.428Z" transform="translate(-227.32 -9.749)" fill="none" stroke="#000" stroke-linecap="round" stroke-linejoin="round" stroke-width="1"/>
      </g>
    </g>
    <path id="Trazado_660689" data-name="Trazado 660689" d="M7.487-4.059H9.164v1.253H7.487V0H5.943V-2.806H.44v-.9l5.412-8.375H7.487Zm-5.3,0h3.76V-9.986l-.183.332Zm9.073-2,.614-6.026h6.192v1.419H13.173l-.365,3.3a3.9,3.9,0,0,1,2.017-.523A3.334,3.334,0,0,1,17.448-6.8a4.278,4.278,0,0,1,.971,2.951A4.129,4.129,0,0,1,17.411-.909,3.676,3.676,0,0,1,14.593.166a3.82,3.82,0,0,1-2.615-.888,3.545,3.545,0,0,1-1.154-2.457h1.453a2.439,2.439,0,0,0,.739,1.565,2.3,2.3,0,0,0,1.577.527,2.072,2.072,0,0,0,1.681-.73,3.054,3.054,0,0,0,.61-2.017,2.8,2.8,0,0,0-.66-1.947,2.245,2.245,0,0,0-1.756-.735,2.532,2.532,0,0,0-1.577.44l-.407.332Z" transform="translate(-7975.618 -8607.839)"/>
    <path id="Trazado_660690" data-name="Trazado 660690" d="M1.079-10.094A2.119,2.119,0,0,1,1.7-11.6a2,2,0,0,1,1.5-.647,1.957,1.957,0,0,1,1.473.643,2.129,2.129,0,0,1,.61,1.515,2.069,2.069,0,0,1-.61,1.5A1.988,1.988,0,0,1,3.2-7.969,2.038,2.038,0,0,1,1.7-8.591,2.047,2.047,0,0,1,1.079-10.094ZM3.2-9.031a1.052,1.052,0,0,0,.755-.294,1.01,1.01,0,0,0,.307-.765,1.075,1.075,0,0,0-.307-.79,1.022,1.022,0,0,0-.755-.31,1.019,1.019,0,0,0-.768.327,1.083,1.083,0,0,0-.311.773,1.014,1.014,0,0,0,.311.752A1.053,1.053,0,0,0,3.2-9.031Z" transform="translate(-7955.911 -8607.839)"/>
    <path id="Trazado_660694" data-name="Trazado 660694" d="M3.237-6.79H4.391A2.536,2.536,0,0,0,6.1-7.363a1.914,1.914,0,0,0,.623-1.5A1.875,1.875,0,0,0,4.607-10.99a2.2,2.2,0,0,0-1.59.569,1.99,1.99,0,0,0-.594,1.507H.888A3.083,3.083,0,0,1,1.938-11.3a3.825,3.825,0,0,1,2.669-.95,3.78,3.78,0,0,1,2.681.9,3.269,3.269,0,0,1,.971,2.515A2.653,2.653,0,0,1,7.749-7.3a3.082,3.082,0,0,1-1.39,1.1A2.97,2.97,0,0,1,7.9-5.155,2.9,2.9,0,0,1,8.442-3.37,3.3,3.3,0,0,1,7.379-.789,3.979,3.979,0,0,1,4.615.166,4.084,4.084,0,0,1,1.847-.755,3.056,3.056,0,0,1,.78-3.187H2.324A1.975,1.975,0,0,0,2.947-1.66a2.368,2.368,0,0,0,1.668.573,2.324,2.324,0,0,0,1.7-.581,2.239,2.239,0,0,0,.589-1.668,2.032,2.032,0,0,0-.647-1.619,2.821,2.821,0,0,0-1.868-.581H3.237ZM18.129-5.155a7.023,7.023,0,0,1-.921,4.009A3.277,3.277,0,0,1,14.327.166a3.3,3.3,0,0,1-2.864-1.282A6.666,6.666,0,0,1,10.5-4.947V-7a6.867,6.867,0,0,1,.921-3.959,3.3,3.3,0,0,1,2.889-1.295A3.332,3.332,0,0,1,17.183-11a6.627,6.627,0,0,1,.946,3.856Zm-1.536-2.1a5.627,5.627,0,0,0-.548-2.843,1.886,1.886,0,0,0-1.735-.892,1.861,1.861,0,0,0-1.718.888,5.494,5.494,0,0,0-.556,2.731v2.457A5.717,5.717,0,0,0,12.6-2.021a1.882,1.882,0,0,0,1.722.934,1.856,1.856,0,0,0,1.689-.88,5.51,5.51,0,0,0,.577-2.772Z" transform="translate(-7871.605 -8651.396)"/>
    <path id="Trazado_660695" data-name="Trazado 660695" d="M1.079-10.094A2.119,2.119,0,0,1,1.7-11.6a2,2,0,0,1,1.5-.647,1.957,1.957,0,0,1,1.473.643,2.129,2.129,0,0,1,.61,1.515,2.069,2.069,0,0,1-.61,1.5A1.988,1.988,0,0,1,3.2-7.969,2.038,2.038,0,0,1,1.7-8.591,2.047,2.047,0,0,1,1.079-10.094ZM3.2-9.031a1.052,1.052,0,0,0,.755-.294,1.01,1.01,0,0,0,.307-.765,1.075,1.075,0,0,0-.307-.79,1.022,1.022,0,0,0-.755-.31,1.019,1.019,0,0,0-.768.327,1.083,1.083,0,0,0-.311.773,1.014,1.014,0,0,0,.311.752A1.053,1.053,0,0,0,3.2-9.031Z" transform="translate(-7851.89 -8651.396)"/>
    <path id="Trazado_660686" data-name="Trazado 660686" d="M7.031-12.094v1.3H6.749A4.043,4.043,0,0,0,3.893-9.729a4.421,4.421,0,0,0-1.229,2.9,3.278,3.278,0,0,1,2.606-1.1A3.134,3.134,0,0,1,7.79-6.815a4.29,4.29,0,0,1,.942,2.872A4.277,4.277,0,0,1,7.716-.955,3.5,3.5,0,0,1,4.989.166,3.45,3.45,0,0,1,2.175-1.166,5.28,5.28,0,0,1,1.1-4.6v-.589a7.956,7.956,0,0,1,1.424-5.1,5.228,5.228,0,0,1,4.238-1.805ZM5.014-6.649a2.45,2.45,0,0,0-1.453.473A2.465,2.465,0,0,0,2.64-4.989v.564a3.965,3.965,0,0,0,.672,2.407A2.015,2.015,0,0,0,4.989-1.1,1.952,1.952,0,0,0,6.62-1.868a3.169,3.169,0,0,0,.594-2,3.17,3.17,0,0,0-.6-2.013A1.929,1.929,0,0,0,5.014-6.649ZM18.129-5.155a7.023,7.023,0,0,1-.921,4.009A3.277,3.277,0,0,1,14.327.166a3.3,3.3,0,0,1-2.864-1.282A6.666,6.666,0,0,1,10.5-4.947V-7a6.867,6.867,0,0,1,.921-3.959,3.3,3.3,0,0,1,2.889-1.295A3.332,3.332,0,0,1,17.183-11a6.627,6.627,0,0,1,.946,3.856Zm-1.536-2.1a5.627,5.627,0,0,0-.548-2.843,1.886,1.886,0,0,0-1.735-.892,1.861,1.861,0,0,0-1.718.888,5.494,5.494,0,0,0-.556,2.731v2.457A5.717,5.717,0,0,0,12.6-2.021a1.882,1.882,0,0,0,1.722.934,1.856,1.856,0,0,0,1.689-.88,5.51,5.51,0,0,0,.577-2.772Z" transform="translate(-7820.872 -8518.164)"/>
    <path id="Trazado_660687" data-name="Trazado 660687" d="M1.079-10.094A2.119,2.119,0,0,1,1.7-11.6a2,2,0,0,1,1.5-.647,1.957,1.957,0,0,1,1.473.643,2.129,2.129,0,0,1,.61,1.515,2.069,2.069,0,0,1-.61,1.5A1.988,1.988,0,0,1,3.2-7.969,2.038,2.038,0,0,1,1.7-8.591,2.047,2.047,0,0,1,1.079-10.094ZM3.2-9.031a1.052,1.052,0,0,0,.755-.294,1.01,1.01,0,0,0,.307-.765,1.075,1.075,0,0,0-.307-.79,1.022,1.022,0,0,0-.755-.31,1.019,1.019,0,0,0-.768.327,1.083,1.083,0,0,0-.311.773,1.014,1.014,0,0,0,.311.752A1.053,1.053,0,0,0,3.2-9.031Z" transform="translate(-7801.164 -8518.164)"/>
    <text id="_45" data-name="45" transform="translate(-8054.15 -8521.235)" font-size="17" font-family="Roboto-Regular, Roboto"><tspan x="0" y="0">45</tspan></text>
    <text id="_" data-name="°" transform="translate(-8034.434 -8521.235)" font-size="17" font-family="Roboto-Regular, Roboto"><tspan x="0" y="0">°</tspan></text>
    <line id="Línea_403" data-name="Línea 403" y2="211.983" transform="translate(-7893.951 -8729.374)" fill="none" stroke="#000" stroke-miterlimit="10" stroke-width="2"/>
    <path id="Trazado_660666" data-name="Trazado 660666" d="M420.254,28.174l3.689-1.567,3.69,1.567-3.69-8.746Z" transform="translate(-8317.895 -8754.749)"/>
    <path id="Trazado_660667" data-name="Trazado 660667" d="M420.254,451.271l3.689,1.567,3.69-1.567-3.69,8.746Z" transform="translate(-8317.895 -8971.46)"/>
    <line id="Línea_404" data-name="Línea 404" y2="136.754" transform="translate(-7932.175 -8654.145)" fill="none" stroke="#000" stroke-miterlimit="10" stroke-width="2"/>
    <path id="Trazado_660668" data-name="Trazado 660668" d="M343.526,179.184l3.689-1.567,3.69,1.567-3.69-8.746Z" transform="translate(-8279.391 -8830.53)"/>
    <path id="Trazado_660669" data-name="Trazado 660669" d="M343.526,451.271l3.689,1.567,3.69-1.567-3.69,8.746Z" transform="translate(-8279.391 -8971.46)"/>
    <line id="Línea_405" data-name="Línea 405" x1="140.238" y2="140.238" transform="translate(-8098.157 -8664.808)" fill="none" stroke="#000" stroke-miterlimit="10" stroke-width="2"/>
    <path id="Trazado_660670" data-name="Trazado 660670" d="M290.046,156.106l3.717,1.5,1.5,3.717,3.575-8.793Z" transform="translate(-8252.553 -8821.544)"/>
    <path id="Trazado_660671" data-name="Trazado 660671" d="M12.883,433.268l1.5,3.717,3.717,1.5-8.793,3.575Z" transform="translate(-8111.671 -8962.426)"/>
    <line id="Línea_406" data-name="Línea 406" x2="120.957" y2="213.529" transform="translate(-7867.476 -8736.455)" fill="none" stroke="#000" stroke-miterlimit="10" stroke-width="2"/>
    <path id="Trazado_660672" data-name="Trazado 660672" d="M476.02,16.194l2.438-3.182,3.983-.455-7.521-5.791Z" transform="translate(-8345.327 -8748.395)"/>
    <path id="Trazado_660673" data-name="Trazado 660673" d="M714.392,440.875l3.983-.455,2.438-3.182,1.1,9.429Z" transform="translate(-8465.501 -8964.418)"/>
    <line id="Línea_407" data-name="Línea 407" x2="114.924" transform="translate(-7875.387 -8498.719)" fill="none" stroke="#000" stroke-miterlimit="10" stroke-width="2"/>
    <path id="Trazado_660674" data-name="Trazado 660674" d="M461.732,494.342l-1.567-3.689,1.567-3.69-8.746,3.69Z" transform="translate(-8334.32 -8989.371)"/>
    <path id="Trazado_660675" data-name="Trazado 660675" d="M690,494.342l1.567-3.689L690,486.963l8.746,3.69Z" transform="translate(-8453.26 -8989.371)"/>
    <line id="Línea_408" data-name="Línea 408" x2="136.754" transform="translate(-8087.494 -8498.719)" fill="none" stroke="#000" stroke-miterlimit="10" stroke-width="2"/>
    <path id="Trazado_660676" data-name="Trazado 660676" d="M35.962,494.342l-1.567-3.689,1.567-3.69-8.746,3.69Z" transform="translate(-8120.658 -8989.371)"/>
    <path id="Trazado_660677" data-name="Trazado 660677" d="M308.049,494.342l1.567-3.689-1.567-3.69,8.746,3.69Z" transform="translate(-8261.588 -8989.371)"/>
    <line id="Línea_409" data-name="Línea 409" y2="18.925" transform="translate(-7881.334 -8511.442)" fill="none" stroke="#000" stroke-miterlimit="10" stroke-width="1"/>
    <line id="Línea_410" data-name="Línea 410" y2="18.925" transform="translate(-7944.792 -8511.442)" fill="none" stroke="#000" stroke-miterlimit="10" stroke-width="1"/>
    <line id="Línea_411" data-name="Línea 411" y2="18.925" transform="translate(-8093.442 -8511.442)" fill="none" stroke="#000" stroke-miterlimit="10" stroke-width="1"/>
    <line id="Línea_412" data-name="Línea 412" x1="18.925" transform="translate(-7900.26 -8511.442)" fill="none" stroke="#000" stroke-miterlimit="10" stroke-width="1"/>
    <line id="Línea_413" data-name="Línea 413" x1="18.925" transform="translate(-7944.792 -8511.442)" fill="none" stroke="#000" stroke-miterlimit="10" stroke-width="1"/>
    <line id="Línea_414" data-name="Línea 414" x1="18.925" transform="translate(-7944.792 -8660.093)" fill="none" stroke="#000" stroke-miterlimit="10" stroke-width="1"/>
    <line id="Línea_415" data-name="Línea 415" x2="13.382" y2="13.382" transform="translate(-7958.174 -8673.475)" fill="none" stroke="#000" stroke-miterlimit="10" stroke-width="1"/>
    <line id="Línea_416" data-name="Línea 416" x2="13.382" y2="13.382" transform="translate(-8106.824 -8524.824)" fill="none" stroke="#000" stroke-miterlimit="10" stroke-width="1"/>
    <line id="Línea_417" data-name="Línea 417" x1="16.39" y2="9.463" transform="translate(-7754.515 -8520.905)" fill="none" stroke="#000" stroke-miterlimit="10" stroke-width="1"/>
    <line id="Línea_418" data-name="Línea 418" x1="16.39" y2="9.463" transform="translate(-7881.334 -8744.784)" fill="none" stroke="#000" stroke-miterlimit="10" stroke-width="1"/>
    <line id="Línea_419" data-name="Línea 419" x1="18.925" transform="translate(-7900.26 -8735.321)" fill="none" stroke="#000" stroke-miterlimit="10" stroke-width="1"/>
    <rect id="Rectángulo_353266" data-name="Rectángulo 353266" width="369" height="265.649" transform="translate(-8107 -8745)" fill="none"/>
    <path id="Trazado_660688" data-name="Trazado 660688" d="M8.25-4.133A5.026,5.026,0,0,1,7.359-1.02,2.846,2.846,0,0,1,4.969.156,2.947,2.947,0,0,1,2.492-.977L2.422,0H1.094V-12H2.539v4.477A2.93,2.93,0,0,1,4.953-8.609,2.863,2.863,0,0,1,7.371-7.445,5.177,5.177,0,0,1,8.25-4.258ZM6.8-4.3a3.906,3.906,0,0,0-.57-2.281,1.888,1.888,0,0,0-1.641-.8A2.122,2.122,0,0,0,2.539-6.055V-2.4A2.181,2.181,0,0,0,4.609-1.07a1.878,1.878,0,0,0,1.617-.8A4.153,4.153,0,0,0,6.8-4.3Z" transform="translate(-7927.851 -8582.078)"/>
    <path id="Trazado_660691" data-name="Trazado 660691" d="M4.484-1.023a2.082,2.082,0,0,0,1.352-.469,1.649,1.649,0,0,0,.641-1.172H7.844a2.621,2.621,0,0,1-.5,1.383A3.293,3.293,0,0,1,6.113-.234,3.55,3.55,0,0,1,4.484.156,3.482,3.482,0,0,1,1.738-1,4.59,4.59,0,0,1,.719-4.148v-.242a5.089,5.089,0,0,1,.453-2.2,3.451,3.451,0,0,1,1.3-1.492,3.7,3.7,0,0,1,2-.531,3.39,3.39,0,0,1,2.363.852,3.043,3.043,0,0,1,1,2.211H6.477a1.992,1.992,0,0,0-.621-1.348,1.932,1.932,0,0,0-1.379-.527,2.023,2.023,0,0,0-1.707.793,3.724,3.724,0,0,0-.605,2.293v.273a3.65,3.65,0,0,0,.6,2.25A2.033,2.033,0,0,0,4.484-1.023Z" transform="translate(-8054.151 -8582.078)"/>
    <path id="Trazado_660684" data-name="Trazado 660684" d="M6.707,0a3.226,3.226,0,0,1-.216-.946A3.426,3.426,0,0,1,3.935.166,3.17,3.17,0,0,1,1.756-.585,2.43,2.43,0,0,1,.9-2.49,2.539,2.539,0,0,1,1.971-4.669a5.029,5.029,0,0,1,3-.776H6.466v-.706a1.725,1.725,0,0,0-.481-1.282,1.935,1.935,0,0,0-1.419-.477A2.239,2.239,0,0,0,3.188-7.5a1.223,1.223,0,0,0-.556,1H1.087a2.119,2.119,0,0,1,.477-1.3A3.258,3.258,0,0,1,2.86-8.782a4.356,4.356,0,0,1,1.8-.365,3.551,3.551,0,0,1,2.432.776A2.8,2.8,0,0,1,8-6.234V-2.1A5.054,5.054,0,0,0,8.317-.133V0ZM4.159-1.17a2.7,2.7,0,0,0,1.37-.374,2.259,2.259,0,0,0,.938-.971V-4.358h-1.2q-2.822,0-2.822,1.652a1.4,1.4,0,0,0,.481,1.129A1.85,1.85,0,0,0,4.159-1.17Z" transform="translate(-8023.89 -8484.546)"/>
    <path id="Trazado_660685" data-name="Trazado 660685" d="M6.707,0a3.226,3.226,0,0,1-.216-.946A3.426,3.426,0,0,1,3.935.166,3.17,3.17,0,0,1,1.756-.585,2.43,2.43,0,0,1,.9-2.49,2.539,2.539,0,0,1,1.971-4.669a5.029,5.029,0,0,1,3-.776H6.466v-.706a1.725,1.725,0,0,0-.481-1.282,1.935,1.935,0,0,0-1.419-.477A2.239,2.239,0,0,0,3.188-7.5a1.223,1.223,0,0,0-.556,1H1.087a2.119,2.119,0,0,1,.477-1.3A3.258,3.258,0,0,1,2.86-8.782a4.356,4.356,0,0,1,1.8-.365,3.551,3.551,0,0,1,2.432.776A2.8,2.8,0,0,1,8-6.234V-2.1A5.054,5.054,0,0,0,8.317-.133V0ZM4.159-1.17a2.7,2.7,0,0,0,1.37-.374,2.259,2.259,0,0,0,.938-.971V-4.358h-1.2q-2.822,0-2.822,1.652a1.4,1.4,0,0,0,.481,1.129A1.85,1.85,0,0,0,4.159-1.17Z" transform="translate(-7822.691 -8484.546)"/>
    <rect id="Rectángulo_353267" data-name="Rectángulo 353267" width="369" height="265.649" transform="translate(-8107 -8745)" fill="none"/>
    <path id="Trazado_660693" data-name="Trazado 660693" d="M8.25-4.133A5.026,5.026,0,0,1,7.359-1.02,2.846,2.846,0,0,1,4.969.156,2.947,2.947,0,0,1,2.492-.977L2.422,0H1.094V-12H2.539v4.477A2.93,2.93,0,0,1,4.953-8.609,2.863,2.863,0,0,1,7.371-7.445,5.177,5.177,0,0,1,8.25-4.258ZM6.8-4.3a3.906,3.906,0,0,0-.57-2.281,1.888,1.888,0,0,0-1.641-.8A2.122,2.122,0,0,0,2.539-6.055V-2.4A2.181,2.181,0,0,0,4.609-1.07a1.878,1.878,0,0,0,1.617-.8A4.153,4.153,0,0,0,6.8-4.3Z" transform="translate(-7909.375 -8619.693)"/>
    <path id="Trazado_660696" data-name="Trazado 660696" d="M4.484-1.023a2.082,2.082,0,0,0,1.352-.469,1.649,1.649,0,0,0,.641-1.172H7.844a2.621,2.621,0,0,1-.5,1.383A3.293,3.293,0,0,1,6.113-.234,3.55,3.55,0,0,1,4.484.156,3.482,3.482,0,0,1,1.738-1,4.59,4.59,0,0,1,.719-4.148v-.242a5.089,5.089,0,0,1,.453-2.2,3.451,3.451,0,0,1,1.3-1.492,3.7,3.7,0,0,1,2-.531,3.39,3.39,0,0,1,2.363.852,3.043,3.043,0,0,1,1,2.211H6.477a1.992,1.992,0,0,0-.621-1.348,1.932,1.932,0,0,0-1.379-.527,2.023,2.023,0,0,0-1.707.793,3.724,3.724,0,0,0-.605,2.293v.273a3.65,3.65,0,0,0,.6,2.25A2.033,2.033,0,0,0,4.484-1.023Z" transform="translate(-7795.711 -8619.693)"/>
    <path id="Trazado_660692" data-name="Trazado 660692" d="M8.234-5.586H3V-1.3H9.081V0H1.4V-12.086H9v1.3H3V-6.89H8.234Zm7.819,3.2a1.131,1.131,0,0,0-.469-.967,4.514,4.514,0,0,0-1.635-.594,7.731,7.731,0,0,1-1.851-.6,2.633,2.633,0,0,1-1.013-.83,1.986,1.986,0,0,1-.328-1.146,2.33,2.33,0,0,1,.934-1.868,3.647,3.647,0,0,1,2.386-.764,3.753,3.753,0,0,1,2.478.789,2.5,2.5,0,0,1,.95,2.017H15.962a1.386,1.386,0,0,0-.535-1.087,2.006,2.006,0,0,0-1.349-.457,2.1,2.1,0,0,0-1.312.365,1.15,1.15,0,0,0-.473.955.932.932,0,0,0,.44.838,5.413,5.413,0,0,0,1.59.54,8.283,8.283,0,0,1,1.864.614,2.718,2.718,0,0,1,1.058.859,2.112,2.112,0,0,1,.344,1.224,2.3,2.3,0,0,1-.963,1.93,4.039,4.039,0,0,1-2.5.726,4.523,4.523,0,0,1-1.909-.382,3.105,3.105,0,0,1-1.3-1.067,2.571,2.571,0,0,1-.469-1.482h1.536A1.59,1.59,0,0,0,12.6-1.54a2.4,2.4,0,0,0,1.523.452,2.476,2.476,0,0,0,1.4-.353A1.084,1.084,0,0,0,16.054-2.382Zm7.139,1.295a2.212,2.212,0,0,0,1.436-.5,1.752,1.752,0,0,0,.681-1.245h1.453a2.785,2.785,0,0,1-.531,1.469A3.5,3.5,0,0,1,24.923-.249a3.772,3.772,0,0,1-1.731.415,3.7,3.7,0,0,1-2.918-1.224,4.877,4.877,0,0,1-1.083-3.349v-.257A5.407,5.407,0,0,1,19.673-7a3.667,3.667,0,0,1,1.382-1.585,3.926,3.926,0,0,1,2.129-.564,3.6,3.6,0,0,1,2.511.9,3.234,3.234,0,0,1,1.067,2.349H25.309a2.116,2.116,0,0,0-.66-1.432,2.053,2.053,0,0,0-1.465-.56,2.149,2.149,0,0,0-1.814.843,3.957,3.957,0,0,0-.643,2.436v.291a3.878,3.878,0,0,0,.639,2.391A2.16,2.16,0,0,0,23.192-1.087Zm10.841.2A3.262,3.262,0,0,1,31.4.166a2.792,2.792,0,0,1-2.187-.834,3.611,3.611,0,0,1-.76-2.469V-8.981h1.536v5.8q0,2.042,1.66,2.042a2.3,2.3,0,0,0,2.341-1.312V-8.981h1.536V0H34.066ZM43.4,0a3.226,3.226,0,0,1-.216-.946A3.426,3.426,0,0,1,40.632.166a3.17,3.17,0,0,1-2.179-.751A2.43,2.43,0,0,1,37.6-2.49a2.539,2.539,0,0,1,1.067-2.179,5.029,5.029,0,0,1,3-.776h1.494v-.706a1.725,1.725,0,0,0-.481-1.282,1.935,1.935,0,0,0-1.419-.477,2.239,2.239,0,0,0-1.378.415,1.223,1.223,0,0,0-.556,1H37.785a2.119,2.119,0,0,1,.477-1.3,3.258,3.258,0,0,1,1.295-.992,4.356,4.356,0,0,1,1.8-.365,3.551,3.551,0,0,1,2.432.776A2.8,2.8,0,0,1,44.7-6.234V-2.1a5.054,5.054,0,0,0,.315,1.967V0ZM40.856-1.17a2.7,2.7,0,0,0,1.37-.374,2.259,2.259,0,0,0,.938-.971V-4.358h-1.2q-2.822,0-2.822,1.652a1.4,1.4,0,0,0,.481,1.129A1.85,1.85,0,0,0,40.856-1.17Zm5.877-3.4a5.261,5.261,0,0,1,.979-3.324,3.1,3.1,0,0,1,2.565-1.258,3.115,3.115,0,0,1,2.5,1.079V-12.75h1.536V0H52.9l-.075-.963A3.127,3.127,0,0,1,50.261.166a3.068,3.068,0,0,1-2.544-1.278,5.321,5.321,0,0,1-.984-3.337Zm1.536.174A3.984,3.984,0,0,0,48.9-2a2.039,2.039,0,0,0,1.743.863,2.24,2.24,0,0,0,2.133-1.312V-6.574a2.257,2.257,0,0,0-2.117-1.27,2.049,2.049,0,0,0-1.76.872A4.386,4.386,0,0,0,48.269-4.391ZM61.036-7.6a4.6,4.6,0,0,0-.755-.058,2.024,2.024,0,0,0-2.05,1.287V0H56.694V-8.981h1.494l.025,1.038a2.391,2.391,0,0,1,2.142-1.2,1.569,1.569,0,0,1,.681.116Zm6.3,7.6a3.226,3.226,0,0,1-.216-.946A3.426,3.426,0,0,1,64.564.166a3.17,3.17,0,0,1-2.179-.751,2.43,2.43,0,0,1-.851-1.905A2.539,2.539,0,0,1,62.6-4.669a5.029,5.029,0,0,1,3-.776H67.1v-.706a1.725,1.725,0,0,0-.481-1.282A1.935,1.935,0,0,0,65.2-7.911a2.239,2.239,0,0,0-1.378.415,1.223,1.223,0,0,0-.556,1H61.717a2.119,2.119,0,0,1,.477-1.3,3.258,3.258,0,0,1,1.295-.992,4.356,4.356,0,0,1,1.8-.365,3.551,3.551,0,0,1,2.432.776,2.8,2.8,0,0,1,.913,2.137V-2.1a5.054,5.054,0,0,0,.315,1.967V0ZM64.788-1.17a2.7,2.7,0,0,0,1.37-.374,2.259,2.259,0,0,0,.938-.971V-4.358h-1.2q-2.822,0-2.822,1.652a1.4,1.4,0,0,0,.481,1.129A1.85,1.85,0,0,0,64.788-1.17Z" transform="translate(-8093.447 -8628.135)"/>
    <path id="Trazado_660697" data-name="Trazado 660697" d="M10.293-3.835A4.447,4.447,0,0,1,8.878-.876,4.638,4.638,0,0,1,5.711.166,4.259,4.259,0,0,1,2.279-1.37,6.178,6.178,0,0,1,.988-5.479V-6.641A6.886,6.886,0,0,1,1.59-9.6,4.5,4.5,0,0,1,3.3-11.567a4.75,4.75,0,0,1,2.557-.685A4.367,4.367,0,0,1,8.94-11.177,4.5,4.5,0,0,1,10.293-8.2h-1.6a3.472,3.472,0,0,0-.9-2.1,2.725,2.725,0,0,0-1.938-.649,2.851,2.851,0,0,0-2.395,1.13A5.187,5.187,0,0,0,2.59-6.6v1.171A5.332,5.332,0,0,0,3.412-2.3a2.655,2.655,0,0,0,2.3,1.163,3.067,3.067,0,0,0,2.038-.6,3.34,3.34,0,0,0,.942-2.1ZM17.772,0a3.226,3.226,0,0,1-.216-.946A3.426,3.426,0,0,1,15,.166a3.17,3.17,0,0,1-2.179-.751A2.43,2.43,0,0,1,11.97-2.49a2.539,2.539,0,0,1,1.067-2.179,5.029,5.029,0,0,1,3-.776h1.494v-.706a1.725,1.725,0,0,0-.481-1.282,1.935,1.935,0,0,0-1.419-.477,2.239,2.239,0,0,0-1.378.415,1.223,1.223,0,0,0-.556,1H12.152a2.119,2.119,0,0,1,.477-1.3,3.258,3.258,0,0,1,1.295-.992,4.356,4.356,0,0,1,1.8-.365,3.551,3.551,0,0,1,2.432.776,2.8,2.8,0,0,1,.913,2.137V-2.1a5.054,5.054,0,0,0,.315,1.967V0ZM15.224-1.17a2.7,2.7,0,0,0,1.37-.374,2.259,2.259,0,0,0,.938-.971V-4.358h-1.2q-2.822,0-2.822,1.652a1.4,1.4,0,0,0,.481,1.129A1.85,1.85,0,0,0,15.224-1.17ZM25.815-7.6a4.6,4.6,0,0,0-.755-.058,2.024,2.024,0,0,0-2.05,1.287V0H21.474V-8.981h1.494l.025,1.038a2.391,2.391,0,0,1,2.142-1.2,1.569,1.569,0,0,1,.681.116Zm4.318-3.553v2.175H31.81v1.187H30.133v5.577a1.247,1.247,0,0,0,.224.81.943.943,0,0,0,.764.27,3.718,3.718,0,0,0,.73-.1V0a4.478,4.478,0,0,1-1.179.165A1.912,1.912,0,0,1,29.12-.457,2.675,2.675,0,0,1,28.6-2.225v-5.57H26.962V-8.981H28.6v-2.175ZM39.148,0a3.226,3.226,0,0,1-.216-.946A3.426,3.426,0,0,1,36.375.166,3.17,3.17,0,0,1,34.2-.585a2.43,2.43,0,0,1-.851-1.905,2.539,2.539,0,0,1,1.067-2.179,5.029,5.029,0,0,1,3-.776h1.494v-.706a1.725,1.725,0,0,0-.481-1.282,1.935,1.935,0,0,0-1.419-.477,2.239,2.239,0,0,0-1.378.415,1.223,1.223,0,0,0-.556,1H33.528a2.119,2.119,0,0,1,.477-1.3A3.258,3.258,0,0,1,35.3-8.782a4.356,4.356,0,0,1,1.8-.365,3.551,3.551,0,0,1,2.432.776,2.8,2.8,0,0,1,.913,2.137V-2.1a5.054,5.054,0,0,0,.315,1.967V0ZM36.6-1.17a2.7,2.7,0,0,0,1.37-.374,2.259,2.259,0,0,0,.938-.971V-4.358H37.7q-2.822,0-2.822,1.652a1.4,1.4,0,0,0,.481,1.129A1.85,1.85,0,0,0,36.6-1.17ZM50.453-4.391a5.34,5.34,0,0,1-.946,3.308A3.024,3.024,0,0,1,46.967.166a3.131,3.131,0,0,1-2.631-1.2L44.261,0H42.85V-12.75h1.536v4.756A3.113,3.113,0,0,1,46.95-9.147,3.042,3.042,0,0,1,49.52-7.911a5.5,5.5,0,0,1,.934,3.387Zm-1.536-.174a4.15,4.15,0,0,0-.606-2.424,2.006,2.006,0,0,0-1.743-.855,2.255,2.255,0,0,0-2.183,1.411v3.885a2.318,2.318,0,0,0,2.2,1.411A2,2,0,0,0,48.3-1.992,4.413,4.413,0,0,0,48.918-4.565Zm3.063-.008A5.3,5.3,0,0,1,52.5-6.948a3.87,3.87,0,0,1,1.444-1.627,3.932,3.932,0,0,1,2.113-.573,3.788,3.788,0,0,1,2.968,1.27A4.886,4.886,0,0,1,60.157-4.5v.108a5.351,5.351,0,0,1-.5,2.353A3.813,3.813,0,0,1,58.219-.415a3.977,3.977,0,0,1-2.146.581A3.778,3.778,0,0,1,53.114-1.1a4.861,4.861,0,0,1-1.133-3.362Zm1.544.183a3.842,3.842,0,0,0,.693,2.4,2.218,2.218,0,0,0,1.855.9A2.2,2.2,0,0,0,57.932-2a4.2,4.2,0,0,0,.689-2.569,3.836,3.836,0,0,0-.7-2.395,2.23,2.23,0,0,0-1.864-.917,2.205,2.205,0,0,0-1.834.9A4.17,4.17,0,0,0,53.525-4.391Zm3.229-8.359h1.859l-2.225,2.44-1.237,0Zm6.782,3.769.05,1.129a3.273,3.273,0,0,1,2.689-1.295q2.847,0,2.872,3.212V0H67.611V-5.943a2.068,2.068,0,0,0-.444-1.436,1.78,1.78,0,0,0-1.357-.465,2.216,2.216,0,0,0-1.312.4,2.706,2.706,0,0,0-.88,1.046V0H62.083V-8.981Z" transform="translate(-7826.667 -8696.54)"/>
  </g>
</svg>
