<svg xmlns="http://www.w3.org/2000/svg" xmlns:xlink="http://www.w3.org/1999/xlink" width="425" height="333.213" viewBox="0 0 425 333.213">
  <defs>
    <clipPath id="clip-path">
      <rect id="Rect치ngulo_353268" data-name="Rect치ngulo 353268" width="366.686" height="228.088" transform="translate(0 0)" fill="none"/>
    </clipPath>
  </defs>
  <g id="Grupo_973559" data-name="Grupo 973559" transform="translate(8135 7644)">
    <path id="Trazado_660698" data-name="Trazado 660698" d="M8.8,13H7.485L2.475,5.33V13H1.155V3.047H2.475l5.024,7.7v-7.7H8.8Zm1.8-3.767a4.369,4.369,0,0,1,.427-1.955,3.187,3.187,0,0,1,1.189-1.34,3.238,3.238,0,0,1,1.74-.472A3.119,3.119,0,0,1,16.4,6.513a4.024,4.024,0,0,1,.933,2.782v.089a4.407,4.407,0,0,1-.414,1.938,3.14,3.14,0,0,1-1.183,1.336,3.275,3.275,0,0,1-1.767.479,3.111,3.111,0,0,1-2.437-1.046A4,4,0,0,1,10.6,9.322Zm1.271.15a3.164,3.164,0,0,0,.571,1.976,1.934,1.934,0,0,0,3.059-.01,3.46,3.46,0,0,0,.567-2.116,3.159,3.159,0,0,0-.578-1.972,1.836,1.836,0,0,0-1.535-.755,1.816,1.816,0,0,0-1.511.745A3.435,3.435,0,0,0,11.874,9.384Zm8.764-5.571V5.6h1.381v.978H20.638v4.593a1.027,1.027,0,0,0,.185.667.777.777,0,0,0,.629.222,3.062,3.062,0,0,0,.6-.082V13a3.688,3.688,0,0,1-.971.136,1.575,1.575,0,0,1-1.278-.513,2.2,2.2,0,0,1-.431-1.456V6.581H18.026V5.6h1.347V3.813ZM28.062,13a2.657,2.657,0,0,1-.178-.779,2.822,2.822,0,0,1-2.105.916,2.611,2.611,0,0,1-1.794-.619,2,2,0,0,1-.7-1.569,2.091,2.091,0,0,1,.878-1.794,4.142,4.142,0,0,1,2.471-.639h1.23V7.935a1.42,1.42,0,0,0-.4-1.056A1.593,1.593,0,0,0,26.3,6.485a1.844,1.844,0,0,0-1.135.342,1.007,1.007,0,0,0-.458.827H23.434a1.745,1.745,0,0,1,.393-1.07,2.683,2.683,0,0,1,1.066-.817,3.588,3.588,0,0,1,1.48-.3,2.924,2.924,0,0,1,2,.639,2.306,2.306,0,0,1,.752,1.76v3.4a4.162,4.162,0,0,0,.26,1.62V13Zm-2.1-.964a2.223,2.223,0,0,0,1.128-.308,1.861,1.861,0,0,0,.772-.8V9.411h-.991q-2.324,0-2.324,1.36a1.151,1.151,0,0,0,.4.93A1.524,1.524,0,0,0,25.963,12.036Zm5.175.3a.792.792,0,0,1,.195-.547.742.742,0,0,1,.584-.219.765.765,0,0,1,.591.219.776.776,0,0,1,.2.547.734.734,0,0,1-.2.526.778.778,0,0,1-.591.212.7.7,0,0,1-.779-.738ZM45.063,4.12h-3.2V13H40.558V4.12H37.365V3.047h7.7Zm.267,5.113a4.369,4.369,0,0,1,.427-1.955,3.187,3.187,0,0,1,1.189-1.34,3.238,3.238,0,0,1,1.74-.472,3.119,3.119,0,0,1,2.444,1.046,4.024,4.024,0,0,1,.933,2.782v.089a4.407,4.407,0,0,1-.414,1.938,3.14,3.14,0,0,1-1.183,1.336,3.275,3.275,0,0,1-1.767.479,3.111,3.111,0,0,1-2.437-1.046,4,4,0,0,1-.933-2.769Zm1.271.15a3.164,3.164,0,0,0,.571,1.976,1.934,1.934,0,0,0,3.059-.01A3.46,3.46,0,0,0,50.8,9.233a3.159,3.159,0,0,0-.578-1.972,1.836,1.836,0,0,0-1.535-.755,1.816,1.816,0,0,0-1.511.745A3.435,3.435,0,0,0,46.6,9.384ZM54.838,5.6l.034.82a2.732,2.732,0,0,1,2.194-.957,2.115,2.115,0,0,1,2.112,1.189,2.8,2.8,0,0,1,.96-.861,2.837,2.837,0,0,1,1.4-.328q2.434,0,2.475,2.577V13H62.747V8.119a1.7,1.7,0,0,0-.362-1.186,1.6,1.6,0,0,0-1.217-.393A1.677,1.677,0,0,0,60,6.96a1.706,1.706,0,0,0-.54,1.131V13H58.188V8.153A1.411,1.411,0,0,0,56.608,6.54a1.692,1.692,0,0,0-1.7,1.06V13H53.642V5.6ZM70.485,13a2.657,2.657,0,0,1-.178-.779,2.822,2.822,0,0,1-2.105.916,2.611,2.611,0,0,1-1.794-.619,2,2,0,0,1-.7-1.569,2.091,2.091,0,0,1,.878-1.794,4.141,4.141,0,0,1,2.471-.639h1.23V7.935a1.42,1.42,0,0,0-.4-1.056,1.593,1.593,0,0,0-1.169-.393,1.844,1.844,0,0,0-1.135.342,1.007,1.007,0,0,0-.458.827H65.857a1.745,1.745,0,0,1,.393-1.07,2.683,2.683,0,0,1,1.066-.817,3.588,3.588,0,0,1,1.48-.3,2.924,2.924,0,0,1,2,.639,2.306,2.306,0,0,1,.752,1.76v3.4a4.162,4.162,0,0,0,.26,1.62V13Zm-2.1-.964a2.223,2.223,0,0,0,1.128-.308,1.861,1.861,0,0,0,.772-.8V9.411H69.3q-2.324,0-2.324,1.36a1.151,1.151,0,0,0,.4.93A1.524,1.524,0,0,0,68.387,12.036Zm4.84-2.8A4.333,4.333,0,0,1,74.033,6.5a2.745,2.745,0,0,1,4.17-.147V2.5h1.265V13H78.306l-.062-.793a2.575,2.575,0,0,1-2.112.93,2.526,2.526,0,0,1-2.1-1.053,4.382,4.382,0,0,1-.81-2.748Zm1.265.144a3.281,3.281,0,0,0,.52,1.969,1.68,1.68,0,0,0,1.436.711,1.845,1.845,0,0,0,1.757-1.08v-3.4A1.859,1.859,0,0,0,76.46,6.54a1.687,1.687,0,0,0-1.449.718A3.612,3.612,0,0,0,74.491,9.384Zm6.6-.15a4.369,4.369,0,0,1,.427-1.955,3.187,3.187,0,0,1,1.189-1.34,3.238,3.238,0,0,1,1.74-.472A3.119,3.119,0,0,1,86.9,6.513a4.024,4.024,0,0,1,.933,2.782v.089a4.407,4.407,0,0,1-.414,1.938,3.14,3.14,0,0,1-1.183,1.336,3.275,3.275,0,0,1-1.767.479,3.111,3.111,0,0,1-2.437-1.046,4,4,0,0,1-.933-2.769Zm1.271.15a3.164,3.164,0,0,0,.571,1.976A1.934,1.934,0,0,0,86,11.349a3.46,3.46,0,0,0,.567-2.116,3.159,3.159,0,0,0-.578-1.972,1.836,1.836,0,0,0-1.535-.755,1.816,1.816,0,0,0-1.511.745A3.435,3.435,0,0,0,82.366,9.384ZM92.572,9.24A4.333,4.333,0,0,1,93.379,6.5a2.745,2.745,0,0,1,4.17-.147V2.5h1.265V13H97.651l-.062-.793a2.575,2.575,0,0,1-2.112.93,2.526,2.526,0,0,1-2.1-1.053,4.382,4.382,0,0,1-.81-2.748Zm1.265.144a3.281,3.281,0,0,0,.52,1.969,1.68,1.68,0,0,0,1.436.711,1.845,1.845,0,0,0,1.757-1.08v-3.4A1.859,1.859,0,0,0,95.806,6.54a1.687,1.687,0,0,0-1.449.718A3.612,3.612,0,0,0,93.837,9.384Zm10.008,3.753a3.232,3.232,0,0,1-2.447-.988,3.666,3.666,0,0,1-.943-2.642V9.274a4.438,4.438,0,0,1,.42-1.965,3.28,3.28,0,0,1,1.176-1.354,2.956,2.956,0,0,1,1.637-.489,2.77,2.77,0,0,1,2.242.95,4.114,4.114,0,0,1,.8,2.721v.526h-5.011a2.629,2.629,0,0,0,.639,1.767,2.009,2.009,0,0,0,1.555.673,2.2,2.2,0,0,0,1.135-.273,2.851,2.851,0,0,0,.813-.725l.772.6A3.106,3.106,0,0,1,103.845,13.137Zm-.157-6.631a1.687,1.687,0,0,0-1.285.557,2.708,2.708,0,0,0-.643,1.562h3.705v-.1a2.409,2.409,0,0,0-.52-1.494A1.588,1.588,0,0,0,103.688,6.506ZM118.46,4.12h-3.2V13h-1.306V4.12h-3.192V3.047h7.7Zm3.671,9.017a3.232,3.232,0,0,1-2.447-.988,3.666,3.666,0,0,1-.943-2.642V9.274a4.438,4.438,0,0,1,.42-1.965,3.28,3.28,0,0,1,1.176-1.354,2.956,2.956,0,0,1,1.637-.489,2.77,2.77,0,0,1,2.242.95,4.114,4.114,0,0,1,.8,2.721v.526H120a2.629,2.629,0,0,0,.639,1.767,2.009,2.009,0,0,0,1.555.673,2.2,2.2,0,0,0,1.135-.273,2.851,2.851,0,0,0,.813-.725l.772.6A3.106,3.106,0,0,1,122.131,13.137Zm-.157-6.631a1.687,1.687,0,0,0-1.285.557,2.708,2.708,0,0,0-.643,1.562h3.705v-.1a2.409,2.409,0,0,0-.52-1.494A1.588,1.588,0,0,0,121.974,6.506Zm7.472,5.6a1.822,1.822,0,0,0,1.183-.41,1.443,1.443,0,0,0,.561-1.025h1.2a2.293,2.293,0,0,1-.437,1.21,2.881,2.881,0,0,1-1.077.916,3.107,3.107,0,0,1-1.425.342,3.047,3.047,0,0,1-2.4-1.008,4.016,4.016,0,0,1-.892-2.758V9.158a4.453,4.453,0,0,1,.4-1.921,3.02,3.02,0,0,1,1.138-1.306,3.233,3.233,0,0,1,1.753-.465,2.966,2.966,0,0,1,2.068.745,2.663,2.663,0,0,1,.878,1.935h-1.2a1.743,1.743,0,0,0-.543-1.179,1.691,1.691,0,0,0-1.207-.461,1.77,1.77,0,0,0-1.494.694,3.259,3.259,0,0,0-.53,2.006v.239a3.194,3.194,0,0,0,.526,1.969A1.779,1.779,0,0,0,129.445,12.1ZM135,5.6l.041.93a2.7,2.7,0,0,1,2.215-1.066q2.345,0,2.365,2.646V13h-1.265V8.105a1.7,1.7,0,0,0-.366-1.183,1.466,1.466,0,0,0-1.118-.383,1.825,1.825,0,0,0-1.08.328,2.228,2.228,0,0,0-.725.861V13h-1.265V5.6Zm6.193,3.63a4.369,4.369,0,0,1,.427-1.955,3.187,3.187,0,0,1,1.189-1.34,3.238,3.238,0,0,1,1.74-.472A3.119,3.119,0,0,1,147,6.513a4.024,4.024,0,0,1,.933,2.782v.089a4.407,4.407,0,0,1-.414,1.938,3.14,3.14,0,0,1-1.183,1.336,3.275,3.275,0,0,1-1.767.479,3.111,3.111,0,0,1-2.437-1.046,4,4,0,0,1-.933-2.769Zm1.271.15a3.164,3.164,0,0,0,.571,1.976,1.934,1.934,0,0,0,3.059-.01,3.46,3.46,0,0,0,.567-2.116,3.159,3.159,0,0,0-.578-1.972,1.836,1.836,0,0,0-1.535-.755,1.816,1.816,0,0,0-1.511.745A3.435,3.435,0,0,0,142.468,9.384Zm11.354,1.654a.931.931,0,0,0-.386-.8,3.718,3.718,0,0,0-1.347-.489,6.367,6.367,0,0,1-1.524-.492,2.169,2.169,0,0,1-.834-.684,1.635,1.635,0,0,1-.27-.943A1.919,1.919,0,0,1,150.23,6.1a3,3,0,0,1,1.965-.629,3.091,3.091,0,0,1,2.041.649,2.063,2.063,0,0,1,.783,1.661h-1.271a1.142,1.142,0,0,0-.441-.9,1.652,1.652,0,0,0-1.111-.376,1.729,1.729,0,0,0-1.08.3.947.947,0,0,0-.39.786.767.767,0,0,0,.362.69,4.458,4.458,0,0,0,1.309.444,6.821,6.821,0,0,1,1.535.506,2.239,2.239,0,0,1,.872.708,1.74,1.74,0,0,1,.284,1.008,1.893,1.893,0,0,1-.793,1.589,3.326,3.326,0,0,1-2.058.6,3.725,3.725,0,0,1-1.572-.314,2.557,2.557,0,0,1-1.07-.878,2.117,2.117,0,0,1-.386-1.22h1.265a1.309,1.309,0,0,0,.509,1.008,1.976,1.976,0,0,0,1.254.373,2.039,2.039,0,0,0,1.152-.291A.893.893,0,0,0,153.822,11.038Zm2.939,1.3a.792.792,0,0,1,.195-.547.742.742,0,0,1,.584-.219.765.765,0,0,1,.591.219.776.776,0,0,1,.2.547.734.734,0,0,1-.2.526.778.778,0,0,1-.591.212.7.7,0,0,1-.779-.738Zm6.624-.232a1.822,1.822,0,0,0,1.183-.41,1.443,1.443,0,0,0,.561-1.025h1.2a2.293,2.293,0,0,1-.437,1.21,2.881,2.881,0,0,1-1.077.916,3.107,3.107,0,0,1-1.425.342,3.047,3.047,0,0,1-2.4-1.008,4.016,4.016,0,0,1-.892-2.758V9.158a4.453,4.453,0,0,1,.4-1.921,3.02,3.02,0,0,1,1.138-1.306,3.233,3.233,0,0,1,1.753-.465,2.966,2.966,0,0,1,2.068.745,2.663,2.663,0,0,1,.878,1.935h-1.2a1.743,1.743,0,0,0-.543-1.179,1.691,1.691,0,0,0-1.207-.461,1.77,1.77,0,0,0-1.494.694,3.259,3.259,0,0,0-.53,2.006v.239a3.194,3.194,0,0,0,.526,1.969A1.779,1.779,0,0,0,163.386,12.1Zm4.026-2.871a4.369,4.369,0,0,1,.427-1.955,3.187,3.187,0,0,1,1.189-1.34,3.238,3.238,0,0,1,1.74-.472,3.119,3.119,0,0,1,2.444,1.046,4.024,4.024,0,0,1,.933,2.782v.089a4.407,4.407,0,0,1-.414,1.938,3.14,3.14,0,0,1-1.183,1.336,3.275,3.275,0,0,1-1.767.479,3.111,3.111,0,0,1-2.437-1.046,4,4,0,0,1-.933-2.769Zm1.271.15a3.164,3.164,0,0,0,.571,1.976,1.934,1.934,0,0,0,3.059-.01,3.46,3.46,0,0,0,.567-2.116,3.159,3.159,0,0,0-.578-1.972,1.836,1.836,0,0,0-1.535-.755,1.816,1.816,0,0,0-1.511.745A3.435,3.435,0,0,0,168.684,9.384Zm8.237-3.78.034.82a2.732,2.732,0,0,1,2.194-.957,2.115,2.115,0,0,1,2.112,1.189,2.8,2.8,0,0,1,.96-.861,2.837,2.837,0,0,1,1.4-.328q2.434,0,2.475,2.577V13H184.83V8.119a1.7,1.7,0,0,0-.362-1.186,1.6,1.6,0,0,0-1.217-.393,1.677,1.677,0,0,0-1.169.42,1.706,1.706,0,0,0-.54,1.131V13h-1.271V8.153a1.411,1.411,0,0,0-1.579-1.613,1.692,1.692,0,0,0-1.7,1.06V13h-1.265V5.6Zm14.5,3.356a10.569,10.569,0,0,1,.414-2.967,8.618,8.618,0,0,1,1.234-2.584,5.249,5.249,0,0,1,1.7-1.641l.26.834a5.444,5.444,0,0,0-1.637,2.338,10.135,10.135,0,0,0-.7,3.521l-.007.581a10.188,10.188,0,0,0,.964,4.58,5.47,5.47,0,0,0,1.381,1.818l-.26.772a5.418,5.418,0,0,1-1.736-1.7A9.5,9.5,0,0,1,191.42,8.96Zm9.14,2.078a.931.931,0,0,0-.386-.8,3.718,3.718,0,0,0-1.347-.489,6.367,6.367,0,0,1-1.524-.492,2.169,2.169,0,0,1-.834-.684,1.635,1.635,0,0,1-.27-.943,1.919,1.919,0,0,1,.769-1.538,3,3,0,0,1,1.965-.629,3.091,3.091,0,0,1,2.041.649,2.063,2.063,0,0,1,.783,1.661h-1.271a1.142,1.142,0,0,0-.441-.9,1.652,1.652,0,0,0-1.111-.376,1.729,1.729,0,0,0-1.08.3.947.947,0,0,0-.39.786.767.767,0,0,0,.362.69,4.458,4.458,0,0,0,1.309.444,6.821,6.821,0,0,1,1.535.506,2.239,2.239,0,0,1,.872.708,1.74,1.74,0,0,1,.284,1.008,1.893,1.893,0,0,1-.793,1.589,3.326,3.326,0,0,1-2.058.6,3.725,3.725,0,0,1-1.572-.314,2.557,2.557,0,0,1-1.07-.878,2.117,2.117,0,0,1-.386-1.22h1.265a1.309,1.309,0,0,0,.509,1.008,1.976,1.976,0,0,0,1.254.373,2.039,2.039,0,0,0,1.152-.291A.893.893,0,0,0,200.56,11.038Zm2.939,1.3a.792.792,0,0,1,.195-.547.742.742,0,0,1,.584-.219.765.765,0,0,1,.591.219.776.776,0,0,1,.2.547.734.734,0,0,1-.2.526.778.778,0,0,1-.591.212.7.7,0,0,1-.779-.738Zm7.745.663V6.581h-1.169V5.6h1.169V4.845a2.519,2.519,0,0,1,.636-1.839,2.4,2.4,0,0,1,1.8-.649,3.339,3.339,0,0,1,.868.115l-.068,1.019a3.632,3.632,0,0,0-.684-.062,1.234,1.234,0,0,0-.95.36,1.46,1.46,0,0,0-.335,1.032V5.6h1.579v.978h-1.579V13Zm4.266-.663a.792.792,0,0,1,.195-.547.742.742,0,0,1,.584-.219.765.765,0,0,1,.591.219.776.776,0,0,1,.2.547.734.734,0,0,1-.2.526.778.778,0,0,1-.591.212.7.7,0,0,1-.779-.738Zm6.576-3.309a10.574,10.574,0,0,1-.4,2.922,8.641,8.641,0,0,1-1.224,2.581,5.361,5.361,0,0,1-1.726,1.682l-.267-.772a5.5,5.5,0,0,0,1.692-2.505,10.839,10.839,0,0,0,.653-3.77V8.946a11.254,11.254,0,0,0-.3-2.669,9.009,9.009,0,0,0-.837-2.211,5.108,5.108,0,0,0-1.207-1.524l.267-.772a5.34,5.34,0,0,1,1.719,1.668,8.66,8.66,0,0,1,1.224,2.577A10.818,10.818,0,0,1,222.086,9.028Zm1.976,3.309a.792.792,0,0,1,.195-.547.742.742,0,0,1,.584-.219.765.765,0,0,1,.591.219.776.776,0,0,1,.2.547.734.734,0,0,1-.2.526.778.778,0,0,1-.591.212.7.7,0,0,1-.779-.738Z" transform="translate(-8119 -7327)" fill="#12263f"/>
    <rect id="Rect치ngulo_353269" data-name="Rect치ngulo 353269" width="425" height="306" transform="translate(-8135 -7644)" fill="#fff"/>
    <g id="Grupo_973557" data-name="Grupo 973557" transform="translate(-8106 -7605.001)">
      <g id="Grupo_973556" data-name="Grupo 973556" transform="translate(0 0.001)" clip-path="url(#clip-path)">
        <path id="Trazado_660678" data-name="Trazado 660678" d="M70.61.5c48.939,0,63.045,10.331,62.25,27.417s-25.245,18.357-27.417,18.609a4.53,4.53,0,0,0-3.056,1.513c-1.764,2.922,2.26,7.442,7.442,10.033,6.1,3.05,14.884,5.738,26.673,5.738,17.02,0,23.708-6.953,23.708-9.867s-3.907-6.159-3.907-6.159c-6.092-5.1-5.033-9.073-5.033-9.073,0-16.026,36.776-15.1,49.337-13.774,8.873.934,8.477,5.563,8.477,5.563,0,1.387-.022,2.609-5.9,6.66-4.876,3.359-4.229,6.229-4.229,6.229,0,13.264,20.8,20.581,56.244,20.581,23.6,0,51.684-3.417,78.19-12.941,4.889-1.757,3.973-5.1,3.973-5.1s-.192-2.576-6.755-3.709c-7.313-1.262-6.625-6.6-6.625-6.6,0-9.018,20.064-9.468,20.064-9.468,26.151,0,25.475,13.977,25.475,13.977,0,6.5-2.475,13.693-13.1,19.312C307.1,85.516,202.2,106.407,132.761,106.407c-71.224,0-129.13-20.891-129.13-63.8C3.631,22.189,21.671.5,70.61.5m10.425,25.13a1.345,1.345,0,0,0-1.007-2.064c-10.279-1.411-46.206-1.014-46.206,24.648C33.823,66.5,68.8,79.831,91.471,83.13A49.709,49.709,0,0,0,99.8,83.7a1.04,1.04,0,0,0,.31-2.024C80.433,75.2,62.653,53.618,81.035,25.631m99.71,40.418a1.808,1.808,0,0,0-3.08.274c-3.017,5.7-8.05,15.1-26.742,18.481-1.3.235-1.475,2.1.248,2.1,0,0,34.8-1.556,55.007-5.391,0,0,1.192-.14,1.152-1.128-.039-.965-.751-1.1-1.184-1.175-1.329-.2-17.092-1.689-25.4-13.164" transform="translate(-2.93 -0.404)" fill="#40dc30"/>
        <path id="Trazado_660679" data-name="Trazado 660679" d="M70.61.5c48.939,0,63.045,10.331,62.25,27.417s-25.245,18.357-27.417,18.609a4.53,4.53,0,0,0-3.056,1.513c-1.764,2.922,2.26,7.442,7.442,10.033,6.1,3.05,14.884,5.738,26.673,5.738,17.02,0,23.708-6.953,23.708-9.867s-3.907-6.159-3.907-6.159c-6.092-5.1-5.033-9.073-5.033-9.073,0-16.026,36.776-15.1,49.337-13.774,8.873.934,8.477,5.563,8.477,5.563,0,1.387-.022,2.609-5.9,6.66-4.876,3.359-4.229,6.229-4.229,6.229,0,13.264,20.8,20.581,56.244,20.581,23.6,0,51.684-3.417,78.19-12.941,4.889-1.757,3.973-5.1,3.973-5.1s-.192-2.576-6.755-3.709c-7.313-1.262-6.625-6.6-6.625-6.6,0-9.018,20.064-9.468,20.064-9.468,26.151,0,25.475,13.977,25.475,13.977,0,6.5-2.475,13.693-13.1,19.312C307.1,85.516,202.2,106.407,132.761,106.407c-71.224,0-129.13-20.891-129.13-63.8C3.631,22.189,21.671.5,70.61.5Zm10.425,25.13a1.345,1.345,0,0,0-1.007-2.064c-10.279-1.411-46.206-1.014-46.206,24.648C33.823,66.5,68.8,79.831,91.471,83.13A49.709,49.709,0,0,0,99.8,83.7a1.04,1.04,0,0,0,.31-2.024C80.433,75.2,62.653,53.618,81.035,25.631Zm99.71,40.418a1.808,1.808,0,0,0-3.08.274c-3.017,5.7-8.05,15.1-26.742,18.481-1.3.235-1.475,2.1.248,2.1,0,0,34.8-1.556,55.007-5.391,0,0,1.192-.14,1.152-1.128-.039-.965-.751-1.1-1.184-1.175C204.817,79.01,189.054,77.524,180.746,66.049Z" transform="translate(-2.93 -0.404)" fill="none" stroke="#000" stroke-linecap="round" stroke-linejoin="round" stroke-width="1"/>
        <path id="Trazado_660680" data-name="Trazado 660680" d="M24.974,724.561c8.484-.205,14.27,1.763,19.67,7.215,6.243,6.3.064,10.093-1.885,10.682,0,0-6.6,1.448-6.6,5.027,0,2.877,4.673,11.537,22.779,11.537,15.916,0,27.439-13.477,27.439-19.587,0-5.463-4.768-7.369-4.768-10.977,0-6.971,24.784-15.4,45.665-14.435,26.294,1.212,38.026,19.6,34.3,34.153-5.089,19.882-27.392,14.056-29.006,8.146-1.114-4.08.706-5.04,3.436-7.484,1.755-1.571.414-4.245-3.075-3.4-5.03,1.195-11.586,13.065-3.075,20.884,14.968,13.751,34.3,4.544,43.954-.167,10.216-4.985,17.28,7.911,9.706,14.472,0,0-24.35,23.407-92.214,23.407-46.343,0-90.8-15.4-90.8-51.527,0-12.41,13.214-27.679,24.474-27.952m8.651,43.448c-1.844-.775-3.568.547-2.452,2.4,7.456,12.384,55.931,18.794,80.24,10.61,4.652-1.566,1.241-7.328-1.28-9.17-1.092-.8-6.693-6.088-20.26-1.12-6.4,2.343-13.589,6.238-26.658,5.7-11.123-.454-17.434-2.666-29.59-8.424" transform="translate(-0.403 -576.048)" fill="#40dc30"/>
        <path id="Trazado_660681" data-name="Trazado 660681" d="M24.974,724.561c8.484-.205,14.27,1.763,19.67,7.215,6.243,6.3.064,10.093-1.885,10.682,0,0-6.6,1.448-6.6,5.027,0,2.877,4.673,11.537,22.779,11.537,15.916,0,27.439-13.477,27.439-19.587,0-5.463-4.768-7.369-4.768-10.977,0-6.971,24.784-15.4,45.665-14.435,26.294,1.212,38.026,19.6,34.3,34.153-5.089,19.882-27.392,14.056-29.006,8.146-1.114-4.08.706-5.04,3.436-7.484,1.755-1.571.414-4.245-3.075-3.4-5.03,1.195-11.586,13.065-3.075,20.884,14.968,13.751,34.3,4.544,43.954-.167,10.216-4.985,17.28,7.911,9.706,14.472,0,0-24.35,23.407-92.214,23.407-46.343,0-90.8-15.4-90.8-51.527C.5,740.1,13.714,724.834,24.974,724.561Zm8.651,43.448c-1.844-.775-3.568.547-2.452,2.4,7.456,12.384,55.931,18.794,80.24,10.61,4.652-1.566,1.241-7.328-1.28-9.17-1.092-.8-6.693-6.088-20.26-1.12-6.4,2.343-13.589,6.238-26.658,5.7C52.091,775.979,45.78,773.767,33.624,768.009Z" transform="translate(-0.403 -576.048)" fill="none" stroke="#000" stroke-linecap="round" stroke-linejoin="round" stroke-width="1"/>
        <path id="Trazado_660682" data-name="Trazado 660682" d="M1155.306,775.912c0,4.011-2.166,12.369-11.569,19.124-16.315,11.719-50.63,13.773-83.309-2.318-30.529-15.033-41.125-43.178-26.518-64.842,7.89-11.7,29.012-19.024,41.021-5.588s-4.28,25.92-4.28,25.92-2.881,1.406-1.189,3.21c5.867,6.257,22.622,5.6,27.7-.713,1.728-2.149.5-5.461-2.616-3.686-4.188,2.388-7.134.238-7.134.238s-9.018-6.223,1.622-19.041c14.238-17.152,43.44-17.147,67.681-6.093,17.218,7.852,27.45,22.022,34.141,33.813,5.3,9.331,6.355,26.351-7.134,31.746-19.589,7.835-28.232-10.925-24.127-19.336.468-1.389,3.04-5.356-1.835-5.919-5.536-.639-13.425,2.513-15.272,5.051-1.679,2.307.329,4,3.424,3.2,8.471-3.022,9.393,3.688,9.393,5.232m-32.88-33.723,7.7,8.658a2.243,2.243,0,0,0,2.754.477c3.86-2.116,14.576-7.087,27.016-5.1a1.435,1.435,0,0,0,1.089-2.569c-7.657-5.669-23.119-14.371-37.783-6.063a2.992,2.992,0,0,0-.779,4.594M1110.948,783a4.281,4.281,0,0,0,1.767-7.839l-4.723-3.058a6.666,6.666,0,0,0-5.87-.7c-17.887,6.431-36.622-2.012-46.729-14.441-6.5-7.99-4.953-15.907-2.755-20.872a.931.931,0,0,0-1.546-.993c-19.453,21.843,23.061,52.588,59.855,47.905" transform="translate(-828.976 -576.467)" fill="#40dc30"/>
        <path id="Trazado_660683" data-name="Trazado 660683" d="M1155.306,775.912c0,4.011-2.166,12.369-11.569,19.124-16.315,11.719-50.63,13.773-83.309-2.318-30.529-15.033-41.125-43.178-26.518-64.842,7.89-11.7,29.012-19.024,41.021-5.588s-4.28,25.92-4.28,25.92-2.881,1.406-1.189,3.21c5.867,6.257,22.622,5.6,27.7-.713,1.728-2.149.5-5.461-2.616-3.686-4.188,2.388-7.134.238-7.134.238s-9.018-6.223,1.622-19.041c14.238-17.152,43.44-17.147,67.681-6.093,17.218,7.852,27.45,22.022,34.141,33.813,5.3,9.331,6.355,26.351-7.134,31.746-19.589,7.835-28.232-10.925-24.127-19.336.468-1.389,3.04-5.356-1.835-5.919-5.536-.639-13.425,2.513-15.272,5.051-1.679,2.307.329,4,3.424,3.2C1154.384,767.658,1155.306,774.368,1155.306,775.912Zm-32.88-33.723,7.7,8.658a2.243,2.243,0,0,0,2.754.477c3.86-2.116,14.576-7.087,27.016-5.1a1.435,1.435,0,0,0,1.089-2.569c-7.657-5.669-23.119-14.371-37.783-6.063A2.992,2.992,0,0,0,1122.426,742.189ZM1110.948,783a4.281,4.281,0,0,0,1.767-7.839l-4.723-3.058a6.666,6.666,0,0,0-5.87-.7c-17.887,6.431-36.622-2.012-46.729-14.441-6.5-7.99-4.953-15.907-2.755-20.872a.931.931,0,0,0-1.546-.993C1031.641,756.934,1074.154,787.679,1110.948,783Z" transform="translate(-828.976 -576.467)" fill="none" stroke="#000" stroke-linecap="round" stroke-linejoin="round" stroke-width="1"/>
      </g>
    </g>
  </g>
</svg>
