<svg id="Grupo_973554" data-name="Grupo 973554" xmlns="http://www.w3.org/2000/svg" xmlns:xlink="http://www.w3.org/1999/xlink" width="47.856" height="64.667" viewBox="0 0 47.856 64.667">
  <defs>
    <clipPath id="clip-path">
      <rect id="Rectángulo_352113" data-name="Rectángulo 352113" width="47.856" height="64.667" fill="none"/>
    </clipPath>
  </defs>
  <g id="Grupo_952667" data-name="Grupo 952667" clip-path="url(#clip-path)">
    <path id="Trazado_659819" data-name="Trazado 659819" d="M40.51,0a1.906,1.906,0,0,1,1.143,1.972q-.024,17.175-.01,34.35v.807c.337.034.61.045.878.091a1.511,1.511,0,0,1,1.4,1.583A2.432,2.432,0,0,0,46.2,41.341c1.355.214,1.743.724,1.641,2.157a26.909,26.909,0,0,1-4.772,13.814,26.229,26.229,0,0,1-7.541,7.082,1.577,1.577,0,0,1-1.832-.041,27.951,27.951,0,0,1-5.209-4.269A23.356,23.356,0,0,1,25.6,56.346a1.081,1.081,0,0,0-1.067-.558q-11.179.021-22.357.006a5.169,5.169,0,0,1-.936-.09A1.325,1.325,0,0,1,.088,54.536,5.725,5.725,0,0,1,.01,53.6Q0,27.866,0,2.134A2.054,2.054,0,0,1,1.1,0ZM24.89,40.309H8.847a6.706,6.706,0,0,1-.694-.02.985.985,0,0,1-.218-1.912,2.8,2.8,0,0,1,.807-.093q8.051-.008,16.1-.012c.222,0,.562-.047.645-.19a1.926,1.926,0,0,1,1.875-.912q5.241,0,10.483,0h.731V3.078H3.1v49.63H23.6c-.042-.151-.067-.247-.1-.342-.542-1.827-1.14-3.639-1.6-5.486-.167-.673-.39-.849-1.058-.843-4.083.032-8.167.02-12.251.013-.873,0-1.324-.355-1.34-1C7.244,44.371,7.708,44,8.6,43.986c.147,0,.294,0,.442,0H21.418c0-.4-.005-.71,0-1.021A1.515,1.515,0,0,1,22.5,41.442c.283-.073.584-.078.873-.132a2.207,2.207,0,0,0,1.515-1m9.79-.073c-1.958,0-3.916.008-5.874-.007a.629.629,0,0,0-.722.5,5.185,5.185,0,0,1-3.064,3.238.579.579,0,0,0-.421.76c.131.7.228,1.41.377,2.107a22.7,22.7,0,0,0,9.21,14.2c.351.252.59.3.916,0,1.335-1.215,2.8-2.312,4-3.643a22.878,22.878,0,0,0,5.584-12.72.554.554,0,0,0-.419-.7,5.21,5.21,0,0,1-3.059-3.242.629.629,0,0,0-.724-.5c-1.937.014-3.874.007-5.811.007" transform="translate(0)" fill="#a50491"/>
    <path id="Trazado_659820" data-name="Trazado 659820" d="M36.651,67.2H48.644c1.065,0,1.588.335,1.6,1.018s-.528,1.048-1.572,1.049H24.623c-1.068,0-1.556-.335-1.546-1.052.01-.691.488-1.015,1.518-1.015q6.028,0,12.056,0" transform="translate(-15.818 -46.061)" fill="#a50491"/>
    <path id="Trazado_659821" data-name="Trazado 659821" d="M36.7,103.592H48.816a3.737,3.737,0,0,1,.567.017,1.021,1.021,0,0,1,.861,1.015,1,1,0,0,1-.847.964,2.551,2.551,0,0,1-.5.02H24.4c-.063,0-.126,0-.189,0-.7-.021-1.123-.394-1.127-1A.99.99,0,0,1,24.2,103.6c1.473-.011,2.946,0,4.418,0H36.7" transform="translate(-15.826 -71.006)" fill="#a50491"/>
    <path id="Trazado_659822" data-name="Trazado 659822" d="M36.61,32.941q-6.154,0-12.307.006a1.111,1.111,0,0,1-1.19-.631,1,1,0,0,1,.8-1.372,4.036,4.036,0,0,1,.63-.019H48.717c.084,0,.168,0,.253,0,.769.014,1.264.428,1.243,1.041s-.478.973-1.233.973q-6.185,0-12.37,0" transform="translate(-15.788 -21.197)" fill="#a50491"/>
    <path id="Trazado_659823" data-name="Trazado 659823" d="M36.677,85.456H48.732c1.027,0,1.522.333,1.514,1.011s-.531,1.02-1.53,1.02H24.606a4.427,4.427,0,0,1-.567-.013,1,1,0,0,1-.956-1.054.958.958,0,0,1,1.034-.953c1.683-.018,3.366-.01,5.049-.011h7.511" transform="translate(-15.822 -58.576)" fill="#a50491"/>
    <path id="Trazado_659824" data-name="Trazado 659824" d="M36.644,51.081q-6.028,0-12.056,0c-1.037,0-1.507-.315-1.51-1,0-.7.475-1.041,1.492-1.041H48.745c.063,0,.126,0,.189,0,.813.017,1.327.431,1.311,1.054s-.481.985-1.293.986q-6.154.009-12.308,0" transform="translate(-15.82 -33.613)" fill="#a50491"/>
    <path id="Trazado_659825" data-name="Trazado 659825" d="M102.61,141.092a6.386,6.386,0,1,1-6.389-6.455,6.448,6.448,0,0,1,6.389,6.455m-7.232.5a7.575,7.575,0,0,0-.694-.937.958.958,0,0,0-1.452-.058,1.02,1.02,0,0,0,.089,1.461c.432.457.877.9,1.337,1.334a1.016,1.016,0,0,0,1.558-.009c.994-.964,1.965-1.952,2.939-2.937a1.078,1.078,0,0,0,.271-.416.964.964,0,0,0-1.585-1.024c-.78.787-1.531,1.6-2.462,2.586" transform="translate(-61.581 -92.288)" fill="#00cca7"/>
  </g>
</svg>
