<svg xmlns="http://www.w3.org/2000/svg" width="140.835" height="121.098" viewBox="0 0 140.835 121.098">
  <g id="Grupo_952718" data-name="Grupo 952718" transform="translate(-229.541 -11318.414)">
    <path id="Trazado_659887" data-name="Trazado 659887" d="M-6577.531-343.854l-28.655,14.994,28.655,14.66,28.321-14.66Z" transform="translate(6877 11700)" fill="#800070"/>
    <path id="Trazado_659888" data-name="Trazado 659888" d="M-6609.518-325.195v38.317l29.321,14.327v-37.984Z" transform="translate(6877 11700)" fill="#800070"/>
    <path id="Trazado_659889" data-name="Trazado 659889" d="M-6575.2-309.535l29.654-15.993v38.983l-29.654,14.66Z" transform="translate(6877 11700)" fill="#800070"/>
    <g id="Grupo_952714" data-name="Grupo 952714">
      <g id="Grupo_952713" data-name="Grupo 952713">
        <path id="Trazado_659890" data-name="Trazado 659890" d="M-6577.7-352.183v-27.988l-7.83,8.663" transform="translate(6877 11700)" fill="none" stroke="#800070" stroke-linecap="round" stroke-linejoin="round" stroke-width="2"/>
        <path id="Trazado_659891" data-name="Trazado 659891" d="M-6577.7-380.171l8.5,8.663" transform="translate(6877 11700)" fill="none" stroke="#800070" stroke-linecap="round" stroke-width="2"/>
      </g>
    </g>
    <g id="Grupo_952715" data-name="Grupo 952715" transform="matrix(-0.469, 0.883, -0.883, -0.469, 10500.482, 16480.168)">
      <g id="Grupo_952713-2" data-name="Grupo 952713">
        <path id="Trazado_659890-2" data-name="Trazado 659890" d="M-6577.7-352.183v-27.988l-7.83,8.663" transform="translate(6877 11700)" fill="none" stroke="#800070" stroke-linecap="round" stroke-linejoin="round" stroke-width="2"/>
        <path id="Trazado_659891-2" data-name="Trazado 659891" d="M-6577.7-380.171l8.5,8.663" transform="translate(6877 11700)" fill="none" stroke="#800070" stroke-linecap="round" stroke-width="2"/>
      </g>
    </g>
    <g id="Grupo_952716" data-name="Grupo 952716" transform="translate(-9618.859 17008.293) rotate(-118)">
      <g id="Grupo_952713-3" data-name="Grupo 952713">
        <path id="Trazado_659890-3" data-name="Trazado 659890" d="M-6577.7-352.183v-27.988l-7.83,8.663" transform="translate(6877 11700)" fill="none" stroke="#800070" stroke-linecap="round" stroke-linejoin="round" stroke-width="2"/>
        <path id="Trazado_659891-3" data-name="Trazado 659891" d="M-6577.7-380.171l8.5,8.663" transform="translate(6877 11700)" fill="none" stroke="#800070" stroke-linecap="round" stroke-width="2"/>
      </g>
    </g>
  </g>
</svg>
