<svg id="Grupo_952723" data-name="Grupo 952723" xmlns="http://www.w3.org/2000/svg" xmlns:xlink="http://www.w3.org/1999/xlink" width="289.124" height="288.807" viewBox="0 0 289.124 288.807">
  <defs>
    <clipPath id="clip-path">
      <rect id="Rectángulo_352824" data-name="Rectángulo 352824" width="289.124" height="288.807" fill="none"/>
    </clipPath>
  </defs>
  <g id="Grupo_952722" data-name="Grupo 952722" clip-path="url(#clip-path)">
    <path id="Trazado_659906" data-name="Trazado 659906" d="M88.809,185.162c.007-.014.007-.036.021-.05a7.719,7.719,0,0,0,.691-1.59q1.807-4.117,3.607-8.248,12.49-28.529,24.979-57.066.8-1.85,1.618-3.7c-.734-.257-1.469-.513-2.2-.777q-8.373,19.012-16.746,38.018-7.71,17.526-15.427,35.038c.806-.385,1.6-.777,2.41-1.162.185-.086,1.048-.549,1.048-.463M71.457,97.385c-1.939-.691-3.871-1.376-5.81-2.06q-7.079-2.513-14.165-5.033a20.738,20.738,0,0,1-2.973-1.055c-.264-.135-.321-.093-.542-.349A9.2,9.2,0,0,1,47.2,86.4a5.934,5.934,0,0,1-.577-1.939c0-.014.014-.036.014-.05a.4.4,0,0,1,.029-.086c.271-.934,1.732-2.124,2.281-2.787q3.229-3.871,6.487-7.728c.128-.157.257-.307.385-.456Q66.638,60.49,77.666,47.8l.007-.007.021-.021q3.561-4.1,7.136-8.177,4.823-5.5,9.7-10.936c.285-.328.57-.656.863-.977.257-.292.528-.577.784-.87q2.534-2.812,5.076-5.6,1.412-1.551,2.823-3.094c.335-.364.656-.727.991-1.084q3.3-3.582,6.651-7.129,2.727-2.9,5.511-5.753c.207-.214.413-.435.62-.649.528-.542,1.062-1.148,1.6-1.732A6.587,6.587,0,0,1,121.116.219.66.66,0,0,1,121.6.006a.674.674,0,0,1,.235.014A17.822,17.822,0,0,1,125.151.6c.271.043.542.093.813.135,2.181.364,4.363.734,6.544,1.1q28.273,4.726,56.553,9.467,33.2,5.55,66.412,11.114L287.666,27.8a.281.281,0,0,1,.257.271c.378,1.212.756,2.417,1.119,3.629.413,1.369-.827,2.281-1.64,3.365q-3.037,4.021-6.081,8.056-10.383,13.762-20.766,27.517-12.629,16.746-25.264,33.491-2.962,3.924-5.931,7.856c.791-.321,1.633-.577,2.4-.877.749-.285,1.5-.577,2.238-.863q9.474-3.657,18.934-7.321c.734-.278,1.469-.577,2.2-.877q0-2.748-.007-5.5a23.86,23.86,0,0,1,.078-5.1c.385-1.7,2.139-1.739,3.629-1.419,1.946.413,1.326,3.757,1.326,5.2-.007,1.7-.007,3.386-.014,5.083a3.194,3.194,0,0,1,.328.086,19.053,19.053,0,0,1,3.543,1.3.359.359,0,0,1,.264.342v5.461a.375.375,0,0,1-.264.349c-1.818.7-3.643,1.39-5.461,2.089l-20.98,8.041,10.658,88.8q3.967,1.166,7.941,2.324a.426.426,0,0,1,.178.114v.007a.34.34,0,0,1,.086.221c0,1.084.471,3.272-.2,4.128a4.372,4.372,0,0,1-1.084.649q-3.112,1.85-6.231,3.7-23.1,13.73-46.2,27.46-15.409,9.153-30.818,18.314a.354.354,0,0,1-.356,0q-3.572-2.021-7.129-4.035a.356.356,0,0,1-.178-.314v-4.277a.353.353,0,0,1,.178-.307q5.143-2.962,10.3-5.938l11.313-6.523q2.427-5.464,4.855-10.936,12.5-28.155,25-56.318,7.817-17.59,15.626-35.188l-2.146-18.734q-4.865,1.871-9.731,3.728-2.855,3.8-5.717,7.578-4.513,5.988-9.032,11.976a.439.439,0,0,1-.413.178c-.52-.185-1.041-.371-1.554-.556q-16.468-5.839-32.935-11.684-14.553-5.165-29.093-10.323l3.137,26.17q3.978,1.155,7.949,2.324a.364.364,0,0,1,.171.114.343.343,0,0,1,.093.228c0,1.084.471,3.272-.2,4.128a4.622,4.622,0,0,1-1.091.642l-6.223,3.7q-23.108,13.73-46.209,27.467-8.416,5-16.845,10.009v64.68c0,1.7-.456,2.816-2.438,2.944-2.467.157-4.078-1.012-4.12-3.529-.021-1.554,0-3.108,0-4.655V200.71q-3.7,2.2-7.407,4.406a.367.367,0,0,1-.364,0q-3.561-2.021-7.129-4.042a.351.351,0,0,1-.178-.307V196.49a.369.369,0,0,1,.178-.307q5.154-2.973,10.3-5.938l4.6-2.652v-1.4A16.41,16.41,0,0,0,70.929,175c-4.427,2.531-10.8,4.47-18.25,5.489v58.371a2.782,2.782,0,0,1-2.773,2.78H48.766a2.75,2.75,0,0,1-2.745-2.745V181.134q-1.636.1-3.315.128V286.034a2.776,2.776,0,0,1-2.773,2.773H38.793a2.741,2.741,0,0,1-2.745-2.745V181.155c-10.387-.535-19.419-2.8-25.207-6.052A15.893,15.893,0,0,0,6.728,185.5c-.164,10.643,0,21.294,0,31.937v41.6a16.846,16.846,0,0,1-.05,2.937c-.542,2.887-6.152,3.793-6.516.5-.364-3.365,0-6.979,0-10.351V187.842c0-.87-.007-1.747,0-2.616.071-5.525,2.417-9.831,5.767-13.994a7.136,7.136,0,0,1-1.846-4.562v-4.99c0-8.056,16.475-14.614,36.713-14.614s36.713,6.559,36.713,14.614v4.99a7.052,7.052,0,0,1-1.711,4.413,31.9,31.9,0,0,1,3.529,4.862,19.726,19.726,0,0,1,2.2,7.956c.107-.057.207-.121.314-.178q2.427-5.464,4.855-10.936,12.5-28.155,25-56.317l1.839-4.149Q92.933,105.006,72.32,97.692M288.5,32.442c-.078-.029-.121-.463-.185-.677-.285-.927-.57-1.861-.855-2.787-.271.364-.62.72-.855,1.041l-2.189,2.894q-3.465,4.6-6.943,9.2Q266.95,56.059,256.435,70,244.266,86.121,232.1,102.247q-10.105,13.377-20.2,26.762l-8.277,10.971q.535,1.743,1.076,3.486c.185-.242.378-.485.563-.727q6.448-8.555,12.9-17.1c.314-.421.627-.834.941-1.248q3.989-5.293,7.977-10.579c.207-.271.385-.528.57-.749l12.682-16.81q11.955-15.837,23.91-31.687,9.239-12.254,18.492-24.509,2.427-3.219,4.848-6.43a8.122,8.122,0,0,0,.905-1.183m-9.6,6.608,8.041-10.65c-.007,0-.014-.007-.021-.007a26.255,26.255,0,0,1-4.491-.749q-4.106-.7-8.212-1.376l-16.453-2.759L190.08,110.26c-.52,2.794-1.084,5.575-1.711,8.334-.6,2.609-4.006,2.552-3.643-.257.064-.506.15-1.012.235-1.518l-9.916,12.718q6.352,2.246,12.7,4.505,7.678,2.716,15.363,5.446a9.037,9.037,0,0,1,1.1-1.447c.727-.962,1.454-1.932,2.181-2.894q3.465-4.6,6.943-9.2Q223.856,112,234.371,98.062,246.54,81.937,258.7,65.812q10.105-13.377,20.2-26.761m-15.306,63.51c-1.49.6-2.98,1.191-4.477,1.789q-17.163,6.844-34.332,13.7-2.171,2.866-4.334,5.739,4.416-1.69,8.84-3.386l4.242-1.625,3.956-1.518c1.034-.392,2.067-.791,3.1-1.183q11.164-4.277,22.342-8.562c.2-.078.4-.157.6-.228-.036-.086.043-.342.043-.7v-3.621c0-.114.014-.257.021-.406m-34.218,12.9q16.767-6.694,33.548-13.388c-.321-.114-.634-.228-.948-.335a15.459,15.459,0,0,0-1.825-.713v.642a.261.261,0,0,1-.014.178c0,.014-.007.021-.007.029a.423.423,0,0,1-.029.057c-.77,1.846-3.044,1.4-4.605.77q-13.495,5.218-27,10.444-1.444,1.9-2.887,3.821,1.882-.759,3.771-1.5m30.069-19.191c0-.92.086-1.9.071-2.844-.87.043-1.739.064-2.609.043a9.488,9.488,0,0,1-1.1-.007c.014.342.036.677.036,1.005,0,1.568,0,3.144.007,4.712a13.732,13.732,0,0,0,0,2.481c.107.542-.2.264.385.556.913.449,2.745.613,3.2-.535q.011-2.705.007-5.411m.029-3.557c-.007-.143-.007-.285-.029-.428-.05-.378-.228-1.354-.528-1.533-.1-.064-.342.021-.449,0a6.409,6.409,0,0,0-1.333,0c-.948,0-1.112.135-1.283,1.29a6.458,6.458,0,0,0-.05.649.518.518,0,0,1,.036.064,9.63,9.63,0,0,0,1.868.007c.592,0,1.183-.021,1.768-.05m-69.107,16.033,66.59-85.36q-4.063-.684-8.134-1.362-33.577-5.625-67.153-11.242L128.879,1.945q-2.951-.5-5.9-.991a4.943,4.943,0,0,0-1.347-.228c-.67.121-1.754,1.732-2.417,2.4-10.729,10.928-20.966,22.327-31.1,33.8q-20.6,23.343-40.492,47.307a13.718,13.718,0,0,1,1.825.72c1.333.478,2.673.948,4.006,1.426q4.17,1.476,8.348,2.958c-.413-.791-.827-1.59-1.233-2.388-.135-.257.086-.634.4-.52q5.988,2.117,11.969,4.227,25.279,8.929,50.543,17.858,10.212,3.614,20.431,7.221c1.7.606,3.4,1.2,5.1,1.8,1.54.549,1.932,2.281,2.652,3.693l22.67,8.041,10.9-13.972c.314-1.59.67-3.187.97-4.762q1.572-8.244,3.13-16.489a.223.223,0,0,1,.036-.071c0-.007,0-.007.007-.014q1.5-3.058,3.008-6.117a.359.359,0,0,1,.663.178l-.171,6.758a.167.167,0,0,1-.014.057c0,.014.007.021,0,.043-.87,4.591-1.647,9.232-2.5,13.851m65.364,101.336Q249.859,213.5,244,216.935q-25.022,14.618-50.03,29.242l-18.628,10.886a18.652,18.652,0,0,1-3.137,1.9v3.65a35.936,35.936,0,0,1,4.17-2.4l8.533-5.069,51.32-30.511q8.736-5.186,17.458-10.372c.577-.342,1.148-.763,1.754-1.048a2.925,2.925,0,0,0,.3-.15,6.1,6.1,0,0,1-.007-1.019,10.749,10.749,0,0,1,0-1.975m-10.921,5.553q5.2-3.026,10.387-6.067l-6.865-2.01.535,4.441-4.242,3.087.029.278-.321-.064-4.249-.791-.271-2.36c-.677.385-1.347.77-2.025,1.162l-41.04,23.653q-1.369,3.122-2.73,6.252a3.873,3.873,0,0,1-1.768,1.8c-.977.549-2.146.891-3.172,1.376a.286.286,0,0,1-.307.057.272.272,0,0,1-.107-.036q-1.7-.8-3.386-1.6a.35.35,0,0,1-.128-.485c.128-.307.264-.606.4-.905q-10.105,5.817-20.2,11.641c1.775.92,3.557,1.839,5.332,2.752.349.185.7.4,1.055.549a1.124,1.124,0,0,0,.192-.128,38.57,38.57,0,0,1,5.261-3.073l15.648-9.146q15.323-8.961,30.647-17.915,10.661-6.234,21.329-12.468m3.294-3.964-11.214-93.409-3.272,1.255,2.374,20.6a28.057,28.057,0,0,1,.563,4.933l7.977,69.228Zm-4.27,2.816-7.756-67.389c-.791,1.811-1.59,3.629-2.381,5.439l7.036,61.372Zm-4.113-3.115-6.594-57.529c-.121.264-.235.535-.356.806q-12.543,28.679-25.093,57.351-5.229,11.934-10.444,23.867,11.174-6.448,22.356-12.889,10.062-5.8,20.132-11.606m-3.75-65.8c-.057.342-.157-.777-.178-.941-.071-.656-.15-1.312-.221-1.975-.057-.463-.114-.934-.164-1.4q-2.62,5.935-5.225,11.869-12.607,28.6-25.2,57.216-7.72,17.515-15.427,35.031c.8-.385,1.6-.77,2.41-1.155a5.053,5.053,0,0,1,1.041-.463.055.055,0,0,1-.014.036c.021-.029.029-.043.014-.036a.492.492,0,0,0,.021-.057,7.83,7.83,0,0,0,.691-1.583q1.807-4.128,3.614-8.248,12.49-28.54,24.972-57.073,5.336-12.18,10.665-24.366,1.315-3,2.623-6a4.014,4.014,0,0,0,.378-.863m-.763-6.01-2.274-19.79-2.866,1.1,2.139,18.685Zm-15.74,36.122q7.806-17.708,15.6-35.409h-2.944q-2.844,6.384-5.675,12.775-12.5,28.155-25,56.317l-15.527,34.967c.912.435,1.832.863,2.745,1.3q2.8-6.362,5.61-12.732,12.6-28.6,25.193-57.216M204.01,143.622q-.535-1.722-1.062-3.436c-.029-.007-.057-.021-.078-.029a11.969,11.969,0,0,1-2.11-.741c-1.333-.478-2.673-.948-4.006-1.426l-12.846-4.555q-4.384-1.561-8.783-3.115L176.771,134q11.3,4.021,22.613,8.027l3.122,1.112c.435.15,1.041.271,1.5.485M192.183,94.348q.053-2.353.121-4.705c-.7,1.419-1.4,2.837-2.1,4.256l1.982.449m-.977,5.489c.3-1.59.606-3.187.905-4.776l-.756-.171q-1.1,6.181-2.2,12.354c-.235,1.312-.47,2.631-.706,3.942l.007-.007c-.093.513-.185,1.019-.271,1.511-.157.848-.307,1.69-.456,2.538.178.057.356.114.528.185.036-.235.071-.463.114-.691.121-.613.235-1.226.349-1.839.078-.392.15-.777.221-1.169.093-.492.192-1.005.292-1.533s.207-1.062.307-1.6c.064-.349.128-.7.2-1.055.071-.385.15-.777.221-1.169.228-1.2.456-2.388.684-3.586.071-.364.135-.734.207-1.1.043-.228.086-.449.128-.677.078-.392.15-.777.221-1.162m-1.069-2.167c.171-.977.349-1.96.52-2.937-.228-.05-.463-.107-.691-.157l-1.005,5.282c-.114.6-.228,1.2-.342,1.8q-1.166,6.159-2.338,12.311l.043-.057c-.064.328-.128.656-.185.977l.292.05c.207.029.413.064.613.107.071-.385.143-.777.207-1.162.086-.485.178-.984.264-1.5l.007-.007q.791-4.416,1.575-8.847c.05-.307.107-.62.164-.927.1-.577.207-1.155.307-1.739.057-.3.107-.592.157-.877l.192-1.069c.071-.428.15-.848.221-1.255m-2.089,19.105c.036-.221.078-.435.107-.649a6.971,6.971,0,0,0-2.181-.52c-.05.257-.1.52-.15.777a3.866,3.866,0,0,1,2.224.392m-.314,1.333a6.4,6.4,0,0,0,.171-.634c-.677-.285-1.618-.713-2.238-.278-.014.078-.029.164-.043.242a5.217,5.217,0,0,0-.3,1.561c.249,1.027,1.932.385,2.288-.271.1-.171.057-.435.121-.62m-11.891,15.562-1.647-3.686q-14.233-5.047-28.472-10.1c-1.775-.634-3.557-1.262-5.339-1.9q-15.74-5.582-31.474-11.171-4.587-1.625-9.182-3.258-5.133-1.818-10.265-3.643-13.506-4.791-27-9.581a.376.376,0,0,1-.107-.036q-7.421-2.631-14.835-5.268v.014c.271.684.442,1.426.663,2.132a9.47,9.47,0,0,0,.385,1.34,1.668,1.668,0,0,0,.271.086,15.954,15.954,0,0,1,1.853.663l19.533,6.929q16.478,5.849,32.956,11.691,18.938,6.726,37.882,13.445l34.767,12.34Zm-4.356,129.217v-3.871a8.549,8.549,0,0,1-1.975-1q-2.278-1.176-4.541-2.352c-.007.071-.014.15-.014.221v1.682a8.234,8.234,0,0,0-.014,1.568.469.469,0,0,1,.093.057c1.789,1.212,3.821,2.16,5.7,3.229.235.135.492.321.749.463m-19.961-111.4q-5.86,3.432-11.734,6.858-25.011,14.628-50.03,29.249-4.042,2.363-8.084,4.719v3.671l50.351-29.927q8.726-5.186,17.458-10.38c.57-.342,1.148-.756,1.754-1.041a1.992,1.992,0,0,0,.292-.157,6.85,6.85,0,0,1,0-1.012,11.5,11.5,0,0,1-.007-1.982m-10.914,5.553q5.186-3.037,10.38-6.067-3.433-.994-6.865-2l.535,4.441-4.242,3.087.036.271-.328-.057-4.249-.791-.271-2.367c-.67.392-1.347.777-2.017,1.162q-20.52,11.837-41.04,23.66l-2.737,6.245c-.834,1.918-3.115,2.317-4.94,3.187a.273.273,0,0,1-.3.05.535.535,0,0,1-.114-.029c-.934-.442-1.868-.884-2.794-1.326.029,1.383.014,2.773.014,4.185v.806q18.8-10.993,37.6-21.978,10.672-6.234,21.336-12.475m10.066-36.157c-.328-.613-.656-1.233-.977-1.853-.071-.135-.349-.535-.328-.613a7.787,7.787,0,0,0-1.226-.421l-6.908-2.438q-24.252-8.576-48.5-17.145-15.569-5.5-31.131-11c.392.763.784,1.526,1.183,2.281.556.2,1.1.4,1.661.592.62.221,1.233.442,1.853.656q13.431,4.769,26.854,9.531,14.136,5.015,28.287,10.037l29.235,10.372m-6.772,32.194-3.764-31.317c-1.29-.456-2.588-.92-3.878-1.376l4.063,35.3Zm-4.27,2.816-4.12-35.772c-1.048-.378-2.1-.749-3.151-1.119l4.163,36.314Zm-4.113-3.108-3.907-34.047q-5.614-2-11.228-3.985-8.458,19.323-16.917,38.659-5.218,11.934-10.444,23.86,11.185-6.437,22.356-12.882,10.073-5.806,20.139-11.606M115.271,117.1q.791-1.807,1.583-3.6c-.513-.185-1.034-.371-1.554-.556l-1.091-.385q-8.48,19.109-16.967,38.217L81.715,185.739c.92.435,1.832.87,2.745,1.3q2.812-6.362,5.61-12.732,12.6-28.6,25.2-57.216M80.967,262.31a16.024,16.024,0,0,0,0-3.65v-70.3c0-1.027.014-2.053,0-3.073-.057-5.4-2.353-9.588-5.639-13.652a17.264,17.264,0,0,1-3.778,3.008,16.847,16.847,0,0,1,3.9,7.378c.784,3.507.385,7.478.385,11.035v63.382c0,1.5-.057,3.008,0,4.5a2.84,2.84,0,0,0,.734,2.189c1.176,1.1,3.956.884,4.4-.813M76.8,166.67v-2.124c-3.351,6.694-18.214,11.748-36,11.748s-32.643-5.054-36-11.748v2.124c0,7.663,16.154,13.9,36,13.9s36-6.238,36-13.9m-1.675,33.213v-3.735c-1.326.777-2.659,1.554-3.985,2.331a18.1,18.1,0,0,1-3.13,1.9v3.657a37.062,37.062,0,0,1,4.17-2.4l2.944-1.747m0-4.562v-6.9q-6.983,4.021-13.972,8.056c1.775.92,3.55,1.832,5.325,2.752.349.178.7.4,1.062.549a1.622,1.622,0,0,0,.185-.128,38.4,38.4,0,0,1,5.268-3.08c.713-.413,1.419-.827,2.132-1.248M67.294,204.3v-3.864a9.07,9.07,0,0,1-1.982-1.005q-2.267-1.166-4.541-2.345c-.007.071-.014.143-.014.214v1.69a8.232,8.232,0,0,0-.007,1.568c.029.014.05.029.093.05,1.782,1.219,3.821,2.167,5.7,3.229.235.135.492.321.756.463m9.5-42.616c0-7.663-16.147-13.9-36-13.9s-36,6.238-36,13.9,16.154,13.9,36,13.9,36-6.238,36-13.9m-24.83,77.183V180.592c-1.7.214-3.443.385-5.233.5V238.9a2.035,2.035,0,0,0,2.032,2.032h1.141a2.067,2.067,0,0,0,2.06-2.067m-9.973,47.171V181.284H36.761V286.063a2.035,2.035,0,0,0,2.032,2.032h1.141a2.061,2.061,0,0,0,2.06-2.06M6.015,185.761a16.765,16.765,0,0,1,4.2-11.021A17.782,17.782,0,0,1,6.4,171.774a27.663,27.663,0,0,0-3.536,5.061C.554,181.476.875,186.4.875,191.385V261a7.8,7.8,0,0,0,0,1.29c.314,1.69,2.737,1.8,3.928,1.1,1.5-.855,1.212-2.631,1.212-4.1V189.667c0-1.3-.007-2.6,0-3.907" transform="translate(0 0)"/>
    <path id="Trazado_659907" data-name="Trazado 659907" d="M370.33,43.435c.064.214.107.649.185.677a8.122,8.122,0,0,1-.905,1.183q-2.417,3.219-4.848,6.43-9.25,12.254-18.492,24.509-11.955,15.847-23.91,31.688l-12.682,16.81c-.185.221-.364.478-.57.749q-3.989,5.293-7.977,10.579c-.314.413-.627.827-.941,1.248q-6.459,8.544-12.9,17.1c-.185.242-.378.485-.563.727q-.545-1.743-1.076-3.486l8.277-10.971q10.094-13.377,20.2-26.762,12.158-16.125,24.331-32.251,10.522-13.933,21.037-27.881,3.475-4.609,6.943-9.2l2.189-2.894c.235-.321.585-.677.855-1.041.285.927.57,1.861.855,2.787" transform="translate(-82.015 -11.671)" fill="#4d636e"/>
    <path id="Trazado_659908" data-name="Trazado 659908" d="M357.441,37.868,349.4,48.519Q339.3,61.9,329.2,75.28q-12.158,16.125-24.331,32.251-10.511,13.933-21.037,27.881-3.475,4.6-6.943,9.2c-.727.962-1.454,1.932-2.181,2.894a9.036,9.036,0,0,0-1.1,1.447q-7.688-2.727-15.363-5.446-6.352-2.256-12.7-4.505l9.916-12.718c-.086.506-.171,1.012-.235,1.518-.364,2.809,3.044,2.866,3.643.257.627-2.759,1.191-5.539,1.711-8.334l67.681-86.75,16.453,2.759q4.106.684,8.212,1.376a26.255,26.255,0,0,0,4.491.749c.007,0,.014.007.021.007M287.514,107.8c0-.827.114-1.782.05-2.638a.305.305,0,0,0-.043-.157V105a.343.343,0,0,0-.064-.078.086.086,0,0,0-.036-.036.4.4,0,0,0-.121-.064c-.15-.043-.3-.086-.456-.114a30.789,30.789,0,0,1-3.785-.706c-.064-.021-.135-.05-.2-.078l-.463-.192a3.85,3.85,0,0,0-1.975-.506.037.037,0,0,0-.029.014.194.194,0,0,0-.064,0c-.107.029-.207.064-.314.093a4.483,4.483,0,0,0-.891.335,10.243,10.243,0,0,0-2.666,1.761,6.222,6.222,0,0,0-1.747,2.039,2.191,2.191,0,0,0-.121,1.49c.078.72-.249,1.561-.107,2.224.328,1.547,3.151,1.718,4.384,2,1.732.4,4.22,1.191,5.867.086a2.707,2.707,0,0,0,1.1-1.583,8.019,8.019,0,0,1,.92-2.01,6.8,6.8,0,0,0,.6-.741,2.065,2.065,0,0,0,.157-1.126" transform="translate(-70.502 -9.469)" fill="#a0acb2"/>
    <path id="Trazado_659909" data-name="Trazado 659909" d="M347.9,145.657c1.5-.6,2.987-1.191,4.477-1.789-.007.15-.021.292-.021.406V147.9c0,.356-.078.613-.043.7-.2.071-.4.15-.6.228q-11.174,4.277-22.342,8.562c-1.034.392-2.067.791-3.1,1.183l-3.956,1.518-4.242,1.625q-4.416,1.7-8.84,3.386,2.171-2.866,4.334-5.739,17.163-6.854,34.332-13.7" transform="translate(-88.788 -41.307)" fill="#5a6e79"/>
    <path id="Trazado_659910" data-name="Trazado 659910" d="M353.786,142.756q-16.778,6.694-33.548,13.388-1.893.749-3.771,1.5,1.444-1.914,2.887-3.821,13.506-5.218,27-10.444c1.561.627,3.835,1.076,4.605-.77a.423.423,0,0,0,.029-.057c0-.007.007-.014.007-.029a.261.261,0,0,0,.014-.178v-.642a15.459,15.459,0,0,1,1.825.713c.314.107.627.221.948.335" transform="translate(-90.864 -40.687)" fill="#84939b"/>
    <path id="Trazado_659911" data-name="Trazado 659911" d="M362.534,131.048c.014.948-.071,1.925-.071,2.844q0,2.705-.007,5.411c-.456,1.148-2.288.984-3.2.535-.585-.292-.278-.014-.385-.556a13.733,13.733,0,0,1,0-2.481c-.007-1.568-.007-3.144-.007-4.712,0-.328-.021-.663-.036-1.005a9.487,9.487,0,0,0,1.1.007c.87.021,1.739,0,2.609-.043" transform="translate(-103.02 -37.627)" fill="#5c717b"/>
    <path id="Trazado_659912" data-name="Trazado 659912" d="M362.47,128.814c.021.143.021.285.029.428-.585.029-1.176.05-1.768.05a9.63,9.63,0,0,1-1.868-.007.515.515,0,0,0-.036-.064,6.463,6.463,0,0,1,.05-.649c.171-1.155.335-1.29,1.283-1.29a6.409,6.409,0,0,1,1.333,0c.107.021.349-.064.449,0,.3.178.478,1.155.528,1.533" transform="translate(-103.027 -36.533)" fill="#5c717b"/>
    <path id="Trazado_659913" data-name="Trazado 659913" d="M276.137,23.669l-66.59,85.36c.855-4.619,1.633-9.26,2.5-13.851.007-.021,0-.029,0-.043a.167.167,0,0,0,.014-.057q.086-3.379.171-6.758a.359.359,0,0,0-.663-.178q-1.508,3.058-3.008,6.117c-.007.007-.007.007-.007.014a.223.223,0,0,0-.036.071q-1.561,8.244-3.13,16.489c-.3,1.575-.656,3.172-.97,4.762l-10.9,13.972-22.67-8.041c-.72-1.411-1.112-3.144-2.652-3.693-1.7-.6-3.4-1.2-5.1-1.8q-10.212-3.6-20.431-7.221Q117.4,99.879,92.121,90.95q-5.978-2.107-11.969-4.227c-.314-.114-.535.264-.4.52.406.8.82,1.6,1.233,2.388q-4.17-1.476-8.348-2.958c-1.333-.478-2.673-.948-4.006-1.426a13.718,13.718,0,0,0-1.825-.72Q86.675,60.564,107.3,37.221c10.13-11.477,20.367-22.876,31.1-33.8.663-.67,1.747-2.281,2.417-2.4a4.943,4.943,0,0,1,1.347.228q2.951.492,5.9.991l52.789,8.833Q234.426,16.69,268,22.307q4.063.674,8.134,1.362M205.455,87.044c.2-.3-.192-.67-.485-.492q-2.909,1.786-5.81,3.564c-.014.007-.014.021-.029.029a.149.149,0,0,0-.043.029q-5.721,6.138-11.442,12.283c-1.789,1.918-3.75,3.764-5.411,5.8-1.8,2.2,1.069,4.014,2.958,2.132,5.689-5.66,10.985-11.784,16.453-17.651a.149.149,0,0,0,.029-.043c.007-.014.021-.021.029-.029q1.871-2.812,3.75-5.625M192.088,72.252a.36.36,0,0,0-.128-.492,71.812,71.812,0,0,0-6.772-2.823c1.618-2.139,3.165-4.32,4.584-6.58a.367.367,0,0,0-.128-.492c-7.856-3.785-16.332-5.789-24.659-8.248a.34.34,0,0,0-.342.093q-1.732,1.925-3.457,3.864c-4.477-1.426-9.032-2.623-13.545-3.956a.356.356,0,0,0-.349.093l-28.03,31.345q-2.021,2.246-4.028,4.505a.336.336,0,0,0-.043.064.359.359,0,0,0-.007.349.414.414,0,0,0,.121.128.276.276,0,0,0,.078.043c0,.007,0,.007.007.007q5.539,2.021,11.092,4c3.308,1.176,6.616,2.452,9.966,3.572-.52.577-1.034,1.155-1.547,1.732-.021.014-.029.043-.043.064a.345.345,0,0,0-.007.342.277.277,0,0,0,.121.135.237.237,0,0,0,.071.043c.007.007.007.007.014.007q5.539,2.021,11.092,3.992c4.726,1.69,9.46,3.572,14.3,4.912.82.228,1.041.25,1.633-.349,1.262-1.269,2.438-2.645,3.636-3.978q6.694-7.464,13.124-15.142c4.634-5.525,9.4-11.114,13.245-17.23M185.345,24.51a.321.321,0,0,0-.064-.392l-4.9-4.9a.355.355,0,0,0-.342-.093q-9.485,2.759-19.005,5.339a.354.354,0,0,0-.228.057q-1.957.535-3.928,1.062c-.007,0-.014-.007-.021-.007a.308.308,0,0,0-.342.107q-1.935.513-3.857,1.019c-.014-.007-.036-.014-.05-.021a.328.328,0,0,0-.371.135q-1.914.5-3.828.991a.106.106,0,0,1-.05-.021.348.348,0,0,0-.371.135c-1.283.328-2.566.663-3.85.991a.054.054,0,0,0-.029-.014.331.331,0,0,0-.349.107q-1.978.5-3.956,1a.384.384,0,0,0-.242.057Q131.3,32.138,123,34.084a.355.355,0,0,0-.157.592c.813.82,1.632,1.632,2.445,2.452.663.663,1.6,2.025,2.452,2.445.649.321,1.725-.235,2.4-.392,1.59-.371,3.187-.756,4.776-1.133q5.122-1.23,10.23-2.509,20.092-5.036,39.978-10.822a.309.309,0,0,0,.221-.207M118.719,55.093c.2-.3-.192-.67-.485-.492q-2.909,1.786-5.81,3.564c-.014.007-.014.021-.029.029s-.029.014-.043.029Q106.632,64.36,100.911,70.5c-1.789,1.918-3.75,3.764-5.411,5.8-1.8,2.2,1.069,4.014,2.958,2.132,5.689-5.66,10.985-11.784,16.453-17.651a.149.149,0,0,0,.029-.043c.007-.014.021-.021.029-.029q1.871-2.812,3.75-5.625" transform="translate(-19.182 -0.288)" fill="#fefcf2"/>
    <path id="Trazado_659914" data-name="Trazado 659914" d="M223.785,95.372c0,.014.007.021,0,.043-.87,4.591-1.647,9.232-2.5,13.851l66.59-85.36q-4.063-.684-8.134-1.362Q246.162,16.92,212.586,11.3L159.8,2.47q-1.909-.325-3.818-.641A49.149,49.149,0,0,0,162.061,5.2c11.452,5.32,24.208,6.64,36.318,9.778,5.9,1.528,11.835,2.914,17.726,4.471,7.648,2.02,15.474,4.263,22.486,8,4.1,2.187,10.249,6.21,8.553,11.756-1.07,3.5-4.833,5.555-7.852,7.121-3.794,1.968-9.058,3.512-11.254,7.484-2.429,4.394,1.223,9.527-.987,14.131-1.91,3.98-6.387,6.042-10.233,7.665-7.11,3-14.26,5.917-21.536,8.465-1.557,1.9-3.137,3.778-4.7,5.646q-6.427,7.678-13.124,15.142c-1.2,1.333-2.374,2.709-3.636,3.978-.592.6-.813.577-1.632.349-4.84-1.34-9.574-3.222-14.3-4.912q-5.56-1.978-11.092-3.992c-.007,0-.007,0-.014-.007a.237.237,0,0,1-.071-.043.277.277,0,0,1-.121-.135.345.345,0,0,1,.007-.342c.014-.021.021-.05.043-.064.513-.577,1.027-1.155,1.547-1.732-3.351-1.119-6.658-2.4-9.966-3.572-.622-.223-1.243-.449-1.864-.672l-.245,0a268.29,268.29,0,0,1-28.427-1.181q23.365,8.253,46.719,16.506,10.212,3.614,20.431,7.221c1.7.606,3.4,1.2,5.1,1.8,1.54.549,1.932,2.281,2.652,3.693l22.67,8.041,10.9-13.972c.314-1.59.67-3.187.97-4.762q1.572-8.244,3.13-16.489a.223.223,0,0,1,.036-.071c0-.007,0-.007.007-.014q1.5-3.058,3.008-6.117a.359.359,0,0,1,.663.178l-.171,6.758a.167.167,0,0,1-.014.057m-6.594-8.091q-1.871,2.812-3.75,5.625c-.007.007-.021.014-.029.029a.149.149,0,0,1-.029.043c-5.468,5.867-10.764,11.991-16.453,17.651-1.889,1.882-4.755.071-2.958-2.132,1.661-2.039,3.621-3.885,5.411-5.8q5.721-6.149,11.442-12.283a.149.149,0,0,1,.043-.029c.014-.007.014-.021.029-.029q2.9-1.775,5.81-3.564c.292-.178.684.192.485.492" transform="translate(-30.918 -0.525)" fill="#fefae5"/>
    <path id="Trazado_659915" data-name="Trazado 659915" d="M313.351,301.546q5.871-3.432,11.734-6.858a10.751,10.751,0,0,0,0,1.975,6.107,6.107,0,0,0,.007,1.019,2.925,2.925,0,0,1-.3.15c-.606.285-1.176.706-1.754,1.048q-8.726,5.186-17.458,10.372l-51.32,30.511-8.533,5.069a35.936,35.936,0,0,0-4.17,2.4v-3.65a18.648,18.648,0,0,0,3.137-1.9l18.628-10.886q25.011-14.618,50.03-29.242" transform="translate(-69.356 -84.611)" fill="#5a6e79"/>
    <path id="Trazado_659916" data-name="Trazado 659916" d="M353.719,293.158q-5.2,3.037-10.387,6.067l-.157-.271-.029-.278,4.242-3.087-.535-4.441,6.865,2.01" transform="translate(-98.524 -83.595)" fill="#84939b"/>
    <path id="Trazado_659917" data-name="Trazado 659917" d="M330.979,165.888,342.193,259.3l-3.572,2.6-7.977-69.228a28.057,28.057,0,0,0-.563-4.933l-2.374-20.6Z" transform="translate(-94.091 -47.63)" fill="#5a6e79"/>
    <path id="Trazado_659918" data-name="Trazado 659918" d="M322.081,300.8l.157.271q-10.661,6.234-21.329,12.468-15.323,8.95-30.647,17.915l-.585-1a3.873,3.873,0,0,0,1.768-1.8q1.358-3.122,2.73-6.252l41.04-23.653c.677-.392,1.347-.777,2.025-1.162l.271,2.36,4.249.791Z" transform="translate(-77.43 -85.444)" fill="#84939b"/>
    <path id="Trazado_659919" data-name="Trazado 659919" d="M330.2,206.338l7.756,67.389-3.1-.577-7.036-61.372c.791-1.811,1.59-3.629,2.381-5.439" transform="translate(-94.123 -59.244)" fill="#84939b"/>
    <path id="Trazado_659920" data-name="Trazado 659920" d="M312.134,201.52c.021.164.121,1.283.178.941a4.013,4.013,0,0,1-.378.863q-1.315,2.994-2.623,6-5.325,12.18-10.665,24.366-12.49,28.54-24.972,57.073-1.807,4.117-3.614,8.248a7.832,7.832,0,0,1-.691,1.583.493.493,0,0,1-.021.057,5.055,5.055,0,0,0-1.041.463c-.806.385-1.611.77-2.41,1.155q7.71-17.515,15.427-35.031,12.6-28.615,25.2-57.216,2.609-5.935,5.225-11.869c.05.463.107.934.164,1.4.071.663.15,1.319.221,1.975" transform="translate(-76.344 -56.892)" fill="#5a6e79"/>
    <path id="Trazado_659921" data-name="Trazado 659921" d="M325.592,168.008l2.274,19.79h-3l-2.139-18.685Z" transform="translate(-92.661 -48.239)" fill="#84939b"/>
    <path id="Trazado_659922" data-name="Trazado 659922" d="M309.943,196.768q-7.8,17.708-15.6,35.409-12.6,28.615-25.193,57.216-2.812,6.373-5.61,12.732c-.913-.435-1.832-.863-2.745-1.3l15.527-34.967q12.5-28.166,25-56.317,2.834-6.395,5.674-12.775Z" transform="translate(-74.88 -56.496)" fill="#84939b"/>
    <path id="Trazado_659923" data-name="Trazado 659923" d="M299.2,133.451c.064.855-.05,1.811-.05,2.638a2.065,2.065,0,0,1-.157,1.126,6.8,6.8,0,0,1-.6.741,8.019,8.019,0,0,0-.92,2.01,2.707,2.707,0,0,1-1.1,1.583c-1.647,1.1-4.135.314-5.867-.086-1.233-.278-4.056-.449-4.384-2-.143-.663.185-1.5.107-2.224a2.191,2.191,0,0,1,.121-1.49,6.222,6.222,0,0,1,1.747-2.039,10.242,10.242,0,0,1,2.666-1.761,4.483,4.483,0,0,1,.891-.335c.107-.029.207-.064.314-.093a.194.194,0,0,1,.064,0,.037.037,0,0,1,.029-.014,3.849,3.849,0,0,1,1.975.506l.463.192c.064.029.135.057.2.078a30.784,30.784,0,0,0,3.785.706c.157.029.307.071.456.114a.4.4,0,0,1,.121.064.086.086,0,0,1,.036.036.343.343,0,0,1,.064.078v.007a.305.305,0,0,1,.043.157m-.813,2.823c.029-.349.057-.727.078-1.112a6.393,6.393,0,0,0-.934,1.675,2.891,2.891,0,0,1-1.162,1.9,3.254,3.254,0,0,1-.813.378c.029.242.057.485.078.727.057.456-.663.456-.713,0-.021-.185-.036-.378-.057-.57-2.2.321-5.04-.741-6.815-1.269a5.113,5.113,0,0,1-1.126-.463c.014.321.036.642.05.977.036.855.1,1.133.962,1.518a14.664,14.664,0,0,0,2.752.741,22.53,22.53,0,0,0,2.752.513,3.624,3.624,0,0,0,2.31-.307c.912-.513.7-.642,1.141-1.875.342-.955,1.433-1.968,1.5-2.837m-.813-1.3c.585-.991.8-1.255.135-1.412-.421-.078-.848-.128-1.276-.185a9.317,9.317,0,0,1-1.932-.4c-.05-.021-.107-.043-.164-.064-.007-.007-.021-.007-.029-.014-1.412-.535-2.16-.877-3.564-.128a11.915,11.915,0,0,0-2.509,1.782c1.012-.043,2.017-.107,3.023-.228.456-.057.449.656,0,.713a36.251,36.251,0,0,1-3.721.257c-.007.014-.021.021-.029.029a2.279,2.279,0,0,0-.285.435c1.583-.143,3.165-.321,4.734-.556.449-.064.642.62.192.691-1.682.25-3.372.442-5.069.592.235.884,1.818,1.034,2.688,1.255a20.149,20.149,0,0,0,4.249.813c1.8.05,2.324-.649,2.859-2.16a5.938,5.938,0,0,1,.157-.613c.164-.321.371-.513.542-.806" transform="translate(-82.141 -37.756)"/>
    <path id="Trazado_659924" data-name="Trazado 659924" d="M298.809,136.638c-.021.385-.05.763-.078,1.112-.064.87-1.155,1.882-1.5,2.837-.442,1.233-.228,1.362-1.141,1.875a3.624,3.624,0,0,1-2.31.307,22.53,22.53,0,0,1-2.752-.513,14.662,14.662,0,0,1-2.752-.741c-.863-.385-.927-.663-.962-1.518-.014-.335-.036-.656-.05-.977a5.113,5.113,0,0,0,1.126.463c1.775.528,4.619,1.59,6.815,1.269.021.192.036.385.057.57.05.456.77.456.713,0-.021-.242-.05-.485-.078-.727a3.254,3.254,0,0,0,.813-.378,2.891,2.891,0,0,0,1.162-1.9,6.392,6.392,0,0,1,.934-1.675" transform="translate(-82.48 -39.232)" fill="#f7b6af"/>
    <path id="Trazado_659925" data-name="Trazado 659925" d="M298.116,133.905c.663.157.449.421-.135,1.412-.171.292-.378.485-.542.806a5.956,5.956,0,0,0-.157.613c-.535,1.511-1.062,2.21-2.859,2.16a20.148,20.148,0,0,1-4.249-.813c-.87-.221-2.452-.371-2.688-1.255,1.7-.15,3.386-.342,5.069-.592.449-.071.257-.756-.192-.691-1.568.235-3.151.413-4.734.556a2.277,2.277,0,0,1,.285-.435c.007-.007.021-.014.029-.029a36.258,36.258,0,0,0,3.721-.257c.449-.057.456-.77,0-.713-1.005.121-2.01.185-3.023.228a11.916,11.916,0,0,1,2.509-1.782c1.4-.749,2.153-.406,3.564.128.007.007.021.007.029.014.057.021.114.043.164.064a9.315,9.315,0,0,0,1.932.4c.428.057.855.107,1.276.185" transform="translate(-82.543 -38.095)" fill="#f8c2bb"/>
    <path id="Trazado_659926" data-name="Trazado 659926" d="M273.481,192.674q.524,1.711,1.062,3.436c-.463-.214-1.069-.335-1.5-.485l-3.122-1.112q-11.3-4.01-22.613-8.027l-1.647-3.678q4.395,1.551,8.783,3.115l12.846,4.555c1.333.478,2.673.948,4.006,1.426a11.97,11.97,0,0,0,2.11.741c.021.007.05.021.078.029" transform="translate(-70.533 -52.488)" fill="#3d5662"/>
    <path id="Trazado_659927" data-name="Trazado 659927" d="M270.731,341.927c.014-.007.007.007-.014.036a.054.054,0,0,0,.014-.036" transform="translate(-77.728 -98.174)" fill="#fff"/>
    <path id="Trazado_659928" data-name="Trazado 659928" d="M258.841,343.055l.585,1L243.778,353.2a38.57,38.57,0,0,0-5.261,3.073,1.127,1.127,0,0,1-.192.128c-.356-.15-.706-.364-1.055-.549-1.775-.913-3.557-1.832-5.332-2.752q10.105-5.817,20.2-11.641c-.135.3-.271.6-.4.905a.35.35,0,0,0,.128.485q1.69.8,3.386,1.6a.272.272,0,0,0,.107.036.286.286,0,0,0,.307-.057c1.027-.485,2.2-.827,3.172-1.376" transform="translate(-66.594 -98.04)" fill="#84939b"/>
    <path id="Trazado_659929" data-name="Trazado 659929" d="M268.91,125.748q-.064,2.352-.121,4.705L266.807,130c.7-1.419,1.4-2.837,2.1-4.256" transform="translate(-76.606 -36.105)" fill="#cbc399"/>
    <path id="Trazado_659930" data-name="Trazado 659930" d="M268.017,133.279c-.3,1.59-.606,3.187-.905,4.776-.071.385-.15.777-.221,1.162-.043.228-.086.449-.128.677-.071.364-.135.734-.207,1.1-.228,1.2-.456,2.388-.684,3.586-.071.392-.15.777-.221,1.169-.064.349-.135.706-.2,1.055-.1.535-.207,1.062-.307,1.6l-.777,1c.221-1.262.456-2.581.7-3.935q1.091-6.181,2.2-12.354l.756.171" transform="translate(-75.905 -38.218)" fill="#ffdc46"/>
    <path id="Trazado_659931" data-name="Trazado 659931" d="M267.907,141.21c.071-.385.15-.777.221-1.162-.071.385-.143.77-.221,1.162" transform="translate(-76.922 -40.211)" fill="#fff"/>
    <path id="Trazado_659932" data-name="Trazado 659932" d="M267.437,143.726c.071-.364.135-.734.207-1.1-.071.364-.135.734-.207,1.1" transform="translate(-76.787 -40.951)" fill="#fff"/>
    <path id="Trazado_659933" data-name="Trazado 659933" d="M265.7,132.825c-.171.977-.349,1.96-.52,2.937-.071.421-.15.841-.221,1.255l-.193,1.069c-.05.292-.1.585-.157.877-.1.585-.207,1.162-.307,1.739-.057.314-.107.62-.164.927q-.791,4.427-1.575,8.847l-.007.007-1.19,1.526c.734-3.892,1.554-8.3,2.3-12.254.114-.6.228-1.2.342-1.8l1.005-5.282c.228.05.463.107.691.157" transform="translate(-75.044 -38.092)" fill="#ffdc46"/>
    <path id="Trazado_659934" data-name="Trazado 659934" d="M266.407,138.263c.071-.413.15-.834.221-1.255-.071.406-.15.827-.221,1.255" transform="translate(-76.491 -39.338)" fill="#fff"/>
    <path id="Trazado_659935" data-name="Trazado 659935" d="M266.167,150.367c.071-.392.15-.777.221-1.169-.071.392-.15.784-.221,1.169" transform="translate(-76.422 -42.838)" fill="#fff"/>
    <path id="Trazado_659936" data-name="Trazado 659936" d="M265.887,151.893c.064-.349.135-.706.2-1.055-.071.356-.135.706-.2,1.055" transform="translate(-76.342 -43.309)" fill="#fff"/>
    <path id="Trazado_659937" data-name="Trazado 659937" d="M265.917,141.145c.057-.292.107-.585.157-.877-.05.285-.1.577-.157.877" transform="translate(-76.35 -40.274)" fill="#fff"/>
    <path id="Trazado_659938" data-name="Trazado 659938" d="M265.257,144.865c.057-.307.107-.613.164-.927-.057.307-.114.62-.164.927" transform="translate(-76.161 -41.328)" fill="#fff"/>
    <path id="Trazado_659939" data-name="Trazado 659939" d="M264.258,155.556l.777-1c-.1.528-.2,1.041-.292,1.533l-.756.977c.086-.492.178-1,.271-1.511" transform="translate(-75.796 -44.377)" fill="#ffdc46"/>
    <path id="Trazado_659940" data-name="Trazado 659940" d="M264.357,154.38c.235-1.312.471-2.631.706-3.942-.242,1.354-.478,2.673-.7,3.935Z" transform="translate(-75.902 -43.194)" fill="#fff"/>
    <path id="Trazado_659941" data-name="Trazado 659941" d="M264.743,156.708c-.071.392-.143.777-.221,1.169l-.535-.192Z" transform="translate(-75.796 -44.994)" fill="#ffdc46"/>
    <path id="Trazado_659942" data-name="Trazado 659942" d="M264.338,158.27c-.114.613-.228,1.226-.349,1.839-.043.228-.078.456-.114.691-.171-.071-.349-.128-.528-.185.15-.848.3-1.69.456-2.538Z" transform="translate(-75.612 -45.387)" fill="#ffdc46"/>
    <path id="Trazado_659943" data-name="Trazado 659943" d="M261.307,154.919q1.166-6.159,2.338-12.311c-.741,3.956-1.561,8.362-2.3,12.254Z" transform="translate(-75.027 -40.946)" fill="#fff"/>
    <path id="Trazado_659944" data-name="Trazado 659944" d="M263,162.688c-.029.214-.071.428-.107.649a3.866,3.866,0,0,0-2.224-.392c.05-.257.1-.52.15-.777a6.972,6.972,0,0,1,2.181.52" transform="translate(-74.843 -46.562)" fill="#ffdc46"/>
    <path id="Trazado_659945" data-name="Trazado 659945" d="M262.541,164.6a6.389,6.389,0,0,1-.171.634c-.064.185-.021.449-.121.62-.356.656-2.039,1.3-2.288.271a5.217,5.217,0,0,1,.3-1.561c.014-.078.029-.164.043-.242.62-.435,1.561-.007,2.238.278" transform="translate(-74.635 -47.127)" fill="#e9502f"/>
    <path id="Trazado_659946" data-name="Trazado 659946" d="M261.292,159.184l1.19-1.526c-.086.513-.178,1.012-.264,1.5l-.82,1.055-.292-.05c.057-.321.121-.649.185-.977" transform="translate(-74.969 -45.267)" fill="#ffdc46"/>
    <path id="Trazado_659947" data-name="Trazado 659947" d="M262.337,159.758c-.064.385-.135.777-.207,1.162-.2-.043-.406-.078-.613-.107Z" transform="translate(-75.087 -45.87)" fill="#ffdc46"/>
    <path id="Trazado_659948" data-name="Trazado 659948" d="M251.232,120.989c.292-.178.684.192.485.492q-1.871,2.812-3.75,5.625c-.007.007-.021.014-.029.029a.149.149,0,0,1-.029.043c-5.468,5.867-10.764,11.991-16.453,17.651-1.889,1.882-4.755.071-2.958-2.132,1.661-2.039,3.621-3.885,5.411-5.8q5.721-6.149,11.442-12.283a.149.149,0,0,1,.043-.029c.014-.007.014-.021.029-.029q2.9-1.775,5.81-3.564m-3.629,5.375,2.609-3.914-4.042,2.481,1.433,1.433m-14.55,15.712q7.047-7.571,14.108-15.134c-.193-.178-.385-.349-.57-.528q-6.94,7.624-13.88,15.241c.121.135.228.278.342.421m13.031-16.168c-.093-.107-.185-.214-.271-.328-.064-.064-.128-.121-.185-.185a15.816,15.816,0,0,1-1.9,2q-6.106,6.555-12.226,13.117a7.492,7.492,0,0,1,.72.62q6.94-7.614,13.866-15.227m-13.53,16.7a.007.007,0,0,1,.007-.007,6.871,6.871,0,0,0-1.547-1.568c-.171.192-.349.378-.528.563a3.929,3.929,0,0,1,1.654,1.518c.164-.214.314-.4.413-.506m-1.825,1.953a3.218,3.218,0,0,0,.948-.877c-.442-.62-1.005-1.526-1.846-1.461a4.369,4.369,0,0,0-1.019,1.176c-.029.057-.128.093-.143.157-.328.984,1.511,1.233,2.06,1.005" transform="translate(-65.443 -34.725)"/>
    <path id="Trazado_659949" data-name="Trazado 659949" d="M257.559,123.058l-2.609,3.914-1.433-1.433,4.042-2.481" transform="translate(-72.79 -35.332)" fill="#cbc399"/>
    <path id="Trazado_659950" data-name="Trazado 659950" d="M249.087,129.146q-7.057,7.56-14.108,15.134c-.114-.143-.221-.285-.342-.421q6.94-7.624,13.88-15.241c.185.178.378.349.57.528" transform="translate(-67.369 -36.929)" fill="#ffdc46"/>
    <path id="Trazado_659951" data-name="Trazado 659951" d="M247.252,127.373c.086.114.178.221.271.328q-6.929,7.614-13.866,15.227a7.494,7.494,0,0,0-.72-.62q6.117-6.555,12.226-13.117a15.817,15.817,0,0,0,1.9-2c.057.064.121.121.185.185" transform="translate(-66.881 -36.518)" fill="#ffdc46"/>
    <path id="Trazado_659952" data-name="Trazado 659952" d="M193.339,164.232l1.647,3.686h-.007l-34.767-12.34q-18.938-6.715-37.882-13.445-16.478-5.838-32.956-11.691l-19.533-6.929a15.954,15.954,0,0,0-1.853-.663,1.668,1.668,0,0,1-.271-.086,9.47,9.47,0,0,1-.385-1.34c-.221-.706-.392-1.447-.663-2.132v-.014q7.41,2.641,14.835,5.268a.376.376,0,0,0,.107.036q13.495,4.791,27,9.581,5.133,1.818,10.265,3.643,4.6,1.636,9.182,3.258,15.74,5.593,31.474,11.171c1.782.634,3.564,1.262,5.339,1.9q14.243,5.047,28.472,10.1" transform="translate(-19.141 -34.247)" fill="#fdf5cb"/>
    <path id="Trazado_659953" data-name="Trazado 659953" d="M187.9,85.774c.029.014.05.021.057.036-.1,0-1.148-.335-1.084-.478a3.542,3.542,0,0,0-.442.513q-15.6,17.451-31.2,34.888,6.031,2.192,12.076,4.341c4.341,1.54,8.676,3.158,13.1,4.456.549.164.128.214.449-.043a12.386,12.386,0,0,0,1.183-1.262c1.49-1.618,2.951-3.258,4.413-4.9q6.7-7.549,13.16-15.32a148.166,148.166,0,0,0,11.121-14.6,106.129,106.129,0,0,0-16.61-5.867c-1.248-.356-2.5-.706-3.75-1.062a23.822,23.822,0,0,1-2.467-.7m-2.324-9.895c.029.014.05.021.057.036-.093,0-1.141-.335-1.076-.478a2.965,2.965,0,0,0-.449.52q-15.591,17.441-31.2,34.881c2.573.934,5.154,1.853,7.728,2.78q12.9-14.414,25.785-28.836a.37.37,0,0,1,.349-.086c5.732,1.69,11.534,3.172,17.159,5.161,1.575-2.06,3.087-4.17,4.47-6.352a105.617,105.617,0,0,0-16.61-5.867q-1.871-.535-3.75-1.055c-.806-.228-1.69-.4-2.467-.706m-17.344,0c.029.014.05.021.057.036-.093,0-1.141-.335-1.084-.478a3.237,3.237,0,0,0-.442.52q-15.6,17.441-31.2,34.881,6.031,2.192,12.076,4.341c2.93,1.048,5.867,2.117,8.825,3.108.642-.72,1.283-1.44,1.925-2.153.577-.649,1.155-1.3,1.732-1.939q-3.967-1.422-7.927-2.859a.007.007,0,0,1-.007-.007.425.425,0,0,1-.078-.043.324.324,0,0,1-.114-.128.342.342,0,0,1,.007-.349.29.29,0,0,1,.036-.064c1.34-1.5,2.688-3.008,4.028-4.505l24.067-26.911c-1.889-.592-3.785-1.148-5.689-1.69-1.248-.356-2.5-.706-3.75-1.055-.813-.228-1.69-.4-2.467-.706m43.193,17.066a.36.36,0,0,1,.128.492c-3.842,6.117-8.612,11.705-13.245,17.23q-6.427,7.678-13.124,15.142c-1.2,1.333-2.374,2.709-3.636,3.978-.592.6-.813.577-1.633.349-4.84-1.34-9.574-3.222-14.3-4.912q-5.56-1.978-11.092-3.992c-.007,0-.007,0-.014-.007a.237.237,0,0,1-.071-.043.277.277,0,0,1-.121-.135.345.345,0,0,1,.007-.342c.014-.021.021-.05.043-.064.513-.577,1.027-1.155,1.547-1.732-3.351-1.119-6.658-2.4-9.966-3.572q-5.55-1.989-11.092-4c-.007,0-.007,0-.007-.007a.276.276,0,0,1-.078-.043.415.415,0,0,1-.121-.128.359.359,0,0,1,.007-.349.336.336,0,0,1,.043-.064q2.01-2.256,4.028-4.505L166.758,74.9a.356.356,0,0,1,.349-.093c4.513,1.333,9.068,2.531,13.545,3.956q1.722-1.935,3.457-3.864a.34.34,0,0,1,.342-.093c8.326,2.459,16.8,4.463,24.659,8.248a.367.367,0,0,1,.128.492c-1.419,2.26-2.966,4.441-4.584,6.58a71.812,71.812,0,0,1,6.772,2.823" transform="translate(-38.649 -21.473)"/>
    <path id="Trazado_659954" data-name="Trazado 659954" d="M237.9,361.989v3.871c-.257-.143-.513-.328-.749-.463-1.882-1.069-3.914-2.017-5.7-3.229a.469.469,0,0,0-.093-.057,8.234,8.234,0,0,1,.014-1.568v-1.682c0-.071.007-.15.014-.221q2.267,1.176,4.541,2.352a8.549,8.549,0,0,0,1.975,1" transform="translate(-66.417 -102.972)" fill="#84939b"/>
    <path id="Trazado_659955" data-name="Trazado 659955" d="M196.265,90.056c-.007-.014-.029-.021-.057-.036a23.822,23.822,0,0,0,2.467.7c1.248.356,2.5.706,3.75,1.062a106.13,106.13,0,0,1,16.61,5.867,148.166,148.166,0,0,1-11.121,14.6q-6.437,7.785-13.16,15.32c-1.461,1.647-2.923,3.286-4.413,4.9a12.39,12.39,0,0,1-1.183,1.262c-.321.257.1.207-.449.043-4.42-1.3-8.754-2.916-13.1-4.456q-6.042-2.149-12.076-4.341,15.6-17.441,31.2-34.888a3.54,3.54,0,0,1,.442-.513c-.064.143.984.478,1.084.478" transform="translate(-46.955 -25.72)" fill="#eff8fd"/>
    <path id="Trazado_659956" data-name="Trazado 659956" d="M233.591,150.7a.007.007,0,0,0-.007.007c-.1.107-.25.292-.413.506a3.929,3.929,0,0,0-1.654-1.518c.178-.185.356-.371.528-.563a6.871,6.871,0,0,1,1.547,1.568" transform="translate(-66.473 -42.818)" fill="#ffdc46"/>
    <path id="Trazado_659957" data-name="Trazado 659957" d="M193.008,76.176c-.007-.014-.029-.021-.057-.036.777.307,1.661.478,2.467.706q1.882.524,3.75,1.055a105.619,105.619,0,0,1,16.61,5.867c-1.383,2.181-2.894,4.292-4.47,6.352-5.625-1.989-11.427-3.472-17.159-5.161a.37.37,0,0,0-.349.086q-12.885,14.425-25.785,28.836c-2.573-.927-5.154-1.846-7.728-2.78q15.6-17.441,31.2-34.881a2.965,2.965,0,0,1,.449-.52c-.064.143.984.478,1.076.478" transform="translate(-46.022 -21.734)" fill="#f0f8fd"/>
    <path id="Trazado_659958" data-name="Trazado 659958" d="M207.81,31.413a.321.321,0,0,1,.064.392.309.309,0,0,1-.221.207q-19.889,5.774-39.978,10.822-5.111,1.272-10.23,2.509c-1.59.378-3.187.763-4.776,1.133-.67.157-1.747.713-2.4.392-.855-.421-1.789-1.782-2.452-2.445-.813-.82-1.632-1.632-2.445-2.452a.355.355,0,0,1,.157-.592q8.3-1.946,16.56-4.021a.384.384,0,0,1,.242-.057q1.978-.492,3.956-1a.331.331,0,0,1,.349-.107.054.054,0,0,1,.029.014c1.283-.328,2.566-.663,3.85-.991a.348.348,0,0,1,.371-.135.106.106,0,0,0,.05.021q1.914-.492,3.828-.991a.328.328,0,0,1,.371-.135c.014.007.036.014.05.021q1.925-.5,3.857-1.019a.308.308,0,0,1,.342-.107c.007,0,.014.007.021.007q1.968-.524,3.928-1.062a.354.354,0,0,1,.228-.057q9.528-2.588,19.005-5.339a.355.355,0,0,1,.342.093l4.9,4.9m-.934.078c-.627-.634-1.262-1.269-1.9-1.9-.535-.535-1.076-1.069-1.611-1.611-.2-.2-.634-.841-.92-.92a11.44,11.44,0,0,0-1.34.5,8.2,8.2,0,0,1,.955.827l1.811,1.6c.342.307-.164.806-.506.506-.485-.428-.97-.855-1.447-1.283-.413-.364-.941-1.048-1.483-1.183a.312.312,0,0,1-.221-.171c-.613.178-1.226.356-1.846.528-.456.135-.912.264-1.369.392.292.221.556.492.813.72.6.535,1.2,1.069,1.811,1.6.342.307-.164.806-.506.5-.485-.428-.97-.855-1.447-1.283-.413-.356-.941-1.048-1.483-1.183a.261.261,0,0,1-.15-.086l-2.4.684c-.264.071-.535.143-.8.221.257.207.485.449.72.649.6.535,1.2,1.069,1.811,1.6.342.307-.164.806-.506.506-.485-.428-.97-.855-1.447-1.283-.413-.364-.941-1.048-1.483-1.183-.021-.007-.036-.021-.057-.029-1.069.3-2.146.6-3.222.891.228.2.442.421.656.606.6.535,1.2,1.069,1.811,1.6.342.3-.164.806-.506.5-.485-.428-.97-.855-1.447-1.283-.4-.349-.912-1.005-1.44-1.169-1.091.3-2.174.606-3.265.905.207.185.406.378.6.549.6.535,1.2,1.069,1.811,1.6.342.307-.164.806-.506.506-.485-.428-.97-.855-1.447-1.283a6.054,6.054,0,0,0-1.347-1.133c-1.1.3-2.217.592-3.329.891.192.171.385.364.57.528.6.535,1.2,1.069,1.811,1.6.342.3-.164.806-.506.5-.485-.428-.97-.855-1.447-1.283a6.8,6.8,0,0,0-1.3-1.119c-1.119.3-2.231.606-3.351.9.185.171.371.349.549.506.6.535,1.2,1.069,1.8,1.6.349.307-.157.806-.5.506l-1.454-1.283a7.014,7.014,0,0,0-1.262-1.1c-1.126.3-2.26.585-3.386.877.185.171.371.356.549.513.6.535,1.2,1.062,1.8,1.6.349.307-.157.806-.5.506l-1.454-1.283a7.029,7.029,0,0,0-1.269-1.1c-1.133.292-2.26.585-3.393.87.192.178.378.364.563.52.6.535,1.2,1.069,1.8,1.6.349.307-.157.806-.5.5-.485-.428-.97-.855-1.454-1.276a6.31,6.31,0,0,0-1.29-1.119c-1.133.285-2.267.577-3.4.855.207.185.4.378.592.542.6.535,1.2,1.069,1.8,1.6.349.307-.164.806-.506.506-.478-.428-.962-.855-1.447-1.283a5.788,5.788,0,0,0-1.354-1.141c-1.126.285-2.253.563-3.379.841.221.192.428.406.627.585.606.535,1.212,1.069,1.811,1.6.349.307-.164.806-.506.5-.478-.428-.962-.855-1.447-1.283-.4-.349-.912-1.012-1.44-1.169-1.119.278-2.231.556-3.351.827.242.2.463.435.684.627.606.535,1.212,1.069,1.811,1.6.349.307-.164.806-.506.506-.478-.428-.962-.855-1.447-1.283-.406-.364-.941-1.048-1.476-1.183a.187.187,0,0,1-.064-.036c-1.119.271-2.231.535-3.351.8.278.221.535.485.784.706.606.535,1.212,1.069,1.811,1.6.349.3-.164.806-.506.5-.478-.428-.962-.855-1.447-1.283-.406-.364-.941-1.048-1.476-1.183a.364.364,0,0,1-.171-.1l-2.951.706,1.875,1.875c.549.549,1.754,2.3,2.531,2.531a16.024,16.024,0,0,0,1.739-.535c.8-.185,1.6-.378,2.4-.57,1.59-.378,3.187-.756,4.776-1.148,3.179-.77,6.366-1.561,9.538-2.36q18.938-4.78,37.69-10.223" transform="translate(-41.711 -7.583)"/>
    <path id="Trazado_659959" data-name="Trazado 659959" d="M231.96,152.258a3.218,3.218,0,0,1-.948.877c-.549.228-2.388-.021-2.06-1.005.014-.064.114-.1.143-.157a4.369,4.369,0,0,1,1.019-1.176c.841-.064,1.4.841,1.846,1.461" transform="translate(-65.725 -43.296)" fill="#e9502f"/>
    <path id="Trazado_659960" data-name="Trazado 659960" d="M205.406,29.848c.634.634,1.269,1.269,1.9,1.9q-18.756,5.432-37.69,10.223c-3.172.8-6.359,1.59-9.538,2.36-1.59.392-3.187.77-4.776,1.148-.8.192-1.6.385-2.4.57a16.026,16.026,0,0,1-1.739.535c-.777-.235-1.982-1.982-2.531-2.531l-1.875-1.875,2.951-.706a.364.364,0,0,0,.171.1c.535.135,1.069.82,1.476,1.183.485.428.97.855,1.447,1.283.342.307.855-.2.506-.5-.6-.535-1.2-1.069-1.811-1.6-.249-.221-.506-.485-.784-.706,1.119-.264,2.231-.528,3.351-.8a.187.187,0,0,0,.064.036c.535.135,1.069.82,1.476,1.183.485.428.97.855,1.447,1.283.342.3.855-.2.506-.506-.6-.535-1.2-1.069-1.811-1.6-.221-.192-.442-.428-.684-.627,1.119-.271,2.231-.549,3.351-.827.528.157,1.041.82,1.44,1.169.485.428.97.855,1.447,1.283.342.307.855-.192.506-.5-.6-.535-1.2-1.069-1.811-1.6-.2-.178-.406-.392-.627-.585,1.126-.278,2.253-.556,3.379-.841a5.787,5.787,0,0,1,1.354,1.141c.485.428.97.855,1.447,1.283.342.3.855-.2.506-.506-.6-.535-1.2-1.069-1.8-1.6-.192-.164-.385-.356-.592-.542,1.133-.278,2.267-.57,3.4-.855a6.311,6.311,0,0,1,1.29,1.119c.485.421.97.848,1.454,1.276.342.307.848-.192.5-.5-.6-.535-1.2-1.069-1.8-1.6-.185-.157-.371-.342-.563-.52,1.133-.285,2.26-.577,3.393-.87a7.029,7.029,0,0,1,1.269,1.1l1.454,1.283c.342.3.848-.2.5-.506-.6-.535-1.2-1.062-1.8-1.6-.178-.157-.364-.342-.549-.513,1.126-.292,2.26-.577,3.386-.877a7.014,7.014,0,0,1,1.262,1.1L178.3,37.4c.342.3.848-.2.5-.506-.6-.535-1.2-1.069-1.8-1.6-.178-.157-.364-.335-.549-.506,1.119-.292,2.231-.6,3.351-.9A6.8,6.8,0,0,1,181.1,35c.478.428.962.855,1.447,1.283.342.307.848-.2.506-.5-.606-.535-1.212-1.069-1.811-1.6-.185-.164-.378-.356-.57-.528,1.112-.3,2.224-.592,3.329-.891a6.053,6.053,0,0,1,1.347,1.133c.478.428.962.855,1.447,1.283.342.3.848-.2.506-.506-.606-.535-1.212-1.069-1.811-1.6-.192-.171-.392-.364-.6-.549,1.091-.3,2.174-.606,3.265-.905.528.164,1.041.82,1.44,1.169.478.428.962.855,1.447,1.283.342.307.848-.2.506-.5-.606-.535-1.212-1.069-1.811-1.6-.214-.185-.428-.406-.656-.606,1.076-.292,2.153-.592,3.222-.891.021.007.036.021.057.029.542.135,1.069.82,1.483,1.183.478.428.962.855,1.447,1.283.342.3.848-.2.506-.506-.606-.535-1.212-1.069-1.811-1.6-.235-.2-.463-.442-.72-.649.264-.078.535-.15.8-.221l2.4-.684a.261.261,0,0,0,.15.086c.542.135,1.069.827,1.483,1.183.478.428.962.855,1.447,1.283.342.307.848-.192.506-.5-.606-.535-1.212-1.069-1.811-1.6-.257-.228-.52-.5-.813-.72.456-.128.912-.257,1.369-.392.62-.171,1.233-.349,1.846-.528a.312.312,0,0,0,.221.171c.542.135,1.069.82,1.483,1.183.478.428.962.855,1.447,1.283.342.3.848-.2.506-.506l-1.811-1.6a8.2,8.2,0,0,0-.955-.827,11.44,11.44,0,0,1,1.34-.5c.285.078.72.72.92.92.535.542,1.076,1.076,1.611,1.611" transform="translate(-42.137 -7.843)" fill="#58b99b"/>
    <path id="Trazado_659961" data-name="Trazado 659961" d="M172.691,219.356q5.871-3.422,11.734-6.858a11.5,11.5,0,0,0,.007,1.982,6.85,6.85,0,0,0,0,1.012,1.992,1.992,0,0,1-.292.157c-.606.285-1.183.7-1.754,1.041q-8.736,5.2-17.458,10.38L114.577,257v-3.671q4.042-2.353,8.084-4.719,25.011-14.628,50.03-29.249" transform="translate(-32.897 -61.012)" fill="#5a6e79"/>
    <path id="Trazado_659962" data-name="Trazado 659962" d="M207.549,210.971q-5.186,3.037-10.38,6.067l-.157-.271-.036-.271,4.242-3.087-.535-4.441q3.433,1.005,6.865,2" transform="translate(-56.556 -59.999)" fill="#84939b"/>
    <path id="Trazado_659963" data-name="Trazado 659963" d="M174.515,154.234c.321.62.649,1.24.977,1.853l-29.235-10.372q-14.147-5.015-28.287-10.037-13.431-4.769-26.854-9.531c-.62-.214-1.233-.435-1.853-.656-.556-.192-1.1-.392-1.661-.592-.4-.756-.791-1.518-1.183-2.281q15.569,5.507,31.131,11,24.252,8.576,48.5,17.145l6.908,2.438a7.787,7.787,0,0,1,1.226.421c-.021.078.257.478.328.613" transform="translate(-24.812 -35.206)" fill="#3d5662"/>
    <path id="Trazado_659964" data-name="Trazado 659964" d="M195.025,170.244l3.764,31.317-3.579,2.609-4.063-35.3c1.29.456,2.588.92,3.878,1.376" transform="translate(-54.882 -48.485)" fill="#5a6e79"/>
    <path id="Trazado_659965" data-name="Trazado 659965" d="M168.678,76.176c-.007-.014-.029-.021-.057-.036.777.307,1.654.478,2.467.706,1.248.349,2.5.7,3.75,1.055,1.9.542,3.8,1.1,5.689,1.69L156.459,106.5c-1.34,1.5-2.688,3-4.028,4.505a.29.29,0,0,0-.036.064.342.342,0,0,0-.007.349.324.324,0,0,0,.114.128.425.425,0,0,0,.078.043.007.007,0,0,0,.007.007q3.956,1.444,7.927,2.859c-.577.642-1.155,1.29-1.732,1.939-.642.713-1.283,1.433-1.925,2.153-2.958-.991-5.9-2.06-8.825-3.108q-6.052-2.149-12.076-4.341,15.591-17.441,31.2-34.881a3.236,3.236,0,0,1,.442-.52c-.057.143.991.478,1.084.478" transform="translate(-39.036 -21.734)" fill="#e9f6fc"/>
    <path id="Trazado_659966" data-name="Trazado 659966" d="M173.348,218.613l.157.271q-10.672,6.234-21.336,12.475-18.8,10.982-37.6,21.978v-.806c0-1.411.014-2.8-.014-4.185.927.442,1.861.884,2.794,1.326a.535.535,0,0,0,.114.029.273.273,0,0,0,.3-.05c1.825-.87,4.106-1.269,4.94-3.187l2.737-6.245q20.52-11.827,41.04-23.66c.67-.385,1.347-.77,2.017-1.162l.271,2.367,4.249.791Z" transform="translate(-32.892 -61.845)" fill="#84939b"/>
    <path id="Trazado_659967" data-name="Trazado 659967" d="M188.828,168.047l4.12,35.772-3.108-.577-4.163-36.314c1.048.371,2.1.741,3.151,1.119" transform="translate(-53.312 -47.928)" fill="#84939b"/>
    <path id="Trazado_659968" data-name="Trazado 659968" d="M154.1,160.315q-.813,1.85-1.618,3.7-12.49,28.54-24.979,57.066-1.8,4.128-3.607,8.248a7.72,7.72,0,0,1-.691,1.59c-.014.014-.014.036-.021.05,0-.086-.863.378-1.048.463-.806.385-1.6.777-2.41,1.162q7.71-17.515,15.427-35.038,8.373-19,16.746-38.018c.734.264,1.469.52,2.2.777" transform="translate(-34.376 -45.807)" fill="#5a6e79"/>
    <path id="Trazado_659969" data-name="Trazado 659969" d="M149.765,158.829q-.791,1.8-1.583,3.6-12.6,28.6-25.2,57.216-2.8,6.362-5.61,12.732c-.912-.435-1.825-.87-2.745-1.3l15.527-34.967q8.49-19.109,16.967-38.217l1.091.385c.52.185,1.041.371,1.554.556" transform="translate(-32.912 -45.333)" fill="#84939b"/>
    <path id="Trazado_659970" data-name="Trazado 659970" d="M129.562,76.169c.292-.178.684.192.485.492q-1.871,2.812-3.75,5.625c-.007.007-.021.014-.029.029a.149.149,0,0,1-.029.043c-5.468,5.867-10.764,11.991-16.453,17.651-1.889,1.882-4.755.071-2.958-2.132,1.661-2.039,3.621-3.885,5.411-5.8q5.721-6.149,11.442-12.283c.014-.014.029-.014.043-.029s.014-.021.029-.029q2.9-1.775,5.81-3.564m-3.629,5.375,2.609-3.914L124.5,80.111l1.433,1.433m-14.55,15.712q7.047-7.571,14.108-15.134c-.192-.178-.385-.349-.57-.528q-6.94,7.624-13.88,15.241c.121.135.235.278.342.421m13.031-16.168c-.093-.107-.185-.214-.271-.328-.064-.064-.128-.121-.185-.185a15.814,15.814,0,0,1-1.9,2q-6.106,6.555-12.226,13.117a6.717,6.717,0,0,1,.72.62q6.94-7.614,13.866-15.227m-13.53,16.7a.007.007,0,0,1,.007-.007,6.871,6.871,0,0,0-1.547-1.568c-.171.192-.349.378-.528.563a3.929,3.929,0,0,1,1.654,1.518c.164-.214.314-.4.413-.506m-1.825,1.953a3.316,3.316,0,0,0,.955-.877c-.449-.62-1.012-1.526-1.853-1.461a4.479,4.479,0,0,0-1.019,1.176c-.029.057-.128.093-.143.157-.328.984,1.511,1.233,2.06,1.005" transform="translate(-30.509 -21.856)"/>
    <path id="Trazado_659971" data-name="Trazado 659971" d="M135.889,78.238l-2.609,3.914-1.433-1.433Z" transform="translate(-37.856 -22.464)" fill="#cbc399"/>
    <path id="Trazado_659972" data-name="Trazado 659972" d="M127.417,84.326q-7.058,7.56-14.108,15.134c-.107-.143-.221-.285-.342-.421q6.94-7.624,13.88-15.241c.185.178.378.349.57.528" transform="translate(-32.435 -24.06)" fill="#3d5662"/>
    <path id="Trazado_659973" data-name="Trazado 659973" d="M125.582,82.553c.086.114.178.221.271.328q-6.929,7.614-13.866,15.227a6.717,6.717,0,0,0-.72-.62q6.117-6.555,12.226-13.117a15.814,15.814,0,0,0,1.9-2c.057.064.121.121.185.185" transform="translate(-31.947 -23.65)" fill="#3d5662"/>
    <path id="Trazado_659974" data-name="Trazado 659974" d="M109.784,327.786a16.024,16.024,0,0,1,0,3.65c-.442,1.7-3.222,1.91-4.4.813a2.84,2.84,0,0,1-.734-2.189c-.057-1.49,0-3,0-4.5V262.18c0-3.557.4-7.528-.385-11.035a16.847,16.847,0,0,0-3.9-7.378,17.264,17.264,0,0,0,3.778-3.008c3.286,4.063,5.582,8.248,5.639,13.652.014,1.019,0,2.046,0,3.073v70.3Z" transform="translate(-28.817 -69.127)" fill="#4f5f67"/>
    <path id="Trazado_659975" data-name="Trazado 659975" d="M111.921,105.876a.007.007,0,0,0-.007.007c-.1.107-.25.292-.413.506a3.929,3.929,0,0,0-1.654-1.518c.178-.185.356-.371.528-.563a6.871,6.871,0,0,1,1.547,1.568" transform="translate(-31.539 -29.949)" fill="#3d5662"/>
    <path id="Trazado_659976" data-name="Trazado 659976" d="M110.3,107.438a3.316,3.316,0,0,1-.955.877c-.549.228-2.388-.021-2.06-1.005.014-.064.114-.1.143-.157a4.479,4.479,0,0,1,1.019-1.176c.841-.064,1.4.841,1.853,1.461" transform="translate(-30.791 -30.427)" fill="#e9502f"/>
    <path id="Trazado_659977" data-name="Trazado 659977" d="M78.728,230.818v2.124c0,7.663-16.147,13.9-36,13.9s-36-6.238-36-13.9v-2.124c3.358,6.694,18.221,11.748,36,11.748s32.65-5.054,36-11.748" transform="translate(-1.931 -66.273)" fill="#233841"/>
    <path id="Trazado_659978" data-name="Trazado 659978" d="M102.512,275.148v3.735l-2.944,1.747a37.064,37.064,0,0,0-4.17,2.4v-3.657a18.1,18.1,0,0,0,3.13-1.9c1.326-.777,2.659-1.554,3.985-2.331" transform="translate(-27.39 -79.001)" fill="#5a6e79"/>
    <path id="Trazado_659979" data-name="Trazado 659979" d="M99.749,267.145v4.063c-.713.421-1.419.834-2.132,1.248a38.4,38.4,0,0,0-5.268,3.08,1.624,1.624,0,0,1-.185.128c-.364-.15-.713-.371-1.062-.549-1.775-.92-3.55-1.832-5.325-2.752q6.983-4.031,13.972-8.056Z" transform="translate(-24.628 -75.888)" fill="#84939b"/>
    <path id="Trazado_659980" data-name="Trazado 659980" d="M91.744,279.809v3.864c-.264-.143-.52-.328-.756-.463-1.875-1.062-3.914-2.01-5.7-3.229-.043-.021-.064-.036-.093-.05a8.232,8.232,0,0,1,.007-1.568v-1.69c0-.071.007-.143.014-.214q2.278,1.176,4.541,2.345a9.072,9.072,0,0,0,1.982,1.005" transform="translate(-24.45 -79.377)" fill="#84939b"/>
    <path id="Trazado_659981" data-name="Trazado 659981" d="M42.727,207.3c19.854,0,36,6.238,36,13.9s-16.147,13.9-36,13.9-36-6.238-36-13.9,16.154-13.9,36-13.9" transform="translate(-1.931 -59.519)" fill="#4f5f67"/>
    <path id="Trazado_659982" data-name="Trazado 659982" d="M70.79,253.328V311.6a2.067,2.067,0,0,1-2.06,2.067H67.589a2.035,2.035,0,0,1-2.032-2.032V253.827c1.789-.114,3.536-.285,5.233-.5" transform="translate(-18.823 -72.736)" fill="#4f5f67"/>
    <path id="Trazado_659983" data-name="Trazado 659983" d="M56.8,254.3V359.049a2.061,2.061,0,0,1-2.06,2.06H53.6a2.035,2.035,0,0,1-2.032-2.032V254.3Z" transform="translate(-14.806 -73.014)" fill="#4f5f67"/>
  </g>
</svg>
