<svg id="Grupo_952842" data-name="Grupo 952842" xmlns="http://www.w3.org/2000/svg" xmlns:xlink="http://www.w3.org/1999/xlink" width="312.172" height="303.037" viewBox="0 0 312.172 303.037">
  <defs>
    <clipPath id="clip-path">
      <rect id="Rectángulo_352878" data-name="Rectángulo 352878" width="312.172" height="303.037" fill="none"/>
    </clipPath>
    <clipPath id="clip-path-2">
      <rect id="Rectángulo_352825" data-name="Rectángulo 352825" width="312.172" height="303.038" fill="none"/>
    </clipPath>
    <clipPath id="clip-path-3">
      <path id="Trazado_659985" data-name="Trazado 659985" d="M1040.665,220.463c-51.137,48.8-64.788,56.918-61.729,61.948,5.943,9.773,63.27-11.342,101.378-30.865,31.3-16.034,57.961-35.262,55.172-41.189-1.093-2.323-6.505-2.166-11.7-2.008-4.955.15-9.716.3-10.362-1.7-1.774-5.483,31.183-15.709,30.485-26.817-.43-6.844-13.585-13.215-25.861-13.874-.7-.038-1.394-.056-2.08-.056-21.062,0-36.653,17.68-75.3,54.559" transform="translate(-978.531 -165.904)" fill="#00cca7"/>
    </clipPath>
    <clipPath id="clip-path-5">
      <rect id="Rectángulo_352827" data-name="Rectángulo 352827" width="157.33" height="118.249" fill="none"/>
    </clipPath>
    <clipPath id="clip-path-6">
      <path id="Trazado_659987" data-name="Trazado 659987" d="M578.619,0c-10.3.016-21.96,8.6-32.245,17.18-11.6,9.681-21.45,19.361-25.6,16.747-4.309-2.711,3.4-14.941-2.185-20.189-7.632-7.176-33.092,5.3-39.244,8.686-47.548,26.137-50.249,118.169-50.248,147.869,52.386-21.231,90.185-46.064,114.9-64.828,55.612-42.218,58.085-63.647,57.7-73.1-.51-12.6-7.107-28.989-19.054-31.9A16.805,16.805,0,0,0,578.679,0Z" transform="translate(-429.092 0.003)" fill="#800070"/>
    </clipPath>
    <clipPath id="clip-path-8">
      <rect id="Rectángulo_352830" data-name="Rectángulo 352830" width="156.606" height="170.293" fill="#800070"/>
    </clipPath>
    <clipPath id="clip-path-9">
      <path id="Trazado_659989" data-name="Trazado 659989" d="M1160.737,2254.763l-6,29.4c-.841,4.117,2.525,8.248,6.4,9.764l20.406,7.984a26.534,26.534,0,0,0,11.93,1.729l43.124-3.689a2.675,2.675,0,0,0,2.419-2.37c.147-1.271,1.03-2.7-.172-3.1l-15.958-4.521a11.568,11.568,0,0,1-7.671-8.71l-5.7-28.219Z" transform="translate(-1154.604 -2253.031)" fill="none"/>
    </clipPath>
    <linearGradient id="linear-gradient" x1="-1.332" y1="0.847" x2="-1.331" y2="0.847" gradientUnits="objectBoundingBox">
      <stop offset="0" stop-color="#444b8c"/>
      <stop offset="0.996" stop-color="#26264f"/>
      <stop offset="1" stop-color="#26264f"/>
    </linearGradient>
    <clipPath id="clip-path-10">
      <path id="Trazado_659990" data-name="Trazado 659990" d="M1176.028,2243.133l-6,29.028a8.493,8.493,0,0,0,5.254,9.64l20.385,7.883a26.773,26.773,0,0,0,11.918,1.708l43.081-3.642a2.658,2.658,0,0,0,.6-5.174l-14.3-4.689a11.467,11.467,0,0,1-7.663-8.6l-5.7-27.864Z" transform="translate(-1169.855 -2241.421)" fill="none"/>
    </clipPath>
    <linearGradient id="linear-gradient-2" x1="-1.325" y1="1.059" x2="-1.324" y2="1.059" xlink:href="#linear-gradient"/>
    <clipPath id="clip-path-11">
      <path id="Trazado_659991" data-name="Trazado 659991" d="M69.938,566.946V751.833c0,5.13,4.9,9.011,10.878,8.655l276.709-16.5a8.533,8.533,0,0,0,7.95-8.386V578.36a8.364,8.364,0,0,0-7.95-8.257L80.816,558.114q-.279-.012-.554-.012c-5.728,0-10.324,3.874-10.324,8.844" transform="translate(-69.938 -558.102)" fill="none"/>
    </clipPath>
    <linearGradient id="linear-gradient-3" x1="0.01" y1="1.101" x2="0.01" y2="1.101" gradientUnits="objectBoundingBox">
      <stop offset="0" stop-color="#444b8c"/>
      <stop offset="0.395" stop-color="#383c74"/>
      <stop offset="0.996" stop-color="#26264f"/>
      <stop offset="1" stop-color="#26264f"/>
    </linearGradient>
    <clipPath id="clip-path-12">
      <path id="Trazado_659992" data-name="Trazado 659992" d="M93,566.946V751.833c0,5.13,4.895,9.011,10.878,8.655l276.709-16.5a8.533,8.533,0,0,0,7.95-8.386V578.36a8.364,8.364,0,0,0-7.95-8.257l-276.709-11.99q-.279-.012-.554-.012C97.6,558.1,93,561.976,93,566.946" transform="translate(-93.001 -558.102)" fill="none"/>
    </clipPath>
    <linearGradient id="linear-gradient-4" x1="0.024" y1="0.895" x2="0.025" y2="0.895" xlink:href="#linear-gradient"/>
    <clipPath id="clip-path-14">
      <rect id="Rectángulo_352836" data-name="Rectángulo 352836" width="286.767" height="193.777" fill="none"/>
    </clipPath>
    <clipPath id="clip-path-15">
      <path id="Trazado_659994" data-name="Trazado 659994" d="M172.932,627.942V799.317a2,2,0,0,0,2.26,1.821L451.9,787.459a1.766,1.766,0,0,0,1.665-1.739V638.781a1.745,1.745,0,0,0-1.665-1.723L175.192,626.1l-.106,0a2,2,0,0,0-2.154,1.845" transform="translate(-172.932 -626.097)" fill="none"/>
    </clipPath>
    <linearGradient id="linear-gradient-5" x1="-0.025" y1="0.948" x2="-0.025" y2="0.948" gradientUnits="objectBoundingBox">
      <stop offset="0" stop-color="#aa80f9"/>
      <stop offset="0.996" stop-color="#6165d7"/>
      <stop offset="1" stop-color="#6165d7"/>
    </linearGradient>
    <clipPath id="clip-path-17">
      <rect id="Rectángulo_352839" data-name="Rectángulo 352839" width="296.423" height="202.409" fill="none"/>
    </clipPath>
    <clipPath id="clip-path-18">
      <rect id="Rectángulo_352840" data-name="Rectángulo 352840" width="46.559" height="16.727" fill="none"/>
    </clipPath>
    <clipPath id="clip-path-19">
      <rect id="Rectángulo_352841" data-name="Rectángulo 352841" width="53.865" height="19.08" fill="none"/>
    </clipPath>
    <clipPath id="clip-path-20">
      <path id="Trazado_660067" data-name="Trazado 660067" d="M386.6,2068.1c-2.907,3.805.628,7.836-2.455,15.675-.41,1.042-2.181,5.317-3.765,5.11-1.349-.176-1.988-3.529-2.3-5.158-1.024-5.37.606-7.168-.735-9.558a7.729,7.729,0,0,0-8.5-3.186c-4.275,1.5-5.552,8.5-5.155,13.218.886,10.535,10.645,16.093,8.387,19.857a4.326,4.326,0,0,1-4.615,1.564c-1.425-.453-1.917-1.845-4.128-6.621-2.694-5.819-3.256-6.544-4.143-6.8-2.076-.6-5.234,1.548-6.428,4.273-2.078,4.743,1.557,11.757,5.917,15.779,4.3,3.966,8.774,4.529,9.255,8.193.165,1.253-.134,2.9-1.142,3.5-2.029,1.2-6.109-2.354-6.9-3.041-4.271-3.716-4.557-7.132-7.016-7.33a4.685,4.685,0,0,0-4.216,2.907c-1.762,4.387,4.988,11.351,10.171,14.739a29.061,29.061,0,0,0,13.682,4.525c17.776-.14,27-6.9,30.9-10.468,3.234-2.95,9.316-9.626,7.6-12.566-1.213-2.083-6.32-2.262-10.013-.607-5.126,2.3-6.179,7.523-9.368,7.16a3.688,3.688,0,0,1-3.008-2.609c-.665-2.84,3.874-6.275,6.762-7.889,6.51-3.639,10.059-1.064,13.519-4.453,2.652-2.6,4.066-7.536,1.955-11.02a8.41,8.41,0,0,0-8.8-3.643c-6.164,1.617-7.444,12.09-10.045,11.624-1.178-.211-1.831-2.525-1.894-4.17-.13-3.375,2.153-5.669,5.021-9.064,6.049-7.16,9.074-10.74,8.888-14.336a9.943,9.943,0,0,0-6.338-8.257,10.1,10.1,0,0,0-3.608-.647,9.527,9.527,0,0,0-7.5,3.308" transform="translate(-348.375 -2064.795)" fill="#800070"/>
    </clipPath>
    <clipPath id="clip-path-22">
      <rect id="Rectángulo_352845" data-name="Rectángulo 352845" width="17.877" height="56.352" fill="none"/>
    </clipPath>
    <clipPath id="clip-path-23">
      <path id="Trazado_660069" data-name="Trazado 660069" d="M414.743,2301.528c-4.847,6.834-4.225,14.757-3.907,18.813a42.279,42.279,0,0,0,8.019,21.281,41.222,41.222,0,0,0,18.705,1.3c5.432-.954,6.529-2.476,6.893-3.459.657-1.769-.127-4.291-1.645-5.038-1.5-.738-2.652.78-6.837,1.4-1.72.256-4.31.641-5.026-.526-.5-.818.059-2.167.671-2.994,1.669-2.252,4.208-1.285,7.625-2.933,2.669-1.288,6.04-4.251,5.53-7a4.641,4.641,0,0,0-4.554-3.5c-1.669.21-1.763,1.882-4.3,3.453-1.92,1.19-4.915,2.121-5.933,1.044-.893-.945-.168-3.334.853-4.917,2.3-3.566,5.829-2.609,7.8-5.871,1.229-2.037,1.471-5.093.08-6.4-1.6-1.507-5.314-.642-7.541,1.2-3.132,2.587-2.226,6.193-5.123,7.368-1.4.569-3.273.4-3.953-.552-.815-1.135.246-3.146,1.175-4.858,2.51-4.628,4.815-4.881,5.449-7.608.629-2.7-.754-6.261-2.981-7.2a3.382,3.382,0,0,0-1.323-.257c-3.34,0-7.554,4.254-9.677,7.248" transform="translate(-410.624 -2294.28)" fill="#00cca7"/>
    </clipPath>
    <clipPath id="clip-path-24">
      <path id="Trazado_660070" data-name="Trazado 660070" d="M2093.691,2733.708s-7.621,3.486-7.744,4.04c-.076.339,1.781.189,3.7.039,1.217-.1,2.46-.19,3.256-.161,2.054.075,3.742-.536,3.554-1.406s-.912-3.056-.912-3.056Z" transform="translate(-2085.945 -2733.164)" fill="none"/>
    </clipPath>
    <linearGradient id="linear-gradient-6" x1="-20.168" y1="1.515" x2="-20.158" y2="1.515" gradientUnits="objectBoundingBox">
      <stop offset="0" stop-color="#311944"/>
      <stop offset="1" stop-color="#a03976"/>
    </linearGradient>
    <clipPath id="clip-path-25">
      <path id="Trazado_660071" data-name="Trazado 660071" d="M2155.133,2708.665l.472,3.434a2.692,2.692,0,0,0,2.019-.083l.337-3.769Z" transform="translate(-2155.133 -2708.247)" fill="none"/>
    </clipPath>
    <linearGradient id="linear-gradient-7" x1="-80.194" y1="2.552" x2="-80.157" y2="2.552" gradientUnits="objectBoundingBox">
      <stop offset="0" stop-color="#ffc444"/>
      <stop offset="0.996" stop-color="#f36f56"/>
      <stop offset="1" stop-color="#f36f56"/>
    </linearGradient>
    <clipPath id="clip-path-26">
      <path id="Trazado_660072" data-name="Trazado 660072" d="M2440.736,2712.684a28.865,28.865,0,0,1-.593,4.229c-.359,1.1-1.018,1.224-2.041,1.975s-.582,1.369-.582,1.369,4.936-.5,5.3-1.32c.269-.6.883-2.913,1.191-4.1a1.7,1.7,0,0,0-.206-1.332l-.891-1.422Z" transform="translate(-2437.425 -2712.085)" fill="none"/>
    </clipPath>
    <linearGradient id="linear-gradient-8" x1="-34.096" y1="1.247" x2="-34.082" y2="1.247" xlink:href="#linear-gradient-6"/>
    <clipPath id="clip-path-27">
      <path id="Trazado_660073" data-name="Trazado 660073" d="M2457.855,2679.447v0l.145-.147-.145.144m-3.85-4.312a46.061,46.061,0,0,1,1.922,5.067s.515.655,1.488-.316l.44-.439-.194-4.73Z" transform="translate(-2454.005 -2674.717)" fill="none"/>
    </clipPath>
    <linearGradient id="linear-gradient-9" x1="-64.602" y1="2.363" x2="-64.576" y2="2.363" xlink:href="#linear-gradient-7"/>
    <clipPath id="clip-path-28">
      <path id="Trazado_660074" data-name="Trazado 660074" d="M2112.559,2032.451c-.378,10.247-.367,21.38.251,33.271.7,13.39,2.06,25.765,3.768,36.981.625.019,1.282.02,1.968,0q.695-.021,1.346-.069a85.205,85.205,0,0,0,2.8-9.047,86.953,86.953,0,0,0,1.948-10.591c1.441-11.609-.283-12.617.889-21.221,1.037-7.62,2.539-7.921,4.275-18.74,1.885-11.739.456-13.5-.238-14.13a5.639,5.639,0,0,0-3.912-1.258c-3.476,0-8.237,1.816-13.1,4.8" transform="translate(-2112.304 -2027.646)" fill="none"/>
    </clipPath>
    <linearGradient id="linear-gradient-10" x1="-11.556" y1="1.124" x2="-11.55" y2="1.124" gradientUnits="objectBoundingBox">
      <stop offset="0" stop-color="#444b8c"/>
      <stop offset="0.996" stop-color="#3e4177"/>
      <stop offset="1" stop-color="#3e4177"/>
    </linearGradient>
    <clipPath id="clip-path-30">
      <rect id="Rectángulo_352854" data-name="Rectángulo 352854" width="17.199" height="75.07" fill="none"/>
    </clipPath>
    <clipPath id="clip-path-31">
      <path id="Trazado_660075" data-name="Trazado 660075" d="M2139.844,2028.917c-2.818-2.576-9.244-1-16.025,2.961,7.833,8.422,8.7,13.9,7.769,17.45-1.049,4.018-4.264,5.182-4.241,9.573.028,5.4,4.9,6.813,4.811,12.523-.059,3.775-2.2,3.741-2.693,8.406-.585,5.519,2.215,7.413,1.32,11.5-.385,1.757-1.492,4.055-4.653,6.427.232,1.676.47,3.334.719,4.962.625.019,1.281.02,1.968,0,.463-.014.912-.038,1.346-.069a85.285,85.285,0,0,0,2.805-9.047,87.062,87.062,0,0,0,1.948-10.591c1.441-11.609-.283-12.618.889-21.221,1.037-7.62,2.539-7.921,4.275-18.74,1.885-11.74.456-13.5-.237-14.13" transform="translate(-2123.819 -2027.66)" fill="none"/>
    </clipPath>
    <linearGradient id="linear-gradient-11" x1="-12.488" y1="1.122" x2="-12.482" y2="1.122" xlink:href="#linear-gradient-10"/>
    <clipPath id="clip-path-32">
      <path id="Trazado_660076" data-name="Trazado 660076" d="M2159.541,2023.072a230.078,230.078,0,0,1,31.7,67.434,4.114,4.114,0,0,0,2.253.344,4.192,4.192,0,0,0,2.548-1.384,66.262,66.262,0,0,0,.545-16.34,56.33,56.33,0,0,0-2.327-12.275c-1.872-5.985-3.149-6.319-5.587-12.651-2.531-6.572-1.926-8.214-4.354-16.441a108.579,108.579,0,0,0-5.413-14.421l-19.37,5.733" transform="translate(-2159.541 -2017.339)" fill="none"/>
    </clipPath>
    <linearGradient id="linear-gradient-12" x1="-6.17" y1="1.16" x2="-6.167" y2="1.16" xlink:href="#linear-gradient-10"/>
    <clipPath id="clip-path-34">
      <path id="Trazado_660078" data-name="Trazado 660078" d="M2294.53,1553.068c.52,1.524-.041,5.107-1.718,5.989s-3.98,1.116-2.584,1.883,8.525.39,10.962-.187,4.729-2.168,3.815-2.486-5.3-.975-6.359-2.805a17.662,17.662,0,0,1-1.683-4.87s-2.952.952-2.433,2.476" transform="translate(-2289.797 -1550.592)" fill="none"/>
    </clipPath>
    <linearGradient id="linear-gradient-13" x1="-19.122" y1="7.646" x2="-19.113" y2="7.646" xlink:href="#linear-gradient-7"/>
    <clipPath id="clip-path-35">
      <path id="Trazado_660079" data-name="Trazado 660079" d="M2297.32,1491.708c-.982.767-.492,4.185,1.276,5.449a6.762,6.762,0,0,1,2.059,1.6,5.968,5.968,0,0,1,.722,1.343,6.782,6.782,0,0,1,.325,1.131,9.712,9.712,0,0,0,2.041-2c.132-.18.1-.158.531-.776a7.006,7.006,0,0,0,.812-1.353,2.776,2.776,0,0,0,.052-1.825c-.321-.875-1.3-1.3-3.278-2.094-3.041-1.22-3.92-1.568-4.291-1.568a.364.364,0,0,0-.249.086" transform="translate(-2296.822 -1491.621)" fill="none"/>
    </clipPath>
    <linearGradient id="linear-gradient-14" x1="-21.176" y1="11.954" x2="-21.167" y2="11.954" xlink:href="#linear-gradient-10"/>
    <clipPath id="clip-path-36">
      <path id="Trazado_660080" data-name="Trazado 660080" d="M2310.83,1534.514c-1.269.862-1.176,5.19.743,5.4a3.673,3.673,0,0,0,3.3-1.49c1.042-.321,1.519-.93,1.271-1.435a.65.65,0,0,0-.245-.261,1.048,1.048,0,0,0-1.136.318c.432-1.245.287-1.718.07-1.918-.174-.16-.345-.1-.936-.282-.641-.2-.767-.366-1.156-.494a2.558,2.558,0,0,0-.789-.119,2.091,2.091,0,0,0-1.122.282" transform="translate(-2309.985 -1534.232)" fill="none"/>
    </clipPath>
    <linearGradient id="linear-gradient-15" x1="-33.145" y1="20.619" x2="-33.131" y2="20.619" xlink:href="#linear-gradient-7"/>
    <clipPath id="clip-path-38">
      <rect id="Rectángulo_352862" data-name="Rectángulo 352862" width="29.916" height="17.983" fill="none"/>
    </clipPath>
    <clipPath id="clip-path-39">
      <path id="Trazado_660081" data-name="Trazado 660081" d="M1925.231,1837.439c5.364-1.208,7.5-1.169,10.154-3.307,4.417-3.558,5.08-8.975,7.646-8.908,1.213.031,2.2,1.27,2.9,2.483l-1.938,3.036c0-.038-.011-.068-.033-.079-.214-.109-1.1,1.306-1.9,2.474-4.071,5.947-12.649,11.323-20.047,9.813a12.861,12.861,0,0,1-6-2.916,91.51,91.51,0,0,1,9.216-2.6" transform="translate(-1916.015 -1825.224)" fill="none"/>
    </clipPath>
    <linearGradient id="linear-gradient-16" x1="-6.906" y1="5.507" x2="-6.903" y2="5.507" xlink:href="#linear-gradient-5"/>
    <clipPath id="clip-path-40">
      <path id="Trazado_660082" data-name="Trazado 660082" d="M1849.535,1970.276c.166.767,3.133,1.835,4.318,1.873s3.315-1.9,3.315-1.9a20.681,20.681,0,0,1-4.831-1.073,2.989,2.989,0,0,0-1.174-.262c-1.11,0-1.755.781-1.628,1.365" transform="translate(-1849.519 -1968.911)" fill="none"/>
    </clipPath>
    <linearGradient id="linear-gradient-17" x1="-29.28" y1="11.19" x2="-29.264" y2="11.19" xlink:href="#linear-gradient-7"/>
    <clipPath id="clip-path-42">
      <rect id="Rectángulo_352866" data-name="Rectángulo 352866" width="61.376" height="46.42" fill="none"/>
    </clipPath>
    <clipPath id="clip-path-43">
      <path id="Trazado_660084" data-name="Trazado 660084" d="M2102.64,1816.282c3.679-2.325,4.224-4.682,8.343-6.274,5.353-2.069,7.924.559,10.578-1.562,3.158-2.525.362-6.923,2.726-14.556.4-1.3,3.448-11.136,10.438-12.389,3.259-.585,7.565.664,9.224,3.426,1.3,2.162.089,3.773,1.667,6.16s3.464,1.8,5.475,3.791c3.193,3.159,3.683,9.819.8,13.586-1.345,1.757-3.092,2.451-6.379,3.759a30.969,30.969,0,0,1-5.483,1.61c4.026-3.864,6.115-8.847,5.086-13.2-1.075-4.547-5.328-7.484-8.7-9.155a63.61,63.61,0,0,0-7.052,20.644c-.612,4.62-.428,9.2-3.878,13-.664.73-2.758,3.036-4.822,2.606-2.458-.512-2.236-4.353-5.5-5.956-1.072-.526-1.442-.282-6.138-.214a69.5,69.5,0,0,1-9.083-.284c-2.681-.3-6.407-.731-7.519-2.157a19.591,19.591,0,0,0,10.221-2.833" transform="translate(-2092.418 -1781.359)" fill="none"/>
    </clipPath>
    <linearGradient id="linear-gradient-18" x1="-3.618" y1="2.358" x2="-3.617" y2="2.358" xlink:href="#linear-gradient-5"/>
    <clipPath id="clip-path-44">
      <path id="Trazado_660085" data-name="Trazado 660085" d="M1803.81,1909.016l71.253,21.947a3.535,3.535,0,0,0,4.381-2.189l.379-1.114a3.3,3.3,0,0,0-2.215-4.226l-71.615-21.815Z" transform="translate(-1803.81 -1901.619)" fill="none"/>
    </clipPath>
    <linearGradient id="linear-gradient-19" x1="-2.539" y1="3.277" x2="-2.537" y2="3.277" xlink:href="#linear-gradient"/>
    <clipPath id="clip-path-45">
      <path id="Trazado_660086" data-name="Trazado 660086" d="M1181.742,1510.659c-17.025-5.47-27-24.039-22.434-41.853,4.659-18.163,22.715-29.015,40.488-23.844,18.045,5.249,28.4,24.813,22.972,43.283a32.736,32.736,0,0,1-31.236,23.958,31.96,31.96,0,0,1-9.79-1.544m-28.308-43.652c-5.351,21.14,6.49,43.143,26.652,49.678,20.516,6.649,42.5-4.978,48.915-26.53,6.565-22.071-5.806-45.485-27.415-51.706a38.206,38.206,0,0,0-10.592-1.508c-17.358,0-33,12.054-37.56,30.067" transform="translate(-1152.149 -1436.94)" fill="none"/>
    </clipPath>
    <linearGradient id="linear-gradient-20" x1="-1.374" y1="1.714" x2="-1.372" y2="1.714" xlink:href="#linear-gradient"/>
    <clipPath id="clip-path-47">
      <rect id="Rectángulo_352870" data-name="Rectángulo 352870" width="76.189" height="29.501" fill="none"/>
    </clipPath>
    <clipPath id="clip-path-48">
      <rect id="Rectángulo_352871" data-name="Rectángulo 352871" width="68.316" height="70.925" fill="none"/>
    </clipPath>
    <clipPath id="clip-path-49">
      <path id="Trazado_660089" data-name="Trazado 660089" d="M1168.878,1527.864c-17.025-5.47-27-24.038-22.434-41.853,4.659-18.163,22.715-29.015,40.488-23.845,18.045,5.249,28.4,24.813,22.972,43.284a32.736,32.736,0,0,1-31.236,23.958,31.954,31.954,0,0,1-9.79-1.545m-28.308-43.652c-5.351,21.14,6.49,43.143,26.652,49.677,20.517,6.65,42.5-4.977,48.915-26.53,6.566-22.071-5.806-45.484-27.415-51.706a38.2,38.2,0,0,0-10.592-1.508c-17.358,0-33,12.054-37.56,30.067" transform="translate(-1139.285 -1454.145)" fill="none"/>
    </clipPath>
    <linearGradient id="linear-gradient-21" x1="-1.077" y1="1.492" x2="-1.076" y2="1.492" xlink:href="#linear-gradient"/>
    <clipPath id="clip-path-50">
      <path id="Trazado_660090" data-name="Trazado 660090" d="M1186.547,1547.595c-17.025-5.47-27-24.039-22.434-41.853,4.659-18.163,22.715-29.015,40.488-23.845,18.045,5.249,28.4,24.813,22.972,43.284a32.736,32.736,0,0,1-31.236,23.958,31.961,31.961,0,0,1-9.79-1.544m-26.234-43.017c-5.078,19.966,6.106,40.759,25.163,46.916,19.373,6.26,40.1-4.746,46.122-25.08,6.159-20.795-5.5-42.842-25.842-48.721a36.029,36.029,0,0,0-10.024-1.432c-16.351,0-31.1,11.34-35.42,28.318" transform="translate(-1159.089 -1476.26)" fill="none"/>
    </clipPath>
    <linearGradient id="linear-gradient-22" x1="-1.162" y1="1.547" x2="-1.161" y2="1.547" xlink:href="#linear-gradient"/>
    <clipPath id="clip-path-51">
      <path id="Trazado_660091" data-name="Trazado 660091" d="M2457.611,2096.9c-.273.075-1.3.031-.129.59s1.164.975.675,1.435a8.5,8.5,0,0,1-3.019,1.495c-.67.048.541,1.083,1.216,1.216a4.169,4.169,0,0,0,3.153-.508c.5-.294,2.717-1.39,2.717-1.39l-.724-1.8a3.7,3.7,0,0,1-2.151-.623,2.953,2.953,0,0,0-1.514-.438.894.894,0,0,0-.225.022" transform="translate(-2454.942 -2096.882)" fill="none"/>
    </clipPath>
    <linearGradient id="linear-gradient-23" x1="-35.161" y1="8.713" x2="-35.147" y2="8.713" xlink:href="#linear-gradient-7"/>
    <clipPath id="clip-path-52">
      <path id="Trazado_660092" data-name="Trazado 660092" d="M2335.834,1648.625c-.952.055-1.865.079-2.738.08a2.84,2.84,0,0,0,1.442,2.769,2.439,2.439,0,0,0,1.481.171l1.692-3.165q-.909.088-1.877.145" transform="translate(-2333.092 -1648.48)" fill="none"/>
    </clipPath>
    <linearGradient id="linear-gradient-24" x1="-51.456" y1="34.97" x2="-51.434" y2="34.97" xlink:href="#linear-gradient"/>
    <clipPath id="clip-path-53">
      <path id="Trazado_660093" data-name="Trazado 660093" d="M2263.288,1698.753c.171.683,0,6.238,0,6.238s6.214-1.871,6.568-1.747,7.525-11.762,3.886-28.845l-1.887-.414s-1.9,21.35-8.567,24.769" transform="translate(-2263.288 -1673.984)" fill="none"/>
    </clipPath>
    <linearGradient id="linear-gradient-25" x1="-17.318" y1="3.952" x2="-17.31" y2="3.952" xlink:href="#linear-gradient"/>
  </defs>
  <g id="Grupo_952841" data-name="Grupo 952841" clip-path="url(#clip-path)">
    <g id="Grupo_952728" data-name="Grupo 952728" transform="translate(105.513 17.889)">
      <g id="Grupo_952727" data-name="Grupo 952727" clip-path="url(#clip-path-3)">
        <rect id="Rectángulo_352826" data-name="Rectángulo 352826" width="210.239" height="205.84" transform="translate(-65.116 53.909) rotate(-40.797)" fill="#00cca7"/>
      </g>
    </g>
    <g id="Grupo_952733" data-name="Grupo 952733" transform="translate(0 0)">
      <g id="Grupo_952732" data-name="Grupo 952732" clip-path="url(#clip-path-2)">
        <g id="Grupo_952731" data-name="Grupo 952731" transform="translate(105.513 17.889)" opacity="0.3" style="mix-blend-mode: soft-light;isolation: isolate">
          <g id="Grupo_952730" data-name="Grupo 952730">
            <g id="Grupo_952729" data-name="Grupo 952729" clip-path="url(#clip-path-5)">
              <path id="Trazado_659986" data-name="Trazado 659986" d="M1016.031,267.436c16.129-4.749,26.282-3.927,36.932-13.233,9.3-8.128,6.918-13.44,17.68-23.034,12.188-10.866,18.215-6.7,27.681-15.827,13.142-12.675,6.548-25.555,18.337-36.281,3.726-3.39,9.565-6.814,19.2-8.243a44.116,44.116,0,0,0-17.818-4.858c-22.148-1.19-37.474,16.422-77.379,54.5-51.137,48.8-64.788,56.917-61.729,61.948a4.4,4.4,0,0,0,2.3,1.742,123.05,123.05,0,0,1,34.791-16.716" transform="translate(-978.53 -165.904)" fill="#fff"/>
            </g>
          </g>
        </g>
      </g>
    </g>
    <g id="Grupo_952735" data-name="Grupo 952735" transform="translate(46.268 0)">
      <g id="Grupo_952734" data-name="Grupo 952734" clip-path="url(#clip-path-6)">
        <rect id="Rectángulo_352829" data-name="Rectángulo 352829" width="219.77" height="218.125" transform="translate(-53.404 18.829) rotate(-19.422)" fill="#800070"/>
      </g>
    </g>
    <g id="Grupo_952740" data-name="Grupo 952740" transform="translate(0 0)">
      <g id="Grupo_952739" data-name="Grupo 952739" clip-path="url(#clip-path-2)">
        <g id="Grupo_952738" data-name="Grupo 952738" transform="translate(46.268 0)" opacity="0.5" style="mix-blend-mode: soft-light;isolation: isolate">
          <g id="Grupo_952737" data-name="Grupo 952737">
            <g id="Grupo_952736" data-name="Grupo 952736" clip-path="url(#clip-path-8)">
              <path id="Trazado_659988" data-name="Trazado 659988" d="M470.095,127.21c14.01-20.224,12.9-26.455,25.576-37.129C519.043,70.4,538.238,78.6,553.426,60.125c10.828-13.17,4.317-21.286,15.932-39.9A80.14,80.14,0,0,1,585.7,1.551,16.143,16.143,0,0,0,582.643.463c-22.352-5.446-53.546,38.7-61.873,33.461-4.309-2.711,3.4-14.941-2.185-20.189-7.631-7.176-33.092,5.3-39.244,8.686C431.793,48.558,429.092,140.59,429.092,170.29c.956-.387,1.9-.778,2.841-1.168a221.389,221.389,0,0,0,38.161-41.913" transform="translate(-429.092 0.004)" fill="#800070"/>
            </g>
          </g>
        </g>
      </g>
    </g>
    <g id="Grupo_952742" data-name="Grupo 952742" transform="translate(124.499 242.941)">
      <g id="Grupo_952741" data-name="Grupo 952741" clip-path="url(#clip-path-9)">
        <rect id="Rectángulo_352832" data-name="Rectángulo 352832" width="91.094" height="99.806" transform="translate(-24.627 34.258) rotate(-55.081)" fill="url(#linear-gradient)"/>
      </g>
    </g>
    <g id="Grupo_952744" data-name="Grupo 952744" transform="translate(126.143 241.689)">
      <g id="Grupo_952743" data-name="Grupo 952743" clip-path="url(#clip-path-10)">
        <rect id="Rectángulo_352833" data-name="Rectángulo 352833" width="91.764" height="64.706" transform="translate(-9.627 1.651) rotate(-10.437)" fill="url(#linear-gradient-2)"/>
      </g>
    </g>
    <g id="Grupo_952746" data-name="Grupo 952746" transform="translate(7.541 60.179)">
      <g id="Grupo_952745" data-name="Grupo 952745" clip-path="url(#clip-path-11)">
        <rect id="Rectángulo_352834" data-name="Rectángulo 352834" width="316.895" height="235.39" transform="translate(-23.165 2.682) rotate(-6.605)" fill="url(#linear-gradient-3)"/>
      </g>
    </g>
    <g id="Grupo_952748" data-name="Grupo 952748" transform="translate(10.028 60.179)">
      <g id="Grupo_952747" data-name="Grupo 952747" clip-path="url(#clip-path-12)">
        <rect id="Rectángulo_352835" data-name="Rectángulo 352835" width="331.742" height="358.324" transform="translate(-93.053 141.587) rotate(-56.686)" fill="url(#linear-gradient-4)"/>
      </g>
    </g>
    <g id="Grupo_952753" data-name="Grupo 952753" transform="translate(0 0)">
      <g id="Grupo_952752" data-name="Grupo 952752" clip-path="url(#clip-path-2)">
        <g id="Grupo_952751" data-name="Grupo 952751" transform="translate(15.107 64.493)" opacity="0.3" style="mix-blend-mode: multiply;isolation: isolate">
          <g id="Grupo_952750" data-name="Grupo 952750">
            <g id="Grupo_952749" data-name="Grupo 952749" clip-path="url(#clip-path-14)">
              <path id="Trazado_659993" data-name="Trazado 659993" d="M422.612,609.491,145.9,598.108c-3.2-.132-5.8,1.982-5.8,4.721V787.241c0,2.739,2.6,4.81,5.8,4.627l276.709-15.89a4.555,4.555,0,0,0,4.258-4.483V613.9a4.465,4.465,0,0,0-4.258-4.414" transform="translate(-140.104 -598.102)" fill="#d8dee8"/>
            </g>
          </g>
        </g>
      </g>
    </g>
    <g id="Grupo_952755" data-name="Grupo 952755" transform="translate(18.647 67.511)">
      <g id="Grupo_952754" data-name="Grupo 952754" clip-path="url(#clip-path-15)">
        <rect id="Rectángulo_352838" data-name="Rectángulo 352838" width="302.774" height="330.507" transform="translate(-81.505 119.522) rotate(-55.709)" fill="url(#linear-gradient-5)"/>
      </g>
    </g>
    <g id="Grupo_952766" data-name="Grupo 952766" transform="translate(0 0)">
      <g id="Grupo_952765" data-name="Grupo 952765" clip-path="url(#clip-path-2)">
        <g id="Grupo_952758" data-name="Grupo 952758" transform="translate(9.084 60.248)" opacity="0.6" style="mix-blend-mode: soft-light;isolation: isolate">
          <g id="Grupo_952757" data-name="Grupo 952757">
            <g id="Grupo_952756" data-name="Grupo 952756" clip-path="url(#clip-path-17)">
              <path id="Trazado_659995" data-name="Trazado 659995" d="M343.724,733.185c-23.349-14.4-7.041-55.343-33.262-75.915-26.436-20.74-63.636,4.7-82.154-16.781-13.788-15.993,2.345-35.3-10.82-50.344-20.647-23.586-73.5,8.853-97.783-14.384-3.448-3.3-6.927-8.3-8.907-16.334l-15.638-.676c-6-.259-10.911,3.7-10.911,8.832V752.471c0,5.13,4.91,9.011,10.911,8.655l277.538-16.5a8.544,8.544,0,0,0,7.974-8.386v-2.8c-18.429,6.235-29.694,4.211-36.948-.262" transform="translate(-84.248 -558.74)" fill="#fff"/>
            </g>
          </g>
        </g>
        <path id="Trazado_659996" data-name="Trazado 659996" d="M2652.9,978.453l0,.781,3.475.044-.766-.805Z" transform="translate(-2366.837 -872.948)" fill="#d8dee8"/>
        <path id="Trazado_659997" data-name="Trazado 659997" d="M2178.563,991.588,2166.747,989l.053-14.907,11.823.155Zm-11.208-3.073,10.6,2.32.056-15.985-10.612-.139Z" transform="translate(-1933.111 -869.061)" fill="#fff"/>
        <path id="Trazado_659998" data-name="Trazado 659998" d="M2270.707,864.058l.061-17.211,18.216-5.122,10.962-10.509,15.378,16.149-2.985.047-.05,14.416-26.265,1.4-.032-.606,25.692-1.372.05-14.438,2.2-.035-14-14.706-10.633,10.193-.072.021-17.85,5.018-.056,16.111,3.877-.208.033.605Zm20.342-2.725.055-15.757,16.454.085-.051,14.884Zm.659-15.148-.05,14.511,15.244-.73.047-13.7Z" transform="translate(-2025.861 -741.587)" fill="#fff"/>
        <path id="Trazado_659999" data-name="Trazado 659999" d="M2560.942,993.134V981.266l4.149-.01v11.689Zm.606-11.263V992.5l2.937-.134v-10.5Z" transform="translate(-2284.8 -875.449)" fill="#fff"/>
        <path id="Trazado_660000" data-name="Trazado 660000" d="M2518,993.435V981.367l4.274-.01V993.24Zm.606-11.463V992.8l3.062-.14v-10.7Z" transform="translate(-2246.488 -875.539)" fill="#fff"/>
        <path id="Trazado_660001" data-name="Trazado 660001" d="M2473.493,993.747V981.472l4.408-.011v12.085Zm.606-11.67v11.035l3.2-.146v-10.9Z" transform="translate(-2206.781 -875.631)" fill="#fff"/>
        <g id="Grupo_952761" data-name="Grupo 952761" transform="translate(242.466 89.731)" opacity="0.2">
          <g id="Grupo_952760" data-name="Grupo 952760">
            <g id="Grupo_952759" data-name="Grupo 952759" clip-path="url(#clip-path-18)">
              <path id="Trazado_660002" data-name="Trazado 660002" d="M2295.186,847.97l-14.539-15.342-.446-.47-.445.425-10.734,10.247-17.935,4.985-2.46.683v.378l2.74.01v-.245l18.007-5.005,10.86-10.35,13.929,14.681Z" transform="translate(-2248.627 -832.158)" fill="#d8dee8"/>
            </g>
          </g>
        </g>
        <path id="Trazado_660003" data-name="Trazado 660003" d="M2280.2,824.74l.446.47,14.715,15.512.38.4,0,1.013-.049,0-.762-.8-14.7-15.471-10.859,10.35-17.853,5.225-2.9.793,0-1.156,2.459-.684,17.935-4.985,10.734-10.247Z" transform="translate(-2006.161 -735.809)" fill="#fff"/>
        <path id="Trazado_660004" data-name="Trazado 660004" d="M2316.4,834.657l-.14-.335,10.2-9.338.1-.049,13.957-1.968.161.331L2329.5,833.969l-.124.053Zm10.274-9.348-9.759,8.936,12.369-.6,10.693-10.208Z" transform="translate(-2066.5 -734.227)" fill="#fff"/>
        <path id="Trazado_660005" data-name="Trazado 660005" d="M2347.47,1056.386l.045-13.013,6.1-.058-.048,12.745Zm.649-12.413-.041,11.773,4.885-.26.043-11.559Z" transform="translate(-2094.347 -930.816)" fill="#fff"/>
        <path id="Trazado_660006" data-name="Trazado 660006" d="M2309.52,1044.456l.051-14.78,11.359-.076-.049,14.157-1.777.125.042-12.166-4.884.057-.044,12.361Zm.655-14.178-.047,13.529,3.484-.237.044-12.395,6.1-.072-.042,12.129.564-.04.045-12.981Z" transform="translate(-2060.488 -918.58)" fill="#fff"/>
        <path id="Trazado_660007" data-name="Trazado 660007" d="M2157.877,927.973l-10.922-.118-.048-.38,18.382-4.922,12.976-.634.061.379Zm-9.511-.488,9.488.1,18.7-5.2-11.227.549Z" transform="translate(-1915.41 -822.51)" fill="#fff"/>
        <path id="Trazado_660008" data-name="Trazado 660008" d="M2158.26,976.456l-10.922-.279,0-.995,10.922.118Z" transform="translate(-1915.794 -870.03)" fill="#fff"/>
        <path id="Trazado_660009" data-name="Trazado 660009" d="M2178.156,1117.933l-11.6-2.784.022-6.434.606,0-.021,5.954,11.043,2.65,3.757-.242.009-2.663,11.269-.668.883,2.549,24.618-1.368.021-5.962.606,0-.022,6.533-25.647,1.425-.881-2.547-10.241.608-.01,2.66Z" transform="translate(-1932.942 -989.164)" fill="#fff"/>
        <g id="Grupo_952764" data-name="Grupo 952764" transform="translate(235.148 140.664)" opacity="0.8">
          <g id="Grupo_952763" data-name="Grupo 952763">
            <g id="Grupo_952762" data-name="Grupo 952762" clip-path="url(#clip-path-19)">
              <path id="Trazado_660010" data-name="Trazado 660010" d="M2234.592,1306.523h0a2.039,2.039,0,0,1-2.024,2.041l-49.706.369a2.064,2.064,0,0,1-2.1-2.043,2.085,2.085,0,0,1,2.088-2.072l49.706-.308a2.018,2.018,0,0,1,2.034,2.013m-2.016,5.208-49.706.416a2.091,2.091,0,0,0-2.087,2.076,2.058,2.058,0,0,0,2.1,2.038l49.706-.477a2.045,2.045,0,0,0,2.024-2.045,2.013,2.013,0,0,0-2.034-2.009m.018,7.221-49.706.524a2.1,2.1,0,0,0-2.088,2.081,2.053,2.053,0,0,0,2.1,2.034l49.706-.585a2.05,2.05,0,0,0,2.024-2.049,2.008,2.008,0,0,0-2.034-2" transform="translate(-2180.763 -1304.51)" fill="#fff"/>
            </g>
          </g>
        </g>
        <path id="Trazado_660011" data-name="Trazado 660011" d="M457.36,834.156v2.528l27.313,1.069V954.477l-22.033,1.081v2.532l24.561-1.2V835.326ZM300.184,966.069l19.674-.965V949.474l54.338-2.239v15.2l26.738-1.312v-2.528l-24.214,1.189V944.6l-59.39,2.447V962.7l-14.618.718V830.636l83.944,3.285,32.011,1.251v-2.528l-118.483-4.636Z" transform="translate(-267.816 -738.724)" fill="#fff"/>
        <path id="Trazado_660012" data-name="Trazado 660012" d="M1296.308,2011.317l.134,1.762-61.513,2.991v-1.755Zm.356-.4-62.121,3.034v2.529l62.314-3.03Z" transform="translate(-1101.425 -1794.08)" fill="#fff"/>
        <path id="Trazado_660013" data-name="Trazado 660013" d="M367.034,876.1l-66.836-.661V828.026l66.836,2.614Zm-64.309-3.164,61.782.611V833.071l-61.782-2.417Z" transform="translate(-267.828 -738.741)" fill="#fff"/>
        <path id="Trazado_660014" data-name="Trazado 660014" d="M326.3,900.619l-.178,0-11.666-.321v-13.01l11.682.417a6.688,6.688,0,0,1,6.37,6.651,6.248,6.248,0,0,1-1.888,4.521,6.145,6.145,0,0,1-4.32,1.746m-11.339-.815,11.174.307a5.637,5.637,0,0,0,4.131-1.6A5.745,5.745,0,0,0,332,894.352h0a6.178,6.178,0,0,0-5.883-6.145l-11.159-.4Z" transform="translate(-280.551 -791.61)" fill="#fff"/>
        <path id="Trazado_660015" data-name="Trazado 660015" d="M375.776,1122.659H375.7l-30-.36a6.57,6.57,0,0,1-6.446-6.568,6.344,6.344,0,0,1,1.907-4.57,6.222,6.222,0,0,1,4.548-1.8l30,.6a6.4,6.4,0,0,1,6.155,6.441,6.283,6.283,0,0,1-1.861,4.509,5.978,5.978,0,0,1-4.228,1.742m-30.193-12.792a5.761,5.761,0,0,0-4.062,1.655,5.843,5.843,0,0,0-1.755,4.209,6.063,6.063,0,0,0,5.947,6.062l30,.36a5.468,5.468,0,0,0,3.941-1.6,5.781,5.781,0,0,0,1.711-4.149,5.891,5.891,0,0,0-5.66-5.935l-30-.6h-.121" transform="translate(-302.679 -989.74)" fill="#fff"/>
        <path id="Trazado_660016" data-name="Trazado 660016" d="M356.965,1107.783l-47.835-.474V1089.07l47.835,1.027Zm-47.33-.975,46.825.464v-16.681l-46.825-1.005Z" transform="translate(-275.797 -971.637)" fill="#fff"/>
        <path id="Trazado_660017" data-name="Trazado 660017" d="M552.657,1311.343v-11.011l6.628.045,0,.505-6.119-.041v10l13.563,0v-9.9l-6.221-.042,0-.506,6.723.045v10.909Z" transform="translate(-493.065 -1160.119)" fill="#fff"/>
        <path id="Trazado_660018" data-name="Trazado 660018" d="M1898.858,934.937l-8.89-.274v-9.07l8.89.329Zm-8.385-.764,7.881.243V926.41l-7.881-.292Z" transform="translate(-1686.175 -825.788)" fill="#fff"/>
        <path id="Trazado_660019" data-name="Trazado 660019" d="M1898.858,1317.16l-8.89-.005v-9.069l8.89.061Zm-8.385-.51,7.881,0v-8.006l-7.881-.054Z" transform="translate(-1686.175 -1167.036)" fill="#fff"/>
        <path id="Trazado_660020" data-name="Trazado 660020" d="M1643.72,1041.715l-39.726-.309v-31.1l39.726,1.18Zm-39.221-.81,38.716.3v-29.231l-38.716-1.15Z" transform="translate(-1431.037 -901.364)" fill="#fff"/>
        <path id="Trazado_660021" data-name="Trazado 660021" d="M1882.717,1047.866l-8.912-.172v-12.9l8.912.253Zm-8.406-.668,7.9.153v-11.813l-7.9-.224Z" transform="translate(-1671.756 -923.213)" fill="#fff"/>
        <path id="Trazado_660022" data-name="Trazado 660022" d="M1630.5,1041.96l-26.136-.2V1010.7l26.136.776Zm-25.631-.7,25.126.2v-29.488l-25.126-.745Z" transform="translate(-1431.365 -901.715)" fill="#fff"/>
        <path id="Trazado_660023" data-name="Trazado 660023" d="M1882.717,1178.08l-8.912-.081v-12.9l8.912.161Zm-8.406-.582,7.9.072v-11.813l-7.9-.143Z" transform="translate(-1671.756 -1039.467)" fill="#fff"/>
        <path id="Trazado_660024" data-name="Trazado 660024" d="M1172.833,867.154v2.528l26.87,1.042V922.4l-95.046.127V867.042l29.483,1.143v-2.532l-32.011-1.239v60.641l98.018-.127,2.084,0v-56.63Z" transform="translate(-983.288 -771.205)" fill="#fff"/>
        <path id="Trazado_660025" data-name="Trazado 660025" d="M309.13,1306.726V1253.8l64.862.642v16.7l-48.015.054v35.125Zm.505-52.419v51.9l15.837-.384v-35.136l48.015-.054v-15.695Z" transform="translate(-275.797 -1118.602)" fill="#fff"/>
        <path id="Trazado_660026" data-name="Trazado 660026" d="M334.751,1518.9V1506.49l12.455-.093V1518.7Zm.505-11.912v11.4l11.445-.184v-11.3Z" transform="translate(-298.655 -1343.965)" fill="#fff"/>
        <path id="Trazado_660027" data-name="Trazado 660027" d="M351.617,1522.765a1.812,1.812,0,0,1-1.812-1.819,1.851,1.851,0,0,1,1.827-1.849h.016a1.812,1.812,0,0,1,1.812,1.82,1.852,1.852,0,0,1-1.823,1.849h-.02m.031-3.163h-.011a1.345,1.345,0,0,0-1.326,1.344,1.308,1.308,0,0,0,.389.937,1.261,1.261,0,0,0,.932.377,1.345,1.345,0,0,0,1.323-1.344,1.307,1.307,0,0,0-1.307-1.314" transform="translate(-312.086 -1355.294)" fill="#fff"/>
        <path id="Trazado_660028" data-name="Trazado 660028" d="M405.451,1522.3a1.78,1.78,0,0,1-1.261-.519,1.806,1.806,0,0,1-.537-1.294,1.819,1.819,0,0,1,3.092-1.323,1.807,1.807,0,0,1,.536,1.293,1.842,1.842,0,0,1-1.81,1.843h-.02m.03-3.15h-.011a1.335,1.335,0,0,0-1.313,1.337,1.306,1.306,0,0,0,.388.935,1.244,1.244,0,0,0,.92.372,1.335,1.335,0,0,0,1.31-1.337,1.307,1.307,0,0,0-.387-.934,1.28,1.28,0,0,0-.907-.373" transform="translate(-360.127 -1354.89)" fill="#fff"/>
        <path id="Trazado_660029" data-name="Trazado 660029" d="M351.61,1574.552a1.805,1.805,0,0,1-1.806-1.813,1.859,1.859,0,0,1,1.826-1.856h.023a1.805,1.805,0,0,1,1.805,1.813,1.861,1.861,0,0,1-1.822,1.856h-.028m.044-3.164h-.017a1.352,1.352,0,0,0-1.327,1.35,1.3,1.3,0,0,0,1.32,1.307,1.353,1.353,0,0,0,1.324-1.35,1.3,1.3,0,0,0-1.3-1.307" transform="translate(-312.085 -1401.497)" fill="#fff"/>
        <path id="Trazado_660030" data-name="Trazado 660030" d="M405.444,1573.868a1.775,1.775,0,0,1-1.255-.514,1.8,1.8,0,0,1-.538-1.293,1.849,1.849,0,0,1,1.813-1.849,1.8,1.8,0,0,1,1.815,1.807,1.85,1.85,0,0,1-1.809,1.849h-.027m.043-3.15h-.017a1.342,1.342,0,0,0-1.314,1.344,1.29,1.29,0,0,0,1.307,1.3,1.343,1.343,0,0,0,1.311-1.343,1.3,1.3,0,0,0-.386-.932,1.274,1.274,0,0,0-.9-.37" transform="translate(-360.127 -1400.898)" fill="#fff"/>
        <path id="Trazado_660031" data-name="Trazado 660031" d="M715.04,1946.366v-19.6l18.8-.732v.263c0,10.528-8.317,19.523-18.539,20.052Zm.505-19.11v18.576c9.752-.65,17.657-9.21,17.792-19.268Z" transform="translate(-637.938 -1718.356)" fill="#fff"/>
        <path id="Trazado_660032" data-name="Trazado 660032" d="M946.2,707.829l-18.249-.714v-19.3l.266.014c9.916.515,17.983,9.37,17.983,19.739Zm-17.744-1.2,17.237.674c-.133-9.9-7.791-18.317-17.237-18.956Z" transform="translate(-827.888 -613.647)" fill="#fff"/>
        <path id="Trazado_660033" data-name="Trazado 660033" d="M1280.938,1263.177v-18.815l.256,0c9.424.107,17.09,8.421,17.09,18.534v.252Zm.505-18.3v17.8l16.334-.024c-.125-9.632-7.381-17.523-16.334-17.771" transform="translate(-1142.817 -1110.184)" fill="#fff"/>
        <path id="Trazado_660034" data-name="Trazado 660034" d="M754.96,905.262h-.006c-10.2-.246-18.49-9.105-18.49-19.75a.253.253,0,0,1,.262-.253l18.243.673a.253.253,0,0,1,.243.253v18.824a.253.253,0,0,1-.253.253m-17.989-19.487c.133,10.165,8.015,18.6,17.736,18.974v-18.32Z" transform="translate(-657.052 -789.803)" fill="#fff"/>
        <path id="Trazado_660035" data-name="Trazado 660035" d="M768.332,1116.432l-15.762-.156v-17.687l15.762.338Zm-15.257-.657,14.752.146v-16.5l-14.752-.317Z" transform="translate(-671.421 -980.13)" fill="#fff"/>
        <path id="Trazado_660036" data-name="Trazado 660036" d="M781.612,1126.475l-5.694-.072.007-.505,5.182.066v-10.742l-11.546-.235v10.831l5.206.066-.007.505-5.7-.073V1114.47l12.557.255Z" transform="translate(-686.129 -994.298)" fill="#fff"/>
        <path id="Trazado_660037" data-name="Trazado 660037" d="M819.831,1171.622h-.015a.993.993,0,0,1-.661-1.694.952.952,0,0,1,.668-.268.993.993,0,0,1,.659,1.693.925.925,0,0,1-.653.269m-.022-1.457a.422.422,0,0,0-.3.123.487.487,0,0,0,.313.828.4.4,0,0,0,.3-.124.487.487,0,0,0-.313-.827h-.007" transform="translate(-730.568 -1043.537)" fill="#fff"/>
        <path id="Trazado_660038" data-name="Trazado 660038" d="M821.58,1207.645l-1.627-.018v-4.608l1.627.023Zm-1.122-.518.617.007v-3.594l-.617-.009Z" transform="translate(-731.539 -1073.298)" fill="#fff"/>
        <path id="Trazado_660039" data-name="Trazado 660039" d="M611.083,1337.314h0a1,1,0,0,1-.683-1.7.96.96,0,0,1,.681-.282h0a1,1,0,0,1,.682,1.7.958.958,0,0,1-.681.283m-.005-1.479a.457.457,0,0,0-.325.135.488.488,0,0,0-.143.349.483.483,0,0,0,.472.489h0a.456.456,0,0,0,.324-.135.488.488,0,0,0,.143-.349.482.482,0,0,0-.471-.489Z" transform="translate(-544.318 -1191.343)" fill="#fff"/>
        <path id="Trazado_660040" data-name="Trazado 660040" d="M613.334,1281.078l-1.662-.009V1276.4l1.662.014Zm-1.156-.512.651,0v-3.656l-.651-.005Z" transform="translate(-545.716 -1138.766)" fill="#fff"/>
        <path id="Trazado_660041" data-name="Trazado 660041" d="M1112.3,934.031V875.884l15.774.609v57.519Zm.505-57.621v57.115l14.764-.017V876.98Z" transform="translate(-992.359 -781.439)" fill="#fff"/>
        <path id="Trazado_660042" data-name="Trazado 660042" d="M1796.906,1517.582a1.749,1.749,0,0,1-1.227-.478,1.326,1.326,0,0,1-.408-.947v-13.634a1.576,1.576,0,0,1,1.658-1.454l11.68-.074a1.751,1.751,0,0,1,.625.107l.746.276-.748.272a.875.875,0,0,0-.629.785v13.538a.834.834,0,0,0,.624.766l.753.257-.74.29a1.768,1.768,0,0,1-.624.12l-11.679.176h-.029m11.43-16-11.4.072a1,1,0,0,0-1.079.871v13.634a.745.745,0,0,0,.234.531,1.18,1.18,0,0,0,.838.311l11.413-.172a1.308,1.308,0,0,1-.321-.854v-13.538a1.329,1.329,0,0,1,.317-.855" transform="translate(-1601.689 -1339.144)" fill="#fff"/>
        <path id="Trazado_660043" data-name="Trazado 660043" d="M1796.892,1664.22a1.734,1.734,0,0,1-1.212-.47,1.316,1.316,0,0,1-.41-.944v-13.382a1.59,1.59,0,0,1,1.656-1.466l11.68-.176a1.7,1.7,0,0,1,.629.1l.729.275-.73.271a.888.888,0,0,0-.632.794v13.289a.832.832,0,0,0,.622.758l.756.252-.739.3a1.785,1.785,0,0,1-.624.125l-11.679.277h-.045m11.442-15.851-11.4.172a1.012,1.012,0,0,0-1.082.883v13.382a.736.736,0,0,0,.234.527,1.135,1.135,0,0,0,.836.3l11.417-.271a1.3,1.3,0,0,1-.322-.853v-13.289a1.338,1.338,0,0,1,.316-.855" transform="translate(-1601.689 -1470.103)" fill="#fff"/>
        <path id="Trazado_660044" data-name="Trazado 660044" d="M1796.877,1809.083a1.718,1.718,0,0,1-1.2-.459,1.306,1.306,0,0,1-.41-.943v-13.675a1.6,1.6,0,0,1,1.654-1.478l11.679-.277a1.7,1.7,0,0,1,.63.1l.73.27-.728.277a.9.9,0,0,0-.634.8v13.579a.81.81,0,0,0,.62.75l.758.245-.737.3a1.79,1.79,0,0,1-.623.13l-11.68.379h-.062m11.455-16.242-11.4.27a1.024,1.024,0,0,0-1.084.895v13.675a.725.725,0,0,0,.232.524,1.148,1.148,0,0,0,.835.294l11.421-.371a1.292,1.292,0,0,1-.324-.853V1793.7a1.345,1.345,0,0,1,.314-.855" transform="translate(-1601.688 -1598.995)" fill="#fff"/>
        <path id="Trazado_660045" data-name="Trazado 660045" d="M1915.113,1517.167a1.761,1.761,0,0,1-.6-.1,1.415,1.415,0,0,1-1.014-1.316v-13.538a1.449,1.449,0,0,1,1.014-1.334,1.783,1.783,0,0,1,.625-.112l3.189-.02a1.693,1.693,0,0,1,1.23.481,1.329,1.329,0,0,1,.406.944v13.494a1.57,1.57,0,0,1-1.63,1.454l-3.189.048h-.03m3.224-15.839h-.008l-3.189.02a1.225,1.225,0,0,0-.425.076.877.877,0,0,0-.634.787v13.538a.833.833,0,0,0,.624.766,1.229,1.229,0,0,0,.429.068l3.189-.048a.99.99,0,0,0,1.055-.871V1502.17a.747.747,0,0,0-.234-.53,1.146,1.146,0,0,0-.807-.312" transform="translate(-1707.168 -1338.922)" fill="#fff"/>
        <path id="Trazado_660046" data-name="Trazado 660046" d="M1915.1,1663.388a1.743,1.743,0,0,1-.584-.1,1.4,1.4,0,0,1-1.016-1.31v-13.289a1.463,1.463,0,0,1,1.011-1.34,1.79,1.79,0,0,1,.625-.118l3.188-.048a1.715,1.715,0,0,1,1.232.471,1.319,1.319,0,0,1,.407.942v13.246a1.584,1.584,0,0,1-1.627,1.466l-3.189.076h-.048m3.254-15.618h-.02l-3.188.048a1.219,1.219,0,0,0-.426.079.89.89,0,0,0-.636.8v13.289a.833.833,0,0,0,.622.758,1.2,1.2,0,0,0,.429.064l3.188-.076a1,1,0,0,0,1.058-.882V1648.6a.738.738,0,0,0-.232-.526,1.131,1.131,0,0,0-.794-.3" transform="translate(-1707.169 -1469.573)" fill="#fff"/>
        <path id="Trazado_660047" data-name="Trazado 660047" d="M1915.083,1807.839a1.736,1.736,0,0,1-.567-.091,1.39,1.39,0,0,1-1.018-1.3v-13.579a1.476,1.476,0,0,1,1.01-1.346,1.787,1.787,0,0,1,.625-.123l3.189-.076a1.728,1.728,0,0,1,1.235.461,1.312,1.312,0,0,1,.407.941v13.535a1.6,1.6,0,0,1-1.625,1.477l-3.188.1h-.065m3.282-15.936h-.031l-3.189.075a1.237,1.237,0,0,0-.426.083.9.9,0,0,0-.639.8v13.579a.811.811,0,0,0,.62.75,1.222,1.222,0,0,0,.428.06l3.189-.1a1.016,1.016,0,0,0,1.061-.894v-13.535a.728.728,0,0,0-.231-.524,1.118,1.118,0,0,0-.782-.3" transform="translate(-1707.168 -1598.164)" fill="#fff"/>
        <rect id="Rectángulo_352842" data-name="Rectángulo 352842" width="2.527" height="16.459" transform="translate(96.679 136.087)" fill="#fff"/>
        <path id="Trazado_660048" data-name="Trazado 660048" d="M1436.286,875.5l-39.079-1.552v-3.023l39.079,1.528Zm-38.693-1.923L1435.9,875.1v-2.273l-38.307-1.5Z" transform="translate(-1246.549 -777.018)" fill="#fff"/>
        <path id="Trazado_660049" data-name="Trazado 660049" d="M309.5,1949.915v-17.341l17.467-.619.2,17.061Zm.584-16.778V1949.3l16.494-.839-.186-15.9Z" transform="translate(-276.131 -1723.635)" fill="#fff"/>
        <path id="Trazado_660050" data-name="Trazado 660050" d="M1156.363,1716.957l-.127-8.941,7.587-.111.127,8.941Zm.328-8.5.114,8.044,6.688-.1-.114-8.044Z" transform="translate(-1031.561 -1523.744)" fill="#fff"/>
        <path id="Trazado_660051" data-name="Trazado 660051" d="M1156.363,1717.588l-.127-8.941,2.366-.034.127,8.941Zm.328-8.5.114,8.044,1.468-.021-.114-8.044Z" transform="translate(-1031.561 -1524.375)" fill="#fff"/>
        <path id="Trazado_660052" data-name="Trazado 660052" d="M1285.15,1566.046l-.143-7.585,8.941-.165.143,7.585Zm.314-7.145.126,6.688,8.043-.148-.126-6.689Z" transform="translate(-1146.447 -1390.267)" fill="#fff"/>
        <path id="Trazado_660053" data-name="Trazado 660053" d="M1285.052,1560.827l-.045-2.365,8.941-.165.045,2.365Zm.412-1.925.028,1.469,8.043-.148-.028-1.469Z" transform="translate(-1146.447 -1390.267)" fill="#fff"/>
        <path id="Trazado_660054" data-name="Trazado 660054" d="M1400.531,1563.918l-.143-7.586,8.941-.165.143,7.586Zm.314-7.145.126,6.689,8.043-.148-.126-6.689Z" transform="translate(-1249.387 -1388.368)" fill="#fff"/>
        <path id="Trazado_660055" data-name="Trazado 660055" d="M1400.433,1558.7l-.044-2.366,8.941-.165.045,2.366Zm.412-1.925.028,1.468,8.043-.148-.028-1.469Z" transform="translate(-1249.387 -1388.368)" fill="#fff"/>
        <path id="Trazado_660056" data-name="Trazado 660056" d="M1511.76,1561.866l-.143-7.586,8.94-.165.143,7.586Zm.314-7.145.126,6.688,8.043-.148-.126-6.688Z" transform="translate(-1348.622 -1386.537)" fill="#fff"/>
        <path id="Trazado_660057" data-name="Trazado 660057" d="M1511.661,1556.646l-.044-2.366,8.94-.165.044,2.365Zm.412-1.925.028,1.468,8.043-.148-.028-1.468Z" transform="translate(-1348.622 -1386.537)" fill="#fff"/>
        <path id="Trazado_660058" data-name="Trazado 660058" d="M1514.2,1862.584v-7.673l8.842-.3v7.672Zm.448-7.239v6.775l7.945-.267v-6.774Z" transform="translate(-1350.93 -1654.634)" fill="#fff"/>
        <path id="Trazado_660059" data-name="Trazado 660059" d="M1514.211,1906.3v-2.389l8.842-.3V1906Zm.449-1.955v1.491l7.945-.267v-1.491Z" transform="translate(-1350.936 -1698.349)" fill="#fff"/>
        <path id="Trazado_660060" data-name="Trazado 660060" d="M1400.166,1866.416v-7.672l8.842-.3v7.673Zm.448-7.239v6.775l7.945-.267v-6.774Z" transform="translate(-1249.188 -1658.053)" fill="#fff"/>
        <path id="Trazado_660061" data-name="Trazado 660061" d="M1400.172,1910.131v-2.389l8.842-.3v2.389Zm.449-1.955v1.491l7.945-.267v-1.491Z" transform="translate(-1249.194 -1701.768)" fill="#fff"/>
        <path id="Trazado_660062" data-name="Trazado 660062" d="M1290.231,1870.112v-7.673l8.842-.3v7.672Zm.448-7.239v6.775l7.944-.267v-6.775Z" transform="translate(-1151.107 -1661.35)" fill="#fff"/>
        <path id="Trazado_660063" data-name="Trazado 660063" d="M1290.238,1913.826v-2.389l8.842-.3v2.389Zm.448-1.955v1.491l7.945-.267V1911.6Z" transform="translate(-1151.113 -1705.064)" fill="#fff"/>
        <path id="Trazado_660064" data-name="Trazado 660064" d="M1660.763,1707.385l-.165-8.94,7.585-.143.165,8.94Zm.292-8.5.148,8.043,6.688-.126-.148-8.043Z" transform="translate(-1481.539 -1515.177)" fill="#fff"/>
        <path id="Trazado_660065" data-name="Trazado 660065" d="M1709.174,1707.287l-.165-8.94,2.365-.045.165,8.94Zm.292-8.5.148,8.043,1.469-.028-.148-8.043Z" transform="translate(-1524.729 -1515.177)" fill="#fff"/>
        <path id="Trazado_660066" data-name="Trazado 660066" d="M1259.464,1665.855a8.868,8.868,0,0,1-6.2-2.541,10.364,10.364,0,0,1-3.059-7.443c0-5.671,4.281-10.366,9.543-10.465l22.981-.434a8.52,8.52,0,0,1,6.15,2.491,10.284,10.284,0,0,1,2.971,7.329c0,5.5-4.085,10.115-9.105,10.284l-22.982.774c-.1,0-.2.005-.3.005m23.426-20.3h-.148l-22.981.434c-4.947.094-8.971,4.526-8.971,9.882a9.779,9.779,0,0,0,2.881,7.023,8.278,8.278,0,0,0,6.074,2.372l22.981-.774.01.292-.01-.292c4.71-.158,8.542-4.51,8.542-9.7a9.7,9.7,0,0,0-2.8-6.913,7.936,7.936,0,0,0-5.582-2.326" transform="translate(-1115.398 -1467.595)" fill="#fff"/>
      </g>
    </g>
    <g id="Grupo_952768" data-name="Grupo 952768" transform="translate(37.565 222.643)">
      <g id="Grupo_952767" data-name="Grupo 952767" clip-path="url(#clip-path-20)">
        <rect id="Rectángulo_352844" data-name="Rectángulo 352844" width="66.081" height="70.947" transform="translate(-1.476 0)" fill="#800070"/>
      </g>
    </g>
    <g id="Grupo_952773" data-name="Grupo 952773" transform="translate(0 0)">
      <g id="Grupo_952772" data-name="Grupo 952772" clip-path="url(#clip-path-2)">
        <g id="Grupo_952771" data-name="Grupo 952771" transform="translate(63.423 235.564)" opacity="0.5">
          <g id="Grupo_952770" data-name="Grupo 952770">
            <g id="Grupo_952769" data-name="Grupo 952769" clip-path="url(#clip-path-22)">
              <path id="Trazado_660068" data-name="Trazado 660068" d="M588.215,2240.97c-.516-8.74,5.273-26.542,9.485-34.958,4.121-8.235,8.064-21.263,8.1-21.394l.257.077c-.039.131-3.989,13.181-8.12,21.436-4.2,8.39-9.97,26.126-9.458,34.822Z" transform="translate(-588.183 -2184.618)" fill="#fff"/>
            </g>
          </g>
        </g>
      </g>
    </g>
    <g id="Grupo_952775" data-name="Grupo 952775" transform="translate(44.277 247.388)">
      <g id="Grupo_952774" data-name="Grupo 952774" clip-path="url(#clip-path-23)">
        <rect id="Rectángulo_352847" data-name="Rectángulo 352847" width="53.888" height="41.449" transform="translate(-7.028 48.968) rotate(-82.668)" fill="#00cca7"/>
      </g>
    </g>
    <g id="Grupo_952777" data-name="Grupo 952777" transform="translate(224.924 294.712)">
      <g id="Grupo_952776" data-name="Grupo 952776" clip-path="url(#clip-path-24)">
        <rect id="Rectángulo_352848" data-name="Rectángulo 352848" width="11.14" height="5.777" transform="translate(-0.469 0.032) rotate(-4.63)" fill="url(#linear-gradient-6)"/>
      </g>
    </g>
    <g id="Grupo_952779" data-name="Grupo 952779" transform="translate(232.384 292.026)">
      <g id="Grupo_952778" data-name="Grupo 952778" clip-path="url(#clip-path-25)">
        <rect id="Rectángulo_352849" data-name="Rectángulo 352849" width="2.897" height="4.324" transform="translate(-0.069 0.001) rotate(-0.928)" fill="url(#linear-gradient-7)"/>
      </g>
    </g>
    <g id="Grupo_952781" data-name="Grupo 952781" transform="translate(262.823 292.44)">
      <g id="Grupo_952780" data-name="Grupo 952780" clip-path="url(#clip-path-26)">
        <rect id="Rectángulo_352850" data-name="Rectángulo 352850" width="7.689" height="8.715" transform="translate(-1.004 0.053) rotate(-4.63)" fill="url(#linear-gradient-8)"/>
      </g>
    </g>
    <g id="Grupo_952783" data-name="Grupo 952783" transform="translate(264.611 288.41)">
      <g id="Grupo_952782" data-name="Grupo 952782" clip-path="url(#clip-path-27)">
        <rect id="Rectángulo_352851" data-name="Rectángulo 352851" width="4.095" height="6.204" transform="translate(-0.099 0.002) rotate(-0.928)" fill="url(#linear-gradient-9)"/>
      </g>
    </g>
    <g id="Grupo_952785" data-name="Grupo 952785" transform="translate(227.766 218.638)">
      <g id="Grupo_952784" data-name="Grupo 952784" clip-path="url(#clip-path-28)">
        <rect id="Rectángulo_352852" data-name="Rectángulo 352852" width="19.692" height="75.124" transform="translate(-0.303 0) rotate(-0.138)" fill="url(#linear-gradient-10)"/>
      </g>
    </g>
    <g id="Grupo_952792" data-name="Grupo 952792" transform="translate(0 0)">
      <g id="Grupo_952791" data-name="Grupo 952791" clip-path="url(#clip-path-2)">
        <g id="Grupo_952790" data-name="Grupo 952790" transform="translate(229.008 218.64)" opacity="0.3" style="mix-blend-mode: multiply;isolation: isolate">
          <g id="Grupo_952789" data-name="Grupo 952789">
            <g id="Grupo_952788" data-name="Grupo 952788" clip-path="url(#clip-path-30)">
              <g id="Grupo_952787" data-name="Grupo 952787" transform="translate(0 0)">
                <g id="Grupo_952786" data-name="Grupo 952786" clip-path="url(#clip-path-31)">
                  <rect id="Rectángulo_352853" data-name="Rectángulo 352853" width="18.33" height="76.438" transform="translate(-0.183 -1.319) rotate(-0.137)" fill="url(#linear-gradient-11)"/>
                </g>
              </g>
            </g>
          </g>
        </g>
      </g>
    </g>
    <g id="Grupo_952794" data-name="Grupo 952794" transform="translate(232.86 217.526)">
      <g id="Grupo_952793" data-name="Grupo 952793" clip-path="url(#clip-path-32)">
        <rect id="Rectángulo_352856" data-name="Rectángulo 352856" width="37.728" height="73.744" transform="translate(-0.177 0) rotate(-0.138)" fill="url(#linear-gradient-12)"/>
      </g>
    </g>
    <g id="Grupo_952796" data-name="Grupo 952796" transform="translate(0 0)">
      <g id="Grupo_952795" data-name="Grupo 952795" clip-path="url(#clip-path-2)">
        <path id="Trazado_660077" data-name="Trazado 660077" d="M1905.228,1644.682c.064,2.391,3.993,4.5,7.158,5.143,7.4,1.51,15.976-3.866,20.047-9.812.8-1.168,1.688-2.583,1.9-2.474.484.248-3.964,7.555-5.892,15.867-.987,4.252-.728,6.244-2.573,9.074a2.789,2.789,0,0,0-.752,2.068c.453,1.9,4.8,2.393,7.812,2.735a69.474,69.474,0,0,0,9.083.284c4.7-.068,5.066-.312,6.138.214,3.266,1.6,3.045,5.444,5.5,5.956,2.064.43,4.158-1.875,4.822-2.606,3.451-3.8,3.267-8.379,3.879-13,1.423-10.74,7.258-22.508,12.966-29.957,1.731-2.259,2.935-3.447,3.01-5.547.221-6.163-9.543-12.967-17.673-13.749a61.058,61.058,0,0,0-9.959.206c-1.5.141-3.086.348-4.8.647-4.149.726-7.037,1.231-9.981,2.578-11.87,5.431-9.279,17.52-22.126,25.878-4.417,2.874-8.635,3.989-8.567,6.493" transform="translate(-1699.79 -1435.288)" fill="#fff"/>
      </g>
    </g>
    <g id="Grupo_952798" data-name="Grupo 952798" transform="translate(246.905 167.198)">
      <g id="Grupo_952797" data-name="Grupo 952797" clip-path="url(#clip-path-34)">
        <rect id="Rectángulo_352858" data-name="Rectángulo 352858" width="12.969" height="18.23" transform="translate(-2.21 10.974) rotate(-83.533)" fill="url(#linear-gradient-13)"/>
      </g>
    </g>
    <g id="Grupo_952800" data-name="Grupo 952800" transform="translate(247.662 160.839)">
      <g id="Grupo_952799" data-name="Grupo 952799" clip-path="url(#clip-path-35)">
        <rect id="Rectángulo_352859" data-name="Rectángulo 352859" width="11.611" height="11.996" transform="translate(-3.411 0.995) rotate(-18.768)" fill="url(#linear-gradient-14)"/>
      </g>
    </g>
    <g id="Grupo_952802" data-name="Grupo 952802" transform="translate(249.082 165.434)">
      <g id="Grupo_952801" data-name="Grupo 952801" clip-path="url(#clip-path-36)">
        <rect id="Rectángulo_352860" data-name="Rectángulo 352860" width="7.492" height="6.692" transform="translate(-1.129 0.085) rotate(-6.892)" fill="url(#linear-gradient-15)"/>
      </g>
    </g>
    <g id="Grupo_952809" data-name="Grupo 952809" transform="translate(0 0)">
      <g id="Grupo_952808" data-name="Grupo 952808" clip-path="url(#clip-path-2)">
        <g id="Grupo_952807" data-name="Grupo 952807" transform="translate(206.6 196.811)" opacity="0.15">
          <g id="Grupo_952806" data-name="Grupo 952806">
            <g id="Grupo_952805" data-name="Grupo 952805" clip-path="url(#clip-path-38)">
              <g id="Grupo_952804" data-name="Grupo 952804" transform="translate(0.001 0)">
                <g id="Grupo_952803" data-name="Grupo 952803" clip-path="url(#clip-path-39)">
                  <rect id="Rectángulo_352861" data-name="Rectángulo 352861" width="29.916" height="19.302" transform="translate(0 -0.065)" fill="url(#linear-gradient-16)"/>
                </g>
              </g>
            </g>
          </g>
        </g>
      </g>
    </g>
    <g id="Grupo_952811" data-name="Grupo 952811" transform="translate(199.43 212.304)">
      <g id="Grupo_952810" data-name="Grupo 952810" clip-path="url(#clip-path-40)">
        <rect id="Rectángulo_352864" data-name="Rectángulo 352864" width="6.823" height="8.335" transform="matrix(0.518, -0.855, 0.855, 0.518, -1.563, 2.397)" fill="url(#linear-gradient-17)"/>
      </g>
    </g>
    <g id="Grupo_952818" data-name="Grupo 952818" transform="translate(0 0)">
      <g id="Grupo_952817" data-name="Grupo 952817" clip-path="url(#clip-path-2)">
        <path id="Trazado_660083" data-name="Trazado 660083" d="M2398.434,1691.705c3.25.29,10.565.422,15.739-4.365,8.614-7.968,4.34-23.136,1.342-29.659-3.437-7.479-8.909-11.665-12.233-14.209-4.125-3.156-6.643-5.083-9.672-4.651-7.833,1.116-13.259,17.172-8.958,21.769,1.408,1.5,2.8.653,6.877,1.95,1.327.423,11.23,3.577,12.954,10.871,1.207,5.1-1.866,11.083-7.334,15.1l1.286,3.2" transform="translate(-2126.165 -1462.056)" fill="#fff"/>
        <g id="Grupo_952816" data-name="Grupo 952816" transform="translate(225.622 192.081)" opacity="0.15">
          <g id="Grupo_952815" data-name="Grupo 952815">
            <g id="Grupo_952814" data-name="Grupo 952814" clip-path="url(#clip-path-42)">
              <g id="Grupo_952813" data-name="Grupo 952813" transform="translate(0 0)">
                <g id="Grupo_952812" data-name="Grupo 952812" clip-path="url(#clip-path-43)">
                  <rect id="Rectángulo_352865" data-name="Rectángulo 352865" width="62.355" height="47.241" transform="translate(0 -0.443)" fill="url(#linear-gradient-18)"/>
                </g>
              </g>
            </g>
          </g>
        </g>
      </g>
    </g>
    <g id="Grupo_952820" data-name="Grupo 952820" transform="translate(194.502 205.048)">
      <g id="Grupo_952819" data-name="Grupo 952819" clip-path="url(#clip-path-44)">
        <rect id="Rectángulo_352868" data-name="Rectángulo 352868" width="76.616" height="29.903" transform="translate(0 0)" fill="url(#linear-gradient-19)"/>
      </g>
    </g>
    <g id="Grupo_952822" data-name="Grupo 952822" transform="translate(124.234 154.943)">
      <g id="Grupo_952821" data-name="Grupo 952821" clip-path="url(#clip-path-45)">
        <rect id="Rectángulo_352869" data-name="Rectángulo 352869" width="87.484" height="86.394" transform="translate(-4.066 0)" fill="url(#linear-gradient-20)"/>
      </g>
    </g>
    <g id="Grupo_952830" data-name="Grupo 952830" transform="translate(0 0)">
      <g id="Grupo_952829" data-name="Grupo 952829" clip-path="url(#clip-path-2)">
        <g id="Grupo_952825" data-name="Grupo 952825" transform="translate(194.502 205.049)" opacity="0.3" style="mix-blend-mode: multiply;isolation: isolate">
          <g id="Grupo_952824" data-name="Grupo 952824">
            <g id="Grupo_952823" data-name="Grupo 952823" clip-path="url(#clip-path-47)">
              <path id="Trazado_660087" data-name="Trazado 660087" d="M1805.992,1901.619l9.131,2.781a9.487,9.487,0,0,0,3.071,5.6c4.612,3.824,10.771-.346,19.363,4.137,4.312,2.25,3.493,3.681,7.534,5.251,6.681,2.595,9.74-1,15.653,1.363,5.981,2.389,6.571,7.553,9.963,7.367,1.451-.079,3.319-1.135,5.4-5.137l1.5.456a3.3,3.3,0,0,1,2.215,4.226l-.379,1.114a3.535,3.535,0,0,1-4.381,2.188l-71.253-21.947Z" transform="translate(-1803.81 -1901.619)" fill="#d8dee8"/>
            </g>
          </g>
        </g>
        <g id="Grupo_952828" data-name="Grupo 952828" transform="translate(127.788 162.3)" opacity="0.56">
          <g id="Grupo_952827" data-name="Grupo 952827">
            <g id="Grupo_952826" data-name="Grupo 952826" clip-path="url(#clip-path-48)">
              <path id="Trazado_660088" data-name="Trazado 660088" d="M1209.459,1574.5c17.87,5.751,36.95-4.433,42.467-23.171,5.632-19.127-5.089-39.392-23.783-44.82-18.4-5.343-37.081,5.906-41.891,24.7-4.715,18.424,5.606,37.623,23.207,43.288" transform="translate(-1185.111 -1505.174)" fill="#fff"/>
            </g>
          </g>
        </g>
      </g>
    </g>
    <g id="Grupo_952832" data-name="Grupo 952832" transform="translate(122.847 156.798)">
      <g id="Grupo_952831" data-name="Grupo 952831" clip-path="url(#clip-path-49)">
        <rect id="Rectángulo_352873" data-name="Rectángulo 352873" width="103.029" height="103.862" transform="translate(-22.027 82.483) rotate(-77.716)" fill="url(#linear-gradient-21)"/>
      </g>
    </g>
    <g id="Grupo_952834" data-name="Grupo 952834" transform="translate(124.983 159.183)">
      <g id="Grupo_952833" data-name="Grupo 952833" clip-path="url(#clip-path-50)">
        <rect id="Rectángulo_352874" data-name="Rectángulo 352874" width="97.715" height="98.491" transform="translate(-21.419 77.513) rotate(-77.233)" fill="url(#linear-gradient-22)"/>
      </g>
    </g>
    <g id="Grupo_952836" data-name="Grupo 952836" transform="translate(264.712 226.103)">
      <g id="Grupo_952835" data-name="Grupo 952835" clip-path="url(#clip-path-51)">
        <rect id="Rectángulo_352875" data-name="Rectángulo 352875" width="7.518" height="9.059" transform="translate(-2.178 4.396) rotate(-68.808)" fill="url(#linear-gradient-23)"/>
      </g>
    </g>
    <g id="Grupo_952838" data-name="Grupo 952838" transform="translate(251.573 177.753)">
      <g id="Grupo_952837" data-name="Grupo 952837" clip-path="url(#clip-path-52)">
        <rect id="Rectángulo_352876" data-name="Rectángulo 352876" width="4.886" height="3.587" transform="matrix(0.998, -0.068, 0.068, 0.998, -0.277, 0.015)" fill="url(#linear-gradient-24)"/>
      </g>
    </g>
    <g id="Grupo_952840" data-name="Grupo 952840" transform="translate(244.047 180.503)">
      <g id="Grupo_952839" data-name="Grupo 952839" clip-path="url(#clip-path-53)">
        <rect id="Rectángulo_352877" data-name="Rectángulo 352877" width="14.092" height="31.007" transform="translate(0 0)" fill="url(#linear-gradient-25)"/>
      </g>
    </g>
  </g>
</svg>
