<svg id="Grupo_953109" data-name="Grupo 953109" xmlns="http://www.w3.org/2000/svg" xmlns:xlink="http://www.w3.org/1999/xlink" width="78.157" height="69.319" viewBox="0 0 78.157 69.319">
  <defs>
    <clipPath id="clip-path">
      <rect id="Rectángulo_353096" data-name="Rectángulo 353096" width="78.157" height="69.32" fill="#ffd947"/>
    </clipPath>
  </defs>
  <g id="Grupo_953108" data-name="Grupo 953108" clip-path="url(#clip-path)">
    <path id="Trazado_660503" data-name="Trazado 660503" d="M218.92,192.139c-.124.487-.237.977-.376,1.459a10.042,10.042,0,0,1-3.736,5.25c-5.489,4.211-11.55,4.929-18.034,2.891a33.2,33.2,0,0,1-11.518-6.547,5.636,5.636,0,0,1-.548-.53c-1.275-1.419-.768-3.008,1.1-3.417a4.981,4.981,0,0,1,3.526.554,32.728,32.728,0,0,0,3.944,1.77,1.88,1.88,0,0,0,2.167-.316q-1.824-2.238-3.652-4.481c-2.993-3.662-6.015-7.3-8.961-11a10.574,10.574,0,0,1-1.5-2.788,2.18,2.18,0,0,1,.705-2.55,2.076,2.076,0,0,1,2.557-.262,17.95,17.95,0,0,1,3.061,2.455c2.239,2.255,4.388,4.6,6.58,6.9.3.311.631.586,1.21,1.117a2.619,2.619,0,0,1,.35-.707,25,25,0,0,1,7.489-5.553,9.878,9.878,0,0,1,4.951-1,7.374,7.374,0,0,1,5.26,2.9c2.613,3.274,4.716,6.808,5.323,11.055a.722.722,0,0,0,.1.2Z" transform="translate(-140.763 -133.516)" fill="#ffd947"/>
    <path id="Trazado_660504" data-name="Trazado 660504" d="M57.682,41.94c.008-1.551.024-3.1.024-4.654q0-11.791,0-23.582v-.951H7.5v29.27h.952q14.2,0,28.391-.012a1,1,0,0,1,1.1.717,35.322,35.322,0,0,0,1.711,3.093H35.642v4.951c.26.012.528.036.8.037,2.213,0,4.427.014,6.64-.008a1.264,1.264,0,0,1,1.109.49c.918,1.117,1.877,2.2,2.922,3.416-.336.027-.542.059-.748.059q-21.446,0-42.891,0C1.231,54.765,0,53.5,0,51.242q0-23.85,0-47.7C0,1.224,1.21,0,3.51,0Q32.588,0,61.665,0a3.149,3.149,0,0,1,3.5,3.484q0,17.4,0,34.8v.75a16.576,16.576,0,0,0-6.258,2.289c-.392.234-.827.4-1.242.59l.014.025M15.549,45.878H7.726v4.884h7.823Zm6.139,4.894h7.823V45.878H21.688ZM7.712,8.853H15.54V4H7.712Zm21.8-4.843h-7.82V8.865h7.82Zm6.119,4.84h7.832V4H35.634Zm13.983,0h7.819V4.005H49.617Z" transform="translate(0 0)" fill="#ffd947"/>
    <path id="Trazado_660505" data-name="Trazado 660505" d="M120.468,84.376c0-2.671.01-5.342-.006-8.013a1.751,1.751,0,0,1,.943-1.839,1.784,1.784,0,0,1,2.016.464c3.147,2.66,6.313,5.3,9.468,7.946,1.2,1.01,1.206,1.953,0,2.969-3.191,2.687-6.395,5.357-9.586,8.043a1.677,1.677,0,0,1-1.9.359,1.653,1.653,0,0,1-.937-1.687c.009-2.747,0-5.495,0-8.242" transform="translate(-93.592 -57.783)" fill="#ffd947"/>
    <path id="Trazado_660506" data-name="Trazado 660506" d="M235.469,187.918a2.042,2.042,0,0,1-.307.408c-1.126.906-2.262,1.8-3.235,2.572l-3.082-2.873c1.951,0,3.77,0,5.589,0,.35,0,.7-.05,1.05-.078l-.016-.026" transform="translate(-177.801 -146.003)" fill="#ffd947"/>
  </g>
</svg>
