<svg id="Grupo_973549" data-name="Grupo 973549" xmlns="http://www.w3.org/2000/svg" xmlns:xlink="http://www.w3.org/1999/xlink" width="412.926" height="442.983" viewBox="0 0 412.926 442.983">
  <defs>
    <clipPath id="clip-path">
      <rect id="Rectángulo_353182" data-name="Rectángulo 353182" width="412.926" height="442.983" fill="none"/>
    </clipPath>
    <clipPath id="clip-path-3">
      <rect id="Rectángulo_353114" data-name="Rectángulo 353114" width="380.55" height="442.983" transform="translate(16.648)" fill="#00cca7"/>
    </clipPath>
    <clipPath id="clip-path-4">
      <rect id="Rectángulo_353115" data-name="Rectángulo 353115" width="412.926" height="395.532" transform="translate(0 22.688)" fill="#00cca7"/>
    </clipPath>
    <clipPath id="clip-path-7">
      <rect id="Rectángulo_353119" data-name="Rectángulo 353119" width="194.3" height="34.55" transform="translate(86.003 371.375)" fill="none"/>
    </clipPath>
    <clipPath id="clip-path-9">
      <path id="Trazado_660527" data-name="Trazado 660527" d="M110.113,265.665l-9.83,36.92L93.224,329.1a4.637,4.637,0,0,0,4.479,5.84h60.46a1.541,1.541,0,0,0,1.54-1.54v-3.11a1.541,1.541,0,0,0-1.54-1.54H152a7.563,7.563,0,0,1-7.55-7.09l-1.151-17.93-1.389-21.5-1.06-16.56Z" fill="none"/>
    </clipPath>
    <clipPath id="clip-path-10">
      <rect id="Rectángulo_353122" data-name="Rectángulo 353122" width="52.96" height="46.52" transform="translate(99.043 282.225)" fill="none"/>
    </clipPath>
    <clipPath id="clip-path-12">
      <rect id="Rectángulo_353124" data-name="Rectángulo 353124" width="43.02" height="38.79" transform="translate(100.283 265.665)" fill="none"/>
    </clipPath>
    <clipPath id="clip-path-15">
      <rect id="Rectángulo_353128" data-name="Rectángulo 353128" width="239.497" height="171.428" transform="translate(21.108 104.948)" fill="none"/>
    </clipPath>
    <clipPath id="clip-path-16">
      <path id="Trazado_660550" data-name="Trazado 660550" d="M85.875,332.98l43.78,12.556h133.7L200.864,332.98Z" fill="none"/>
    </clipPath>
    <clipPath id="clip-path-17">
      <rect id="Rectángulo_353169" data-name="Rectángulo 353169" width="177.478" height="12.555" transform="translate(85.875 332.981)" fill="none"/>
    </clipPath>
    <clipPath id="clip-path-21">
      <path id="Trazado_660576" data-name="Trazado 660576" d="M263.943,254.255c-2.39,1.62-3.86,2.82-4.04,2.98a.031.031,0,0,1-.02.01,43.6,43.6,0,0,0-11.02,5.19c-14.52,9.68-18.15,26.96-17.05,48.29.391,7.34,1.33,15.16,2.58,23.32.131.85.27,1.71.4,2.57.7,4.33,1.471,8.76,2.281,13.25,3.869,21.33,8.7,44.19,10.539,66.3q5.535-.75,11.02-1.76c1.77-.33,3.541-.68,5.3-1.05q9.84-2.07,19.4-5.02c30.761-9.53,58.71-26,78.991-49.59-5.351-33.01-13.811-79.35-20.69-90.12-4.441-6.95-11.44-11.76-18.221-15.02a77.37,77.37,0,0,0-19.4-6.23,26.252,26.252,0,0,0-6.8-2.37c-.569-.12-1.14-.21-1.71-.29a29.481,29.481,0,0,0-3.992-.266c-11.238,0-21.96,6.031-27.568,9.806" fill="none"/>
    </clipPath>
    <clipPath id="clip-path-22">
      <rect id="Rectángulo_353173" data-name="Rectángulo 353173" width="36.67" height="54.63" transform="translate(234.003 315.075)" fill="none"/>
    </clipPath>
    <clipPath id="clip-path-24">
      <rect id="Rectángulo_353175" data-name="Rectángulo 353175" width="108.47" height="170.57" transform="translate(253.853 244.665)" fill="none"/>
    </clipPath>
    <clipPath id="clip-path-27">
      <path id="Trazado_660579" data-name="Trazado 660579" d="M205.4,306.492A75.649,75.649,0,0,0,187.31,326.52s-10.394,1.743-10.394,5.524-3.466,24.462,17.366,30.35,26.887-2.643,26.887-2.643,35.506-21.069,42.01-29.8a43.824,43.824,0,0,0,5.727-43.785l-20.3-24.019c-24.217,5.748-31.521,35.466-43.208,44.347" fill="none"/>
    </clipPath>
    <clipPath id="clip-path-28">
      <rect id="Rectángulo_353178" data-name="Rectángulo 353178" width="33.327" height="30.388" transform="translate(181.316 325.005)" fill="none"/>
    </clipPath>
    <clipPath id="clip-path-31">
      <rect id="Rectángulo_353179" data-name="Rectángulo 353179" width="62.605" height="37.465" transform="translate(239.679 158.798)" fill="none"/>
    </clipPath>
    <clipPath id="clip-path-32">
      <path id="Trazado_660595" data-name="Trazado 660595" d="M368.886,236.475c-8.6.52-18.486,1.039-29.813.86-22.459-.36-34.85,2.09-41.86,7.67-.38.31-.759.63-1.109.95-.47.44-.91.89-1.331,1.35a22.37,22.37,0,0,0-4.429,7.86,43.39,43.39,0,0,0-1.671,6.98c-1.61,9.87-11.95,61.98-20.77,106.09-2.01,10.04-3.939,19.67-5.67,28.29v.01c-1.34,6.65-2.55,12.69-3.6,17.87,1.77-.33,3.541-.68,5.3-1.05q9.84-2.07,19.4-5.02c30.761-9.53,58.71-26,78.991-49.59q2.893-3.36,5.569-6.91c20.75-27.55,36.52-65.94,42.46-105.08.2-1.29.38-2.57.56-3.86a3.906,3.906,0,0,0-.249-.32c-4.989-5.539-12.245-6.995-22.322-6.995-5.587,0-12.041.448-19.456.9" fill="none"/>
    </clipPath>
  </defs>
  <g id="Grupo_953195" data-name="Grupo 953195" clip-path="url(#clip-path)">
    <g id="Grupo_953120" data-name="Grupo 953120">
      <g id="Grupo_953119" data-name="Grupo 953119" clip-path="url(#clip-path)">
        <g id="Grupo_953115" data-name="Grupo 953115" opacity="0.7">
          <g id="Grupo_953114" data-name="Grupo 953114">
            <g id="Grupo_953113" data-name="Grupo 953113" clip-path="url(#clip-path-3)">
              <path id="Trazado_660507" data-name="Trazado 660507" d="M26.264,137.971s-27.877,71.988,11.3,144.5,119.879,110.8,184.47,143.549,131.66,16.8,163.533-36.838-11.845-91.928-11.9-168.418S385.115,124.025,343.7,59.4s-143.059-78.925-219.9-31-97.54,109.565-97.54,109.565" fill="#00cca7"/>
            </g>
          </g>
        </g>
        <path id="Trazado_660508" data-name="Trazado 660508" d="M54.193,58.624l.56-.507c51.569-46.435,120.065-48.528,169.964,1.457,26.007,26.053,72.187,21.067,105.227,30.49,113.918,32.49,94.222,187.055,37.95,261.771-50.78,67.424-160.807,82.656-234.73,49.482C68.205,372.166,22.465,307.042,6.187,238.948q-2.448-10.243-4-20.672C-6.376,160.309,10.07,98.746,54.193,58.624" fill="#73caa6"/>
        <g id="Grupo_953118" data-name="Grupo 953118">
          <g id="Grupo_953117" data-name="Grupo 953117">
            <g id="Grupo_953116" data-name="Grupo 953116" clip-path="url(#clip-path-4)">
              <path id="Trazado_660509" data-name="Trazado 660509" d="M54.193,58.624l.56-.507c51.569-46.435,120.065-48.528,169.964,1.457,26.007,26.053,72.187,21.067,105.227,30.49,113.918,32.49,94.222,187.055,37.95,261.771-50.78,67.424-160.807,82.656-234.73,49.482C68.205,372.166,22.465,307.042,6.187,238.948q-2.448-10.243-4-20.672C-6.376,160.309,10.07,98.746,54.193,58.624" fill="#00cca7"/>
            </g>
          </g>
        </g>
      </g>
    </g>
    <path id="Trazado_660510" data-name="Trazado 660510" d="M404.182,153.291H297.442V141.173h91.74" fill="none" stroke="#36005f" stroke-miterlimit="10" stroke-width="1"/>
    <line id="Línea_245" data-name="Línea 245" y1="6.198" transform="translate(343.312 153.291)" fill="none" stroke="#36005f" stroke-miterlimit="10" stroke-width="1"/>
    <path id="Trazado_660511" data-name="Trazado 660511" d="M334.719,153.926l3.44,22.75h5.153" fill="none" stroke="#36005f" stroke-miterlimit="10" stroke-width="1"/>
    <path id="Trazado_660512" data-name="Trazado 660512" d="M319.977,96.166v45.008h-9.583V82.825h9.583v2.53" fill="none" stroke="#36005f" stroke-miterlimit="10" stroke-width="1"/>
    <line id="Línea_246" data-name="Línea 246" y2="1.843" transform="translate(319.977 89.655)" fill="none" stroke="#36005f" stroke-miterlimit="10" stroke-width="1"/>
    <path id="Trazado_660513" data-name="Trazado 660513" d="M343.312,98.37V82.825H319.976" fill="none" stroke="#36005f" stroke-miterlimit="10" stroke-width="1"/>
    <path id="Trazado_660514" data-name="Trazado 660514" d="M338.9,141.174h-9.583v-42.8H338.9" fill="none" stroke="#36005f" stroke-miterlimit="10" stroke-width="1"/>
    <path id="Trazado_660515" data-name="Trazado 660515" d="M362.232,130.174v-31.8H338.9" fill="none" stroke="#36005f" stroke-miterlimit="10" stroke-width="1"/>
    <line id="Línea_247" data-name="Línea 247" y2="25.842" transform="translate(338.896 115.331)" fill="none" stroke="#36005f" stroke-miterlimit="10" stroke-width="1"/>
    <line id="Línea_248" data-name="Línea 248" y2="4.995" transform="translate(338.896 107.93)" fill="none" stroke="#36005f" stroke-miterlimit="10" stroke-width="1"/>
    <line id="Línea_249" data-name="Línea 249" y2="2.413" transform="translate(338.896 100.879)" fill="none" stroke="#36005f" stroke-miterlimit="10" stroke-width="1"/>
    <line id="Línea_250" data-name="Línea 250" x2="9.583" transform="translate(310.394 97.542)" fill="none" stroke="#36005f" stroke-miterlimit="10" stroke-width="1"/>
    <line id="Línea_251" data-name="Línea 251" x2="7.719" transform="translate(312.257 107.93)" fill="none" stroke="#36005f" stroke-miterlimit="10" stroke-width="1"/>
    <line id="Línea_252" data-name="Línea 252" x2="6.788" transform="translate(329.314 130.506)" fill="none" stroke="#36005f" stroke-miterlimit="10" stroke-width="1"/>
    <line id="Línea_253" data-name="Línea 253" x2="9.583" transform="translate(329.314 134.496)" fill="none" stroke="#36005f" stroke-miterlimit="10" stroke-width="1"/>
    <path id="Trazado_660516" data-name="Trazado 660516" d="M343.312,109.8h15.52v6.242" fill="none" stroke="#36005f" stroke-miterlimit="10" stroke-width="1"/>
    <path id="Trazado_660517" data-name="Trazado 660517" d="M355.727,116.046H343.312v-2.435" fill="none" stroke="#36005f" stroke-miterlimit="10" stroke-width="1"/>
    <g id="Grupo_953122" data-name="Grupo 953122">
      <g id="Grupo_953121" data-name="Grupo 953121" clip-path="url(#clip-path)">
        <path id="Trazado_660518" data-name="Trazado 660518" d="M342.266,169l1.047,7.679" fill="none" stroke="#36005f" stroke-miterlimit="10" stroke-width="1"/>
        <path id="Trazado_660519" data-name="Trazado 660519" d="M341.306,161.957q.3,2.239.611,4.48" fill="none" stroke="#36005f" stroke-miterlimit="10" stroke-width="1"/>
        <path id="Trazado_660520" data-name="Trazado 660520" d="M340.125,153.291l.426,3.126" fill="none" stroke="#36005f" stroke-miterlimit="10" stroke-width="1"/>
        <path id="Trazado_660521" data-name="Trazado 660521" d="M389.828,141.174H352.7a5.334,5.334,0,0,1,0-10.668h37.128" fill="none" stroke="#36005f" stroke-miterlimit="10" stroke-width="1"/>
        <path id="Trazado_660522" data-name="Trazado 660522" d="M403.828,141.174H376.7a5.334,5.334,0,0,1,0-10.668h19.128" fill="none" stroke="#36005f" stroke-miterlimit="10" stroke-width="1"/>
        <line id="Línea_254" data-name="Línea 254" x2="17.14" transform="translate(376.619 133.413)" fill="none" stroke="#36005f" stroke-miterlimit="10" stroke-width="1"/>
        <line id="Línea_255" data-name="Línea 255" x1="15.148" transform="translate(383.361 135.84)" fill="none" stroke="#36005f" stroke-miterlimit="10" stroke-width="1"/>
        <line id="Línea_256" data-name="Línea 256" x2="14.503" transform="translate(379.256 138.663)" fill="none" stroke="#36005f" stroke-miterlimit="10" stroke-width="1"/>
      </g>
    </g>
    <g id="Grupo_953130" data-name="Grupo 953130">
      <g id="Grupo_953129" data-name="Grupo 953129" clip-path="url(#clip-path)">
        <g id="Grupo_953128" data-name="Grupo 953128" opacity="0.3">
          <g id="Grupo_953127" data-name="Grupo 953127">
            <g id="Grupo_953126" data-name="Grupo 953126" clip-path="url(#clip-path-7)">
              <g id="Grupo_953125" data-name="Grupo 953125" opacity="0.7">
                <g id="Grupo_953124" data-name="Grupo 953124">
                  <g id="Grupo_953123" data-name="Grupo 953123" clip-path="url(#clip-path-7)">
                    <path id="Trazado_660523" data-name="Trazado 660523" d="M280.3,371.375l-135.78,34.55q-5.8-2.115-11.36-4.61a199.526,199.526,0,0,1-47.14-29.92c-.01,0-.01,0-.02-.02Z"/>
                  </g>
                </g>
              </g>
            </g>
          </g>
        </g>
        <path id="Trazado_660524" data-name="Trazado 660524" d="M159.7,330.285v3.11a1.541,1.541,0,0,1-1.54,1.54H97.7a4.637,4.637,0,0,1-4.48-5.84l7.06-26.51,9.83-36.92h30.74l1.06,16.56,1.39,21.5,1.15,17.93a7.564,7.564,0,0,0,7.55,7.09h6.16a1.541,1.541,0,0,1,1.54,1.54" fill="#5ca081"/>
      </g>
    </g>
    <g id="Grupo_953144" data-name="Grupo 953144">
      <g id="Grupo_953143" data-name="Grupo 953143" clip-path="url(#clip-path-9)">
        <g id="Grupo_953136" data-name="Grupo 953136" opacity="0.3">
          <g id="Grupo_953135" data-name="Grupo 953135">
            <g id="Grupo_953134" data-name="Grupo 953134" clip-path="url(#clip-path-10)">
              <g id="Grupo_953133" data-name="Grupo 953133" opacity="0.7">
                <g id="Grupo_953132" data-name="Grupo 953132">
                  <g id="Grupo_953131" data-name="Grupo 953131" clip-path="url(#clip-path-10)">
                    <path id="Trazado_660525" data-name="Trazado 660525" d="M152,328.745H99.043l6.19-25.56,4.88-20.16,31.8-.8,1.39,21.5,1.15,17.93a7.564,7.564,0,0,0,7.55,7.09" fill="#5ca081"/>
                  </g>
                </g>
              </g>
            </g>
          </g>
        </g>
        <g id="Grupo_953142" data-name="Grupo 953142" opacity="0.3">
          <g id="Grupo_953141" data-name="Grupo 953141">
            <g id="Grupo_953140" data-name="Grupo 953140" clip-path="url(#clip-path-12)">
              <g id="Grupo_953139" data-name="Grupo 953139" opacity="0.7">
                <g id="Grupo_953138" data-name="Grupo 953138">
                  <g id="Grupo_953137" data-name="Grupo 953137" clip-path="url(#clip-path-12)">
                    <path id="Trazado_660526" data-name="Trazado 660526" d="M143.3,303.725a188.014,188.014,0,0,1-38.07-.54c-1.75-.18-3.4-.39-4.95-.6l9.83-36.92h30.74l1.06,16.56Z" fill="#5ca081"/>
                  </g>
                </g>
              </g>
            </g>
          </g>
        </g>
      </g>
    </g>
    <g id="Grupo_953149" data-name="Grupo 953149">
      <g id="Grupo_953148" data-name="Grupo 953148" clip-path="url(#clip-path)">
        <path id="Trazado_660528" data-name="Trazado 660528" d="M263.584,278.551a7.077,7.077,0,0,1-6.675,7.069c-22.126,1.253-93.158,5.156-119.745,5.156s-97.619-3.9-119.745-5.156a7.076,7.076,0,0,1-6.675-7.069V105.705a7.08,7.08,0,0,1,7.08-7.08H256.5a7.08,7.08,0,0,1,7.08,7.08Z" fill="#5ca081"/>
        <path id="Trazado_660529" data-name="Trazado 660529" d="M267.277,278.551a7.077,7.077,0,0,1-6.675,7.069c-22.126,1.253-93.158,5.156-119.745,5.156s-97.619-3.9-119.745-5.156a7.076,7.076,0,0,1-6.675-7.069V105.705a7.08,7.08,0,0,1,7.08-7.08H260.2a7.08,7.08,0,0,1,7.08,7.08Z" fill="#5ca081"/>
        <rect id="Rectángulo_353125" data-name="Rectángulo 353125" width="239.497" height="171.428" transform="translate(21.108 104.948)" fill="#263238"/>
        <rect id="Rectángulo_353126" data-name="Rectángulo 353126" width="239.497" height="171.428" transform="translate(21.108 104.948)" fill="none" stroke="#263238" stroke-linecap="round" stroke-linejoin="round" stroke-width="1"/>
        <g id="Grupo_953147" data-name="Grupo 953147" opacity="0.2">
          <g id="Grupo_953146" data-name="Grupo 953146">
            <g id="Grupo_953145" data-name="Grupo 953145" clip-path="url(#clip-path-15)">
              <rect id="Rectángulo_353127" data-name="Rectángulo 353127" width="239.497" height="171.428" transform="translate(21.108 104.948)" fill="#fff"/>
            </g>
          </g>
        </g>
        <rect id="Rectángulo_353129" data-name="Rectángulo 353129" width="239.497" height="18.892" transform="translate(21.108 104.948)" fill="#fff"/>
        <rect id="Rectángulo_353130" data-name="Rectángulo 353130" width="239.497" height="18.892" transform="translate(21.108 104.948)" fill="none" stroke="#263238" stroke-linecap="round" stroke-linejoin="round" stroke-width="1"/>
        <rect id="Rectángulo_353131" data-name="Rectángulo 353131" width="26.247" height="152.536" transform="translate(21.108 123.84)" fill="#bfbfbf"/>
        <rect id="Rectángulo_353132" data-name="Rectángulo 353132" width="26.247" height="152.536" transform="translate(21.108 123.84)" fill="none" stroke="#263238" stroke-miterlimit="10" stroke-width="1"/>
        <line id="Línea_257" data-name="Línea 257" y2="152.536" transform="translate(144.907 123.84)" fill="none" stroke="#fff" stroke-linecap="round" stroke-linejoin="round" stroke-width="1"/>
        <line id="Línea_258" data-name="Línea 258" x2="213.25" transform="translate(47.355 190.723)" fill="none" stroke="#fff" stroke-linecap="round" stroke-linejoin="round" stroke-width="1"/>
        <path id="Trazado_660530" data-name="Trazado 660530" d="M257.668,110.9a2.621,2.621,0,1,1-2.621-2.621,2.621,2.621,0,0,1,2.621,2.621" fill="#bfbfbf"/>
        <circle id="Elipse_7946" data-name="Elipse 7946" cx="2.621" cy="2.621" r="2.621" transform="translate(251.623 109.479) rotate(-22.5)" fill="none" stroke="#263238" stroke-miterlimit="10" stroke-width="1"/>
        <path id="Trazado_660531" data-name="Trazado 660531" d="M247.564,110.9a2.621,2.621,0,1,1-2.621-2.621,2.621,2.621,0,0,1,2.621,2.621" fill="#bfbfbf"/>
        <circle id="Elipse_7947" data-name="Elipse 7947" cx="2.621" cy="2.621" r="2.621" transform="translate(241.519 109.479) rotate(-22.5)" fill="none" stroke="#263238" stroke-miterlimit="10" stroke-width="1"/>
        <path id="Trazado_660532" data-name="Trazado 660532" d="M237.46,110.9a2.621,2.621,0,1,1-2.621-2.621,2.621,2.621,0,0,1,2.621,2.621" fill="#bfbfbf"/>
        <circle id="Elipse_7948" data-name="Elipse 7948" cx="2.621" cy="2.621" r="2.621" transform="translate(231.415 109.479) rotate(-22.5)" fill="none" stroke="#263238" stroke-miterlimit="10" stroke-width="1"/>
        <rect id="Rectángulo_353133" data-name="Rectángulo 353133" width="17.67" height="7.128" transform="translate(25.397 130.457)" fill="#fff"/>
        <rect id="Rectángulo_353134" data-name="Rectángulo 353134" width="17.67" height="7.128" transform="translate(25.397 130.457)" fill="none" stroke="#263238" stroke-linecap="round" stroke-linejoin="round" stroke-width="1"/>
        <rect id="Rectángulo_353135" data-name="Rectángulo 353135" width="17.67" height="7.128" transform="translate(25.397 139.723)" fill="#fff"/>
        <rect id="Rectángulo_353136" data-name="Rectángulo 353136" width="17.67" height="7.128" transform="translate(25.397 139.723)" fill="none" stroke="#263238" stroke-linecap="round" stroke-linejoin="round" stroke-width="1"/>
        <rect id="Rectángulo_353137" data-name="Rectángulo 353137" width="17.67" height="7.128" transform="translate(25.397 148.99)" fill="#fff"/>
        <rect id="Rectángulo_353138" data-name="Rectángulo 353138" width="17.67" height="7.128" transform="translate(25.397 148.99)" fill="none" stroke="#263238" stroke-linecap="round" stroke-linejoin="round" stroke-width="1"/>
        <rect id="Rectángulo_353139" data-name="Rectángulo 353139" width="17.67" height="7.128" transform="translate(25.397 158.257)" fill="#fff"/>
        <rect id="Rectángulo_353140" data-name="Rectángulo 353140" width="17.67" height="7.128" transform="translate(25.397 158.257)" fill="none" stroke="#263238" stroke-linecap="round" stroke-linejoin="round" stroke-width="1"/>
        <rect id="Rectángulo_353141" data-name="Rectángulo 353141" width="17.67" height="7.128" transform="translate(25.397 175.548)" fill="#fff"/>
        <rect id="Rectángulo_353142" data-name="Rectángulo 353142" width="17.67" height="7.128" transform="translate(25.397 175.548)" fill="none" stroke="#263238" stroke-linecap="round" stroke-linejoin="round" stroke-width="1"/>
        <rect id="Rectángulo_353143" data-name="Rectángulo 353143" width="17.67" height="7.128" transform="translate(25.397 184.515)" fill="#fff"/>
        <rect id="Rectángulo_353144" data-name="Rectángulo 353144" width="17.67" height="7.128" transform="translate(25.397 184.515)" fill="none" stroke="#263238" stroke-linecap="round" stroke-linejoin="round" stroke-width="1"/>
        <rect id="Rectángulo_353145" data-name="Rectángulo 353145" width="17.67" height="7.128" transform="translate(25.397 193.482)" fill="#fff"/>
        <rect id="Rectángulo_353146" data-name="Rectángulo 353146" width="17.67" height="7.128" transform="translate(25.397 193.482)" fill="none" stroke="#263238" stroke-linecap="round" stroke-linejoin="round" stroke-width="1"/>
        <rect id="Rectángulo_353147" data-name="Rectángulo 353147" width="17.67" height="7.128" transform="translate(25.397 202.449)" fill="#fff"/>
        <rect id="Rectángulo_353148" data-name="Rectángulo 353148" width="17.67" height="7.128" transform="translate(25.397 202.449)" fill="none" stroke="#263238" stroke-linecap="round" stroke-linejoin="round" stroke-width="1"/>
        <rect id="Rectángulo_353149" data-name="Rectángulo 353149" width="17.67" height="7.128" transform="translate(25.397 211.416)" fill="#fff"/>
        <rect id="Rectángulo_353150" data-name="Rectángulo 353150" width="17.67" height="7.128" transform="translate(25.397 211.416)" fill="none" stroke="#263238" stroke-linecap="round" stroke-linejoin="round" stroke-width="1"/>
        <rect id="Rectángulo_353151" data-name="Rectángulo 353151" width="7.128" height="7.128" transform="translate(25.397 228.74)" fill="#fff"/>
        <rect id="Rectángulo_353152" data-name="Rectángulo 353152" width="7.128" height="7.128" transform="translate(25.397 228.74)" fill="none" stroke="#263238" stroke-linecap="round" stroke-linejoin="round" stroke-width="1"/>
        <rect id="Rectángulo_353153" data-name="Rectángulo 353153" width="7.128" height="7.128" transform="translate(35.939 228.74)" fill="#fff"/>
        <rect id="Rectángulo_353154" data-name="Rectángulo 353154" width="7.128" height="7.128" transform="translate(35.939 228.74)" fill="none" stroke="#263238" stroke-linecap="round" stroke-linejoin="round" stroke-width="1"/>
        <rect id="Rectángulo_353155" data-name="Rectángulo 353155" width="7.128" height="7.128" transform="translate(25.397 239.372)" fill="#fff"/>
        <rect id="Rectángulo_353156" data-name="Rectángulo 353156" width="7.128" height="7.128" transform="translate(25.397 239.372)" fill="none" stroke="#263238" stroke-linecap="round" stroke-linejoin="round" stroke-width="1"/>
        <rect id="Rectángulo_353157" data-name="Rectángulo 353157" width="7.128" height="7.128" transform="translate(35.939 239.372)" fill="#fff"/>
        <rect id="Rectángulo_353158" data-name="Rectángulo 353158" width="7.128" height="7.128" transform="translate(35.939 239.372)" fill="none" stroke="#263238" stroke-linecap="round" stroke-linejoin="round" stroke-width="1"/>
        <line id="Línea_259" data-name="Línea 259" x2="26.247" transform="translate(21.108 170.808)" fill="none" stroke="#263238" stroke-linecap="round" stroke-linejoin="round" stroke-width="1"/>
        <line id="Línea_260" data-name="Línea 260" x2="26.247" transform="translate(21.108 224.083)" fill="none" stroke="#263238" stroke-linecap="round" stroke-linejoin="round" stroke-width="1"/>
        <rect id="Rectángulo_353159" data-name="Rectángulo 353159" width="28.22" height="4.022" transform="translate(193.729 108.886)" fill="#bfbfbf"/>
        <rect id="Rectángulo_353160" data-name="Rectángulo 353160" width="28.22" height="4.022" transform="translate(193.729 108.886)" fill="none" stroke="#263238" stroke-miterlimit="10" stroke-width="1"/>
        <rect id="Rectángulo_353161" data-name="Rectángulo 353161" width="5.607" height="5.607" transform="translate(25.397 108.094)" fill="#bfbfbf"/>
        <rect id="Rectángulo_353162" data-name="Rectángulo 353162" width="5.607" height="5.607" transform="translate(25.397 108.094)" fill="none" stroke="#263238" stroke-miterlimit="10" stroke-width="1"/>
        <path id="Trazado_660533" data-name="Trazado 660533" d="M118.45,156.723a23.6,23.6,0,1,1-23.6-23.6,23.6,23.6,0,0,1,23.6,23.6" fill="#ffd947"/>
        <path id="Trazado_660534" data-name="Trazado 660534" d="M102.45,151.009a13.89,13.89,0,1,1-13.89-13.89,13.89,13.89,0,0,1,13.89,13.89" fill="#f9e8a0"/>
        <rect id="Rectángulo_353163" data-name="Rectángulo 353163" width="239.497" height="6.007" transform="translate(21.108 270.369)" fill="#fff"/>
        <rect id="Rectángulo_353164" data-name="Rectángulo 353164" width="239.497" height="6.007" transform="translate(21.108 270.369)" fill="none" stroke="#263238" stroke-linecap="round" stroke-linejoin="round" stroke-width="1"/>
        <rect id="Rectángulo_353165" data-name="Rectángulo 353165" width="10.701" height="146.529" transform="translate(249.905 123.84)" fill="#bfbfbf"/>
        <rect id="Rectángulo_353166" data-name="Rectángulo 353166" width="10.701" height="146.529" transform="translate(249.905 123.84)" fill="none" stroke="#263238" stroke-miterlimit="10" stroke-width="1"/>
        <line id="Línea_261" data-name="Línea 261" x2="10.701" transform="translate(249.905 139.723)" fill="none" stroke="#263238" stroke-linecap="round" stroke-linejoin="round" stroke-width="1"/>
        <line id="Línea_262" data-name="Línea 262" x2="10.701" transform="translate(249.905 172.654)" fill="none" stroke="#263238" stroke-linecap="round" stroke-linejoin="round" stroke-width="1"/>
        <line id="Línea_263" data-name="Línea 263" x2="10.701" transform="translate(249.905 205.585)" fill="none" stroke="#263238" stroke-linecap="round" stroke-linejoin="round" stroke-width="1"/>
        <path id="Trazado_660535" data-name="Trazado 660535" d="M219.823,156.723a23.6,23.6,0,1,1-23.6-23.6A23.6,23.6,0,0,1,219.823,156.723Z" fill="none" stroke="#fff" stroke-miterlimit="10" stroke-width="1"/>
        <line id="Línea_264" data-name="Línea 264" x2="47.209" transform="translate(172.614 156.723)" fill="none" stroke="#fff" stroke-miterlimit="10" stroke-width="1"/>
        <line id="Línea_265" data-name="Línea 265" y2="47.209" transform="translate(196.219 133.118)" fill="none" stroke="#fff" stroke-miterlimit="10" stroke-width="1"/>
        <line id="Línea_266" data-name="Línea 266" x2="33.382" y2="33.382" transform="translate(179.528 140.032)" fill="none" stroke="#fff" stroke-miterlimit="10" stroke-width="1"/>
        <line id="Línea_267" data-name="Línea 267" x1="33.382" y2="33.382" transform="translate(179.527 140.032)" fill="none" stroke="#fff" stroke-miterlimit="10" stroke-width="1"/>
        <line id="Línea_268" data-name="Línea 268" x2="43.593" y2="18.119" transform="translate(174.422 147.663)" fill="none" stroke="#fff" stroke-miterlimit="10" stroke-width="1"/>
        <line id="Línea_269" data-name="Línea 269" x1="18.119" y2="43.593" transform="translate(187.159 134.926)" fill="none" stroke="#fff" stroke-miterlimit="10" stroke-width="1"/>
        <line id="Línea_270" data-name="Línea 270" x2="18.013" y2="43.637" transform="translate(187.212 134.904)" fill="none" stroke="#fff" stroke-miterlimit="10" stroke-width="1"/>
        <line id="Línea_271" data-name="Línea 271" x1="43.637" y2="18.013" transform="translate(174.4 147.716)" fill="none" stroke="#fff" stroke-miterlimit="10" stroke-width="1"/>
        <path id="Trazado_660536" data-name="Trazado 660536" d="M212.071,156.723a15.853,15.853,0,1,1-15.853-15.853A15.853,15.853,0,0,1,212.071,156.723Z" fill="none" stroke="#fff" stroke-miterlimit="10" stroke-width="1"/>
        <circle id="Elipse_7949" data-name="Elipse 7949" cx="7.239" cy="7.239" r="7.239" transform="matrix(0.526, -0.851, 0.851, 0.526, 186.255, 159.075)" fill="none" stroke="#fff" stroke-miterlimit="10" stroke-width="1"/>
        <path id="Trazado_660537" data-name="Trazado 660537" d="M118.45,231.37a23.6,23.6,0,1,0-23.6,23.6A23.6,23.6,0,0,0,118.45,231.37Z" fill="none" stroke="#fff" stroke-linecap="round" stroke-linejoin="round" stroke-width="1"/>
        <line id="Línea_272" data-name="Línea 272" x2="47.209" transform="translate(71.242 231.37)" fill="none" stroke="#fff" stroke-linecap="round" stroke-linejoin="round" stroke-width="1"/>
        <line id="Línea_273" data-name="Línea 273" y2="47.209" transform="translate(94.846 207.766)" fill="none" stroke="#fff" stroke-linecap="round" stroke-linejoin="round" stroke-width="1"/>
        <ellipse id="Elipse_7950" data-name="Elipse 7950" cx="8.01" cy="23.604" rx="8.01" ry="23.604" transform="translate(86.836 207.766)" fill="none" stroke="#fff" stroke-linecap="round" stroke-linejoin="round" stroke-width="1"/>
        <ellipse id="Elipse_7951" data-name="Elipse 7951" cx="15.27" cy="23.604" rx="15.27" ry="23.604" transform="translate(79.576 207.766)" fill="none" stroke="#fff" stroke-linecap="round" stroke-linejoin="round" stroke-width="1"/>
        <path id="Trazado_660538" data-name="Trazado 660538" d="M116.107,231.37c0,13.036-9.519,23.6-21.262,23.6s-21.261-10.568-21.261-23.6,9.519-23.6,21.261-23.6S116.107,218.334,116.107,231.37Z" fill="none" stroke="#fff" stroke-linecap="round" stroke-linejoin="round" stroke-width="1"/>
        <line id="Línea_274" data-name="Línea 274" x2="41.952" transform="translate(73.868 220.544)" fill="none" stroke="#fff" stroke-linecap="round" stroke-linejoin="round" stroke-width="1"/>
        <line id="Línea_275" data-name="Línea 275" x2="25.209" transform="translate(82.24 211.416)" fill="none" stroke="#fff" stroke-linecap="round" stroke-linejoin="round" stroke-width="1"/>
        <line id="Línea_276" data-name="Línea 276" x2="41.952" transform="translate(73.868 242.197)" fill="none" stroke="#fff" stroke-linecap="round" stroke-linejoin="round" stroke-width="1"/>
        <line id="Línea_277" data-name="Línea 277" x2="25.209" transform="translate(82.24 251.325)" fill="none" stroke="#fff" stroke-linecap="round" stroke-linejoin="round" stroke-width="1"/>
        <path id="Trazado_660539" data-name="Trazado 660539" d="M219.823,231.37a23.6,23.6,0,1,1-23.6-23.6A23.6,23.6,0,0,1,219.823,231.37Z" fill="none" stroke="#fff" stroke-miterlimit="10" stroke-width="1"/>
        <path id="Trazado_660540" data-name="Trazado 660540" d="M204.587,231.37c0,13.036-3.747,23.6-8.369,23.6s-8.368-10.568-8.368-23.6,3.747-23.6,8.368-23.6S204.587,218.334,204.587,231.37Z" fill="none" stroke="#fff" stroke-miterlimit="10" stroke-width="1"/>
        <path id="Trazado_660541" data-name="Trazado 660541" d="M196.219,239.739c-13.036,0-23.6-3.747-23.6-8.369S183.183,223,196.219,223s23.6,3.747,23.6,8.368S209.255,239.739,196.219,239.739Z" fill="none" stroke="#fff" stroke-miterlimit="10" stroke-width="1"/>
        <line id="Línea_278" data-name="Línea 278" y1="16.194" x2="16.194" transform="translate(188.393 223.545)" fill="none" stroke="#fff" stroke-miterlimit="10" stroke-width="1"/>
        <line id="Línea_279" data-name="Línea 279" x2="47.209" transform="translate(172.614 231.37)" fill="none" stroke="#fff" stroke-miterlimit="10" stroke-width="1"/>
        <line id="Línea_280" data-name="Línea 280" y2="47.209" transform="translate(196.219 207.766)" fill="none" stroke="#fff" stroke-miterlimit="10" stroke-width="1"/>
        <path id="Trazado_660542" data-name="Trazado 660542" d="M63.136,334.933h236.08q-118.086-.063-236.08-.012Z" fill="#fff"/>
        <path id="Trazado_660543" data-name="Trazado 660543" d="M63.136,334.933h236.08q-118.086-.063-236.08-.012Z" fill="none" stroke="#263238" stroke-linecap="round" stroke-linejoin="round" stroke-width="1"/>
        <path id="Trazado_660544" data-name="Trazado 660544" d="M59.971,334.922q-13.622.006-27.247.011H59.971Z" fill="#fff"/>
        <path id="Trazado_660545" data-name="Trazado 660545" d="M59.971,334.922q-13.622.006-27.247.011H59.971Z" fill="none" stroke="#263238" stroke-linecap="round" stroke-linejoin="round" stroke-width="1"/>
        <line id="Línea_281" data-name="Línea 281" x2="7.198" transform="translate(18.344 334.933)" fill="#fff"/>
        <line id="Línea_282" data-name="Línea 282" x2="7.198" transform="translate(18.344 334.933)" fill="none" stroke="#263238" stroke-linecap="round" stroke-linejoin="round" stroke-width="1"/>
        <path id="Trazado_660546" data-name="Trazado 660546" d="M85.729,349.964h61.055V337.489l-60.909.791Z" fill="#5ca081"/>
        <path id="Trazado_660547" data-name="Trazado 660547" d="M263.353,349.964h-133.7l-40.5-9.838-3.282-7.146H200.864l62.489,12.556Z" fill="#5ca081"/>
        <path id="Trazado_660548" data-name="Trazado 660548" d="M151.135,345.536H263.353l-62.489-12.555H85.875l43.78,12.555H145.86" fill="#5ca081"/>
      </g>
    </g>
    <g id="Grupo_953157" data-name="Grupo 953157">
      <g id="Grupo_953156" data-name="Grupo 953156" clip-path="url(#clip-path-16)">
        <g id="Grupo_953155" data-name="Grupo 953155" opacity="0.3">
          <g id="Grupo_953154" data-name="Grupo 953154">
            <g id="Grupo_953153" data-name="Grupo 953153" clip-path="url(#clip-path-17)">
              <g id="Grupo_953152" data-name="Grupo 953152" opacity="0.7">
                <g id="Grupo_953151" data-name="Grupo 953151">
                  <g id="Grupo_953150" data-name="Grupo 953150" clip-path="url(#clip-path-17)">
                    <path id="Trazado_660549" data-name="Trazado 660549" d="M85.875,332.981l43.78,12.555h133.7l-62.489-12.555Z" fill="#5ca081"/>
                  </g>
                </g>
              </g>
            </g>
          </g>
        </g>
      </g>
    </g>
    <g id="Grupo_953159" data-name="Grupo 953159">
      <g id="Grupo_953158" data-name="Grupo 953158" clip-path="url(#clip-path)">
        <line id="Línea_283" data-name="Línea 283" y2="1.662" transform="translate(129.655 348.303)" fill="#5ca081"/>
        <path id="Trazado_660551" data-name="Trazado 660551" d="M90.711,338.167a12.736,12.736,0,0,1,.425,3.3c0,4.69-2.421,8.492-5.407,8.492s-5.406-3.8-5.406-8.492,2.42-8.491,5.406-8.491c1.651,0,3.129,1.161,4.121,2.993" fill="#5ca081"/>
        <path id="Trazado_660552" data-name="Trazado 660552" d="M62.77,359.418c76.563.467,154.563.467,231.97,0" fill="#fff"/>
        <path id="Trazado_660553" data-name="Trazado 660553" d="M62.77,359.418c76.563.467,154.563.467,231.97,0" fill="none" stroke="#263238" stroke-linecap="round" stroke-linejoin="round" stroke-width="1"/>
        <path id="Trazado_660554" data-name="Trazado 660554" d="M44.213,359.418a46.107,46.107,0,0,0,11.345,0" fill="#fff"/>
        <path id="Trazado_660555" data-name="Trazado 660555" d="M44.213,359.418a46.107,46.107,0,0,0,11.345,0" fill="none" stroke="#263238" stroke-linecap="round" stroke-linejoin="round" stroke-width="1"/>
        <path id="Trazado_660556" data-name="Trazado 660556" d="M155.523,371.379c45.81-.494,90.81-.494,136.579,0" fill="#fff"/>
        <path id="Trazado_660557" data-name="Trazado 660557" d="M155.523,371.379c45.81-.494,90.81-.494,136.579,0" fill="none" stroke="#263238" stroke-linecap="round" stroke-linejoin="round" stroke-width="1"/>
        <path id="Trazado_660558" data-name="Trazado 660558" d="M67.927,371.379q36.61-.741,72.122,0" fill="#fff"/>
        <path id="Trazado_660559" data-name="Trazado 660559" d="M67.927,371.379q36.61-.741,72.122,0" fill="none" stroke="#263238" stroke-linecap="round" stroke-linejoin="round" stroke-width="1"/>
      </g>
    </g>
    <g id="Grupo_953161" data-name="Grupo 953161">
      <g id="Grupo_953160" data-name="Grupo 953160" clip-path="url(#clip-path)">
        <path id="Trazado_660560" data-name="Trazado 660560" d="M264.446,240.934a36.909,36.909,0,0,1-12.363.8c-.477-.055-.953-.121-1.429-.187-5.248-.795-5.383-6.294-9.3-27.364-1.119-6.025,2.918-13.845.581-22.88-.49-1.9,2.633-16.222,6.916-20.854,13.924-15.057,45.939-12.223,51.342,7.976,7.916,29.6-12.2,56.984-35.751,62.508" fill="#fff"/>
        <path id="Trazado_660561" data-name="Trazado 660561" d="M264.446,240.934a36.909,36.909,0,0,1-12.363.8c-.477-.055-.953-.121-1.429-.187-5.248-.795-5.383-6.294-9.3-27.364-1.119-6.025,2.918-13.845.581-22.88-.49-1.9,2.633-16.222,6.916-20.854,13.924-15.057,45.939-12.223,51.342,7.976C308.113,208.029,287.992,235.41,264.446,240.934Z" fill="none" stroke="#263238" stroke-linecap="round" stroke-linejoin="round" stroke-width="1"/>
        <path id="Trazado_660562" data-name="Trazado 660562" d="M256.7,230.149c-.309,3.21-8.6,9.264-6.048,11.4" fill="none" stroke="#263238" stroke-linecap="round" stroke-linejoin="round" stroke-width="1"/>
        <path id="Trazado_660563" data-name="Trazado 660563" d="M264.446,240.934a36.909,36.909,0,0,1-12.363.8,24.151,24.151,0,0,0,8.733-5.992Z" fill="#263238"/>
        <path id="Trazado_660564" data-name="Trazado 660564" d="M112.1,330.632a11.024,11.024,0,0,0,0,4.3,1.355,1.355,0,0,0,2.637,0,22.915,22.915,0,0,1,2.11-4.3" fill="#fff"/>
        <path id="Trazado_660565" data-name="Trazado 660565" d="M112.1,330.632a11.024,11.024,0,0,0,0,4.3,1.355,1.355,0,0,0,2.637,0,22.915,22.915,0,0,1,2.11-4.3" fill="none" stroke="#263238" stroke-linecap="round" stroke-linejoin="round" stroke-width="1"/>
        <path id="Trazado_660566" data-name="Trazado 660566" d="M196.219,334.342s-46.17-10.624-49.729-10.28-19.708-12.854-21.865-12.705-10.26,6.355-10.26,6.355l-9.308,11.2-2.606,6.512s1.334,3.337,5.338-1.393l6.576-3.395s11.619,10.676,23.429,8.9c0,0,49.355,28.342,58.7,27.365S237.4,334.029,237.4,334.029Z" fill="#fff"/>
        <path id="Trazado_660567" data-name="Trazado 660567" d="M196.219,334.342s-46.17-10.624-49.729-10.28-19.708-12.854-21.865-12.705-10.26,6.355-10.26,6.355l-9.308,11.2-2.606,6.512s1.334,3.337,5.338-1.393l6.576-3.395s11.619,10.676,23.429,8.9c0,0,49.355,28.342,58.7,27.365S237.4,334.029,237.4,334.029Z" fill="none" stroke="#263238" stroke-linecap="round" stroke-linejoin="round" stroke-width="1"/>
        <path id="Trazado_660568" data-name="Trazado 660568" d="M259.884,237.782c2.859,1.989,6.287,10.281,3.295,19.466l37.547-2.868s-9.655-15.391-11.949-29.244-19.636-3.7-19.636-3.7" fill="#fff"/>
        <path id="Trazado_660569" data-name="Trazado 660569" d="M259.884,237.782c2.859,1.989,6.287,10.281,3.295,19.466l37.547-2.868s-9.655-15.391-11.949-29.244-19.636-3.7-19.636-3.7" fill="none" stroke="#263238" stroke-linecap="round" stroke-linejoin="round" stroke-width="1"/>
        <path id="Trazado_660570" data-name="Trazado 660570" d="M308.762,185.985c-3.572-21.379-18.017-28.882-32.5-28.317l-5.673-.753c-21.97-2.913-32.608,6.493-34.377,15.359-1.277,6.4,1.483,15.3,14.027,19.484a11.5,11.5,0,0,1-2.034-8.8,30.742,30.742,0,0,0,2.4,5.02c4.19,7.082,4.936,10.538,5.388,13.12l1.131,1.1c.545-3.015,1.976-7.041,5.675-4.069,6.656,5.348,3.618,18.762.775,22.892,0,0,6.059,14.421,25.43,11.39,0,0,23.336-25.051,19.764-46.43" fill="#263238"/>
        <path id="Trazado_660571" data-name="Trazado 660571" d="M259.214,203.973s-1.695-9.209,1.2-8.689,4.709,10.174,3.623,15.758-3.611,10.843-5.635,9,.982-4.492.982-4.492" fill="#fff"/>
        <path id="Trazado_660572" data-name="Trazado 660572" d="M259.214,203.973s-1.695-9.209,1.2-8.689,4.709,10.174,3.623,15.758-3.611,10.843-5.635,9,.982-4.492.982-4.492" fill="none" stroke="#263238" stroke-linecap="round" stroke-linejoin="round" stroke-width="1"/>
        <path id="Trazado_660573" data-name="Trazado 660573" d="M362.323,358.745c-20.28,23.59-48.23,40.06-78.99,49.59q-9.54,2.955-19.4,5.02-2.64.555-5.3,1.05-5.49,1.02-11.02,1.76c-1.84-22.11-6.67-44.97-10.54-66.3-.81-4.49-1.58-8.92-2.28-13.25-.13-.86-.27-1.72-.4-2.57-1.25-8.16-2.19-15.98-2.58-23.32-1.1-21.33,2.53-38.61,17.05-48.29a43.578,43.578,0,0,1,11.02-5.19.031.031,0,0,0,.02-.01c.18-.16,1.65-1.36,4.04-2.98,6.27-4.22,18.93-11.26,31.56-9.54.57.08,1.14.17,1.71.29a26.233,26.233,0,0,1,6.8,2.37,77.383,77.383,0,0,1,19.4,6.23c6.78,3.26,13.78,8.07,18.22,15.02,6.88,10.77,15.34,57.11,20.69,90.12" fill="#ccad38"/>
      </g>
    </g>
    <g id="Grupo_953175" data-name="Grupo 953175">
      <g id="Grupo_953174" data-name="Grupo 953174" clip-path="url(#clip-path-21)">
        <g id="Grupo_953167" data-name="Grupo 953167" opacity="0.3">
          <g id="Grupo_953166" data-name="Grupo 953166">
            <g id="Grupo_953165" data-name="Grupo 953165" clip-path="url(#clip-path-22)">
              <g id="Grupo_953164" data-name="Grupo 953164" opacity="0.7">
                <g id="Grupo_953163" data-name="Grupo 953163">
                  <g id="Grupo_953162" data-name="Grupo 953162" clip-path="url(#clip-path-22)">
                    <path id="Trazado_660574" data-name="Trazado 660574" d="M270.673,315.075s-5.87,31.86-16.99,41.49c0,0-4.55,10.01-12.92,13.14-1.24-6.71-2.51-13.35-3.69-19.84-.81-4.49-1.58-8.92-2.28-13.25-.13-.86-.27-1.72-.4-2.57-.13-.88-.27-1.75-.39-2.62Z" fill="#d6b429"/>
                  </g>
                </g>
              </g>
            </g>
          </g>
        </g>
        <g id="Grupo_953173" data-name="Grupo 953173" opacity="0.3">
          <g id="Grupo_953172" data-name="Grupo 953172">
            <g id="Grupo_953171" data-name="Grupo 953171" clip-path="url(#clip-path-24)">
              <g id="Grupo_953170" data-name="Grupo 953170" opacity="0.7">
                <g id="Grupo_953169" data-name="Grupo 953169">
                  <g id="Grupo_953168" data-name="Grupo 953168" clip-path="url(#clip-path-24)">
                    <path id="Trazado_660575" data-name="Trazado 660575" d="M362.323,358.745c-20.28,23.59-48.23,40.06-78.99,49.59q-9.54,2.955-19.4,5.02-2.64.555-5.3,1.05c-1.59.3-3.18.57-4.78.83,1.62-18.25,4.84-44.86,10.08-48.31,0,0,4.1-28.97,8.44-43.73,8.55-29.06-4.33-57.55,21.22-69.66a81.236,81.236,0,0,1-22.76-.48c4.49-3.45,14.36-6.43,24.23-8.39h.01c.14.01.29.03.43.05.57.08,1.14.17,1.71.29a26.233,26.233,0,0,1,6.8,2.37,77.383,77.383,0,0,1,19.4,6.23c6.78,3.26,13.78,8.07,18.22,15.02,6.88,10.77,15.34,57.11,20.69,90.12" fill="#d6b429"/>
                  </g>
                </g>
              </g>
            </g>
          </g>
        </g>
      </g>
    </g>
    <g id="Grupo_953177" data-name="Grupo 953177">
      <g id="Grupo_953176" data-name="Grupo 953176" clip-path="url(#clip-path)">
        <path id="Trazado_660577" data-name="Trazado 660577" d="M248.611,262.145c-24.217,5.748-31.521,35.466-43.208,44.347A75.649,75.649,0,0,0,187.31,326.52s-10.4,1.743-10.4,5.523-3.466,24.462,17.367,30.351,26.887-2.643,26.887-2.643,35.506-21.069,42.01-29.8a43.826,43.826,0,0,0,5.727-43.785" fill="#ffd947"/>
      </g>
    </g>
    <g id="Grupo_953185" data-name="Grupo 953185">
      <g id="Grupo_953184" data-name="Grupo 953184" clip-path="url(#clip-path-27)">
        <g id="Grupo_953183" data-name="Grupo 953183" opacity="0.3">
          <g id="Grupo_953182" data-name="Grupo 953182">
            <g id="Grupo_953181" data-name="Grupo 953181" clip-path="url(#clip-path-28)">
              <g id="Grupo_953180" data-name="Grupo 953180" opacity="0.7">
                <g id="Grupo_953179" data-name="Grupo 953179">
                  <g id="Grupo_953178" data-name="Grupo 953178" clip-path="url(#clip-path-28)">
                    <path id="Trazado_660578" data-name="Trazado 660578" d="M214.643,354.655c-32.33,4.93-34.15-16.06-33.13-26.57a34.764,34.764,0,0,1,5.8-1.56s.32-.56.95-1.52c-3.44,16.95,26.38,29.65,26.38,29.65" fill="#f4d755"/>
                  </g>
                </g>
              </g>
            </g>
          </g>
        </g>
      </g>
    </g>
    <g id="Grupo_953190" data-name="Grupo 953190">
      <g id="Grupo_953189" data-name="Grupo 953189" clip-path="url(#clip-path)">
        <path id="Trazado_660580" data-name="Trazado 660580" d="M113.685,327.467s-.527-3.692,0-5.143,3.033-1.055,3.3-2.637,1.582-4.616,3.3-4.616,3.164-1.765,3.164-1.765" fill="none" stroke="#263238" stroke-linecap="round" stroke-linejoin="round" stroke-width="1"/>
        <path id="Trazado_660581" data-name="Trazado 660581" d="M105.057,328.911s5.643-4.028,7.046-4.872" fill="none" stroke="#263238" stroke-linecap="round" stroke-linejoin="round" stroke-width="1"/>
        <path id="Trazado_660582" data-name="Trazado 660582" d="M265.333,307.16s-43.346,10.383-56.481-3.984" fill="none" stroke="#263238" stroke-linecap="round" stroke-linejoin="round" stroke-width="1"/>
        <path id="Trazado_660583" data-name="Trazado 660583" d="M187.31,326.521s-3.867,13.023,6.023,20.963,22.55,7.149,22.55,7.149" fill="none" stroke="#263238" stroke-linecap="round" stroke-linejoin="round" stroke-width="1"/>
        <path id="Trazado_660584" data-name="Trazado 660584" d="M259.884,257.247s27.909-12.253,44.129-9.871" fill="none" stroke="#263238" stroke-linecap="round" stroke-linejoin="round" stroke-width="1"/>
        <path id="Trazado_660585" data-name="Trazado 660585" d="M276.806,315.072s-7.718,19.3-24.232,24.186" fill="none" stroke="#263238" stroke-linecap="round" stroke-linejoin="round" stroke-width="1"/>
        <path id="Trazado_660586" data-name="Trazado 660586" d="M245.094,344.544s11.932,25.122,39.426,29.473" fill="none" stroke="#263238" stroke-linecap="round" stroke-linejoin="round" stroke-width="1"/>
        <path id="Trazado_660587" data-name="Trazado 660587" d="M263.933,413.355c-.43-4.93-1.02-11-1.7-16.82v-.01c-1.06-9.03-2.33-17.46-3.63-20.13-3.16-6.53-2.51-17.11-2.51-17.11-4.49-6.04-3.52-17.81-3.52-17.81" fill="none" stroke="#263238" stroke-linecap="round" stroke-linejoin="round" stroke-width="1"/>
        <g id="Grupo_953188" data-name="Grupo 953188" opacity="0.4">
          <g id="Grupo_953187" data-name="Grupo 953187">
            <g id="Grupo_953186" data-name="Grupo 953186" clip-path="url(#clip-path-31)">
              <path id="Trazado_660588" data-name="Trazado 660588" d="M279.419,191.924a31.085,31.085,0,0,0,6.233,1.494" fill="none" stroke="#fff" stroke-linecap="round" stroke-linejoin="round" stroke-width="1"/>
              <path id="Trazado_660589" data-name="Trazado 660589" d="M257.958,159.3c-6.051,2.6-8.807,10.367-5.3,15.727,5.3,7.541,13.975,11.388,22.359,15.254" fill="none" stroke="#fff" stroke-linecap="round" stroke-linejoin="round" stroke-width="1"/>
              <path id="Trazado_660590" data-name="Trazado 660590" d="M248.761,161.668c-8.835,4.164-11.524,12.683-4.86,20.348" fill="none" stroke="#fff" stroke-linecap="round" stroke-linejoin="round" stroke-width="1"/>
              <path id="Trazado_660591" data-name="Trazado 660591" d="M299.354,191.7a18.358,18.358,0,0,1,2.43,4.061" fill="none" stroke="#fff" stroke-linecap="round" stroke-linejoin="round" stroke-width="1"/>
              <path id="Trazado_660592" data-name="Trazado 660592" d="M277.951,163.07c-3.847,12.91,12.486,18.745,19.346,26.177" fill="none" stroke="#fff" stroke-linecap="round" stroke-linejoin="round" stroke-width="1"/>
            </g>
          </g>
        </g>
        <path id="Trazado_660593" data-name="Trazado 660593" d="M410.913,242.9c-.18,1.29-.36,2.57-.56,3.86-5.94,39.14-21.71,77.53-42.46,105.08q-2.67,3.555-5.57,6.91c-20.28,23.59-48.23,40.06-78.99,49.59q-9.54,2.955-19.4,5.02-2.64.555-5.3,1.05c1.05-5.18,2.26-11.22,3.6-17.87v-.01c1.73-8.62,3.66-18.25,5.67-28.29,8.82-44.11,19.16-96.22,20.77-106.09a43.285,43.285,0,0,1,1.67-6.98,22.388,22.388,0,0,1,4.43-7.86c.42-.46.86-.91,1.33-1.35.35-.32.73-.64,1.11-.95,7.01-5.58,19.4-8.03,41.86-7.67,38.72.61,60.63-6.93,71.59,5.24a3.917,3.917,0,0,1,.25.32" fill="#480087"/>
      </g>
    </g>
    <g id="Grupo_953192" data-name="Grupo 953192">
      <g id="Grupo_953191" data-name="Grupo 953191" clip-path="url(#clip-path-32)">
        <path id="Trazado_660594" data-name="Trazado 660594" d="M410.353,246.755c-5.94,39.14-21.71,77.53-42.46,105.08q-2.67,3.555-5.57,6.91c-20.28,23.59-48.23,40.06-78.99,49.59,7.83-33.56,28.37-121.93,30.92-137.34,1.67-10.04,4.64-14.97,9.16-17.39,4.08-2.18,9.41-2.31,16.16-2.28,10.39.04,46.62-5.62,70.78-4.57" fill="#480087"/>
      </g>
    </g>
    <g id="Grupo_953194" data-name="Grupo 953194">
      <g id="Grupo_953193" data-name="Grupo 953193" clip-path="url(#clip-path)">
        <path id="Trazado_660596" data-name="Trazado 660596" d="M393.211,246.81c3.655-.156,7.312-.233,10.971-.206" fill="none" stroke="#263238" stroke-linecap="round" stroke-linejoin="round" stroke-width="1"/>
        <path id="Trazado_660597" data-name="Trazado 660597" d="M386.362,247.188q1.711-.114,3.423-.209" fill="none" stroke="#263238" stroke-linecap="round" stroke-linejoin="round" stroke-width="1"/>
        <path id="Trazado_660598" data-name="Trazado 660598" d="M296.459,351.885c5.358-22.489,10.828-44.967,15.008-67.713,1.522-8.28,1.916-18.093,6.713-25.323,5.717-8.618,16.007-7.3,25.05-7.705,13.04-.581,26.015-2.635,39.026-3.658" fill="none" stroke="#263238" stroke-linecap="round" stroke-linejoin="round" stroke-width="1"/>
        <path id="Trazado_660599" data-name="Trazado 660599" d="M294.423,360.551q.54-2.334,1.088-4.665" fill="none" stroke="#263238" stroke-linecap="round" stroke-linejoin="round" stroke-width="1"/>
        <path id="Trazado_660600" data-name="Trazado 660600" d="M283.333,408.335q4.419-18.942,8.8-37.892" fill="none" stroke="#263238" stroke-linecap="round" stroke-linejoin="round" stroke-width="1"/>
      </g>
    </g>
  </g>
</svg>
